<?xml version="1.0" encoding="utf-8"?>
<!-- Generator: Adobe Illustrator 16.0.3, SVG Export Plug-In . SVG Version: 6.00 Build 0)  -->
<!DOCTYPE svg PUBLIC "-//W3C//DTD SVG 1.1//EN" "http://www.w3.org/Graphics/SVG/1.1/DTD/svg11.dtd">
<svg version="1.1" id="Layer_1" xmlns="http://www.w3.org/2000/svg" xmlns:xlink="http://www.w3.org/1999/xlink" x="0px" y="0px"
	 width="386px" height="313px" viewBox="0 0 386 313" style="enable-background:new 0 0 386 313;" xml:space="preserve">
<g>
	<line style="fill:none;stroke:#FCF171;stroke-width:2;" x1="210.879" y1="299" x2="362.453" y2="299"/>
	
		<line style="fill:none;stroke:#FCF171;stroke-width:0.78;stroke-miterlimit:10;" x1="211.316" y1="298.871" x2="360.994" y2="298.871"/>
	<path d="M33.58,297.311c3.105,0,5.584-0.769,7.438-2.307s2.78-3.735,2.78-6.592c0-2.021-0.641-3.786-1.923-5.296
		c-1.282-1.508-2.933-2.387-4.955-2.637c1.523-0.497,2.735-1.347,3.636-2.549c0.901-1.2,1.352-2.6,1.352-4.196
		c0-2.813-0.931-4.918-2.791-6.317c-1.86-1.398-4.453-2.099-7.778-2.099H22v31.992H33.58L33.58,297.311z M33.492,281.886h0.352
		c2.227,0.074,4.002,0.707,5.328,1.901c1.326,1.193,1.989,2.75,1.989,4.669c0,2.095-0.674,3.725-2.021,4.889
		c-1.348,1.165-3.201,1.747-5.559,1.747h-8.943v-13.206H33.492L33.492,281.886z M24.637,267.56h6.702
		c2.593,0,4.563,0.51,5.911,1.527c1.348,1.019,2.021,2.538,2.021,4.56c0,1.934-0.604,3.409-1.813,4.428
		c-1.208,1.018-2.919,1.549-5.13,1.593h-7.69V267.56L24.637,267.56z M64.913,297.311h2.329v-23.774h-2.637v16.985
		c-0.483,1.538-1.315,2.75-2.494,3.637c-1.179,0.886-2.757,1.329-4.735,1.329c-1.816,0-3.219-0.63-4.208-1.89
		s-1.483-3.34-1.483-6.24v-13.821h-2.637v13.777c0,3.574,0.71,6.211,2.131,7.91c1.42,1.699,3.384,2.549,5.889,2.549
		c1.758,0,3.277-0.374,4.559-1.121s2.304-1.815,3.065-3.208L64.913,297.311L64.913,297.311z M77.129,273.536h-2.615v23.774h2.615
		V273.536L77.129,273.536z M77.129,263.033h-2.615v3.691h2.615V263.033L77.129,263.033z M87.347,263.033h-2.615v34.277h2.615
		V263.033L87.347,263.033z M96.07,267.45v6.086h-4.109v2.153h4.109v15.491c0,2.285,0.465,3.955,1.395,5.01s2.23,1.582,3.9,1.582
		c0.513,0,1.029-0.055,1.549-0.165c0.52-0.109,0.956-0.253,1.308-0.429l-0.396-1.955c-0.41,0.088-0.766,0.15-1.066,0.187
		c-0.3,0.037-0.612,0.055-0.934,0.055c-0.938,0-1.688-0.325-2.252-0.978c-0.564-0.651-0.846-1.754-0.846-3.307v-15.491h5.229v-2.153
		h-5.229v-6.086H96.07L96.07,267.45z M120.811,273.536h-2.813l6.899,23.774h2.263l5.273-16.26l0.945-3.845h0.132l0.945,3.845
		l5.383,16.26h2.241l6.921-23.774h-2.813l-4.241,16.063l-1.033,4.482h-0.132l-1.099-4.482l-5.054-16.063h-2.263l-5.054,16.063
		l-1.099,4.351h-0.132l-0.923-4.351L120.811,273.536L120.811,273.536z M157.044,273.536h-2.615v23.774h2.615V273.536
		L157.044,273.536z M157.044,263.033h-2.615v3.691h2.615V263.033L157.044,263.033z M165.767,267.45v6.086h-4.109v2.153h4.109v15.491
		c0,2.285,0.465,3.955,1.395,5.01s2.23,1.582,3.9,1.582c0.513,0,1.029-0.055,1.549-0.165c0.52-0.109,0.956-0.253,1.308-0.429
		l-0.396-1.955c-0.41,0.088-0.766,0.15-1.066,0.187c-0.3,0.037-0.612,0.055-0.934,0.055c-0.938,0-1.688-0.325-2.252-0.978
		c-0.564-0.651-0.846-1.754-0.846-3.307v-15.491h5.229v-2.153h-5.229v-6.086H165.767L165.767,267.45z M181.434,263.033h-2.637
		v34.277h2.637v-16.963c0.557-1.508,1.432-2.713,2.625-3.614c1.194-0.9,2.714-1.352,4.56-1.352c1.787,0,3.189,0.561,4.208,1.682
		c1.017,1.12,1.527,2.97,1.527,5.548v14.699h2.637v-14.655c0-3.267-0.67-5.676-2.01-7.229c-1.342-1.552-3.264-2.329-5.769-2.329
		c-1.758,0-3.292,0.393-4.604,1.176c-1.311,0.784-2.37,1.887-3.175,3.307V263.033L181.434,263.033z M231.135,293.872
		c-1.537,1.121-3.529,1.681-5.977,1.681c-2.387,0-4.512-0.604-6.371-1.813c-1.861-1.208-2.791-3.05-2.791-5.526h-2.439l-0.043,0.132
		c-0.074,3.076,1.063,5.417,3.406,7.021c2.344,1.604,5.09,2.406,8.238,2.406c3.15,0,5.762-0.758,7.834-2.274
		c2.072-1.516,3.109-3.519,3.109-6.01c0-2.373-0.887-4.276-2.658-5.713c-1.773-1.435-4.344-2.644-7.713-3.625
		c-3.238-0.908-5.496-1.886-6.779-2.934c-1.281-1.047-1.922-2.384-1.922-4.01c0-1.714,0.707-3.16,2.121-4.34
		c1.412-1.179,3.365-1.769,5.855-1.769c2.416,0,4.391,0.696,5.922,2.087c1.529,1.393,2.295,3.143,2.295,5.252h2.461l0.045-0.132
		c0.059-2.739-0.902-4.999-2.879-6.778c-1.979-1.78-4.592-2.67-7.844-2.67c-3.092,0-5.633,0.787-7.625,2.362
		c-1.992,1.574-2.988,3.585-2.988,6.031c0,2.402,0.891,4.303,2.67,5.702c1.779,1.398,4.375,2.567,7.789,3.504
		c3.119,0.938,5.332,1.941,6.635,3.011c1.305,1.069,1.957,2.425,1.957,4.064C233.443,291.306,232.674,292.752,231.135,293.872
		L231.135,293.872z M245.066,292.817c-1.217-1.823-1.824-4.134-1.824-6.933v-0.923c0-2.753,0.607-5.046,1.824-6.877
		c1.215-1.831,3.068-2.747,5.559-2.747c1.803,0,3.326,0.568,4.57,1.703c1.246,1.136,1.867,2.655,1.867,4.56h2.352l0.045-0.132
		c0.059-2.505-0.762-4.526-2.461-6.064s-3.824-2.308-6.373-2.308c-3.164,0-5.625,1.114-7.383,3.34
		c-1.758,2.228-2.637,5.069-2.637,8.525v0.923c0,3.472,0.883,6.321,2.648,8.548s4.229,3.34,7.393,3.34
		c2.359,0,4.432-0.739,6.219-2.22c1.787-1.479,2.652-3.317,2.594-5.515l-0.045-0.132h-2.352c0,1.772-0.646,3.157-1.943,4.152
		c-1.297,0.997-2.787,1.494-4.473,1.494C248.143,295.553,246.281,294.642,245.066,292.817L245.066,292.817z M276.289,273.339
		c-0.189-0.059-0.432-0.113-0.725-0.165c-0.293-0.051-0.602-0.077-0.924-0.077c-1.596,0-2.973,0.411-4.131,1.23
		c-1.156,0.821-2.08,1.964-2.768,3.428v-0.264l-0.33-3.955h-2.307v23.774h2.637v-16.413c0.453-1.626,1.211-2.904,2.273-3.834
		c1.063-0.931,2.422-1.396,4.076-1.396l1.867,0.132L276.289,273.339L276.289,273.339z M283.408,273.536h-2.615v23.774h2.615V273.536
		L283.408,273.536z M283.408,263.033h-2.615v3.691h2.615V263.033L283.408,263.033z M309.82,285.621c0-3.793-0.807-6.829-2.418-9.107
		c-1.611-2.277-3.846-3.417-6.701-3.417c-1.699,0-3.18,0.363-4.439,1.088c-1.26,0.726-2.285,1.747-3.076,3.065l-0.482-3.714h-2.021
		v32.915h2.637v-12.305c0.791,1.158,1.813,2.052,3.064,2.681c1.254,0.63,2.707,0.945,4.361,0.945c2.828,0,5.047-1.059,6.658-3.175
		c1.611-2.117,2.418-4.955,2.418-8.515V285.621L309.82,285.621z M307.184,286.083c0,2.856-0.598,5.149-1.791,6.877
		c-1.195,1.729-2.941,2.593-5.24,2.593c-1.686,0-3.092-0.369-4.219-1.109c-1.129-0.739-2-1.754-2.615-3.043v-11.514
		c0.57-1.333,1.41-2.417,2.516-3.252s2.531-1.253,4.273-1.253c2.314,0,4.072,0.953,5.273,2.856c1.201,1.905,1.803,4.366,1.803,7.383
		V286.083L307.184,286.083z M318.674,263.033h-2.613v34.277h2.613V263.033L318.674,263.033z M339.846,296.904
		c1.354-0.578,2.449-1.308,3.285-2.187l-1.121-1.802c-0.807,0.807-1.816,1.447-3.033,1.923c-1.215,0.477-2.549,0.714-3.998,0.714
		c-2.418,0-4.311-0.893-5.68-2.681c-1.371-1.786-2.055-4.035-2.055-6.745v-0.726h16.545v-2.043c0-3.135-0.787-5.629-2.361-7.481
		c-1.574-1.854-3.805-2.78-6.691-2.78c-2.871,0-5.277,1.114-7.217,3.34c-1.941,2.228-2.912,5.054-2.912,8.481v1.209
		c0,3.413,0.959,6.207,2.879,8.383c1.918,2.175,4.416,3.263,7.492,3.263C336.867,297.772,338.49,297.483,339.846,296.904
		L339.846,296.904z M339.494,277.393c1.105,1.37,1.658,3.109,1.658,5.219v0.549h-13.623l-0.066-0.132
		c0.221-2.226,0.982-4.064,2.285-5.515c1.305-1.45,2.967-2.176,4.988-2.176C336.803,275.338,338.387,276.023,339.494,277.393
		L339.494,277.393z M360.291,273.339c-0.191-0.059-0.432-0.113-0.725-0.165c-0.293-0.051-0.602-0.077-0.924-0.077
		c-1.596,0-2.973,0.411-4.131,1.23c-1.156,0.821-2.08,1.964-2.768,3.428v-0.264l-0.33-3.955h-2.307v23.774h2.637v-16.413
		c0.453-1.626,1.211-2.904,2.273-3.834c1.063-0.931,2.42-1.396,4.076-1.396l1.867,0.132L360.291,273.339L360.291,273.339z"/>
	<polygon points="226.486,152.41 271.568,182.536 275.371,176.848 226.486,144.186 226.486,152.41 	"/>
	<polygon points="266.795,121.761 226.486,119.116 226.486,125.97 266.346,128.586 266.795,121.761 	"/>
	<polygon points="226.486,79.379 226.486,86.299 297.787,75.321 296.75,68.563 226.486,79.379 	"/>
	<polygon points="255.539,10 205.881,59.224 215.596,59.224 260.354,14.86 255.539,10 	"/>
	<polygon points="210.879,161.908 215.271,196.435 222.053,195.574 217.775,161.908 210.879,161.908 	"/>
	<polygon points="185.399,161.908 203.168,222.879 209.734,220.964 192.521,161.908 185.399,161.908 	"/>
	<polygon points="139.16,194.524 144.781,198.424 170.104,161.908 161.785,161.908 139.16,194.524 	"/>
	<polygon points="153.874,131.256 121.103,144.001 123.585,150.37 153.874,138.594 153.874,131.256 	"/>
	<polygon points="153.874,106.768 87.32,144.42 90.689,150.37 153.874,114.624 153.874,106.768 	"/>
	<polygon points="106.97,92.568 153.874,87.223 153.874,80.344 106.191,85.772 106.97,92.568 	"/>
	<polygon points="167.694,59.224 111.847,13.189 107.497,18.467 156.941,59.224 167.694,59.224 	"/>
	<polygon points="196.674,59.224 186.908,22.775 180.301,24.543 189.596,59.224 196.674,59.224 	"/>
</g>
</svg>
