<?xml version="1.0" encoding="utf-8"?>
<!-- Generator: Adobe Illustrator 16.0.0, SVG Export Plug-In . SVG Version: 6.00 Build 0)  -->
<!DOCTYPE svg PUBLIC "-//W3C//DTD SVG 1.1//EN" "http://www.w3.org/Graphics/SVG/1.1/DTD/svg11.dtd">
<svg version="1.1" id="Layer_1" xmlns="http://www.w3.org/2000/svg" xmlns:xlink="http://www.w3.org/1999/xlink" x="0px" y="0px"
	 width="11.701px" height="63.146px" viewBox="0 0 11.701 63.146" enable-background="new 0 0 11.701 63.146" xml:space="preserve">
<g id="Layer_2" display="none">
	<g display="inline">
		<path d="M9.142,45.077V46.5H0.609v-1.424L9.142,45.077L9.142,45.077z"/>
		<path d="M2.801,42.024l0.914-0.082c-0.324-0.207-0.577-0.468-0.759-0.781c-0.182-0.314-0.272-0.669-0.272-1.063
			c0-0.66,0.203-1.175,0.609-1.544c0.406-0.369,1.041-0.554,1.904-0.554H9.14v1.424H5.209c-0.492,0-0.842,0.096-1.049,0.287
			c-0.207,0.19-0.31,0.479-0.31,0.867c0,0.305,0.058,0.567,0.173,0.791c0.115,0.223,0.274,0.399,0.478,0.532h4.641v1.425h-6.34
			L2.801,42.024L2.801,42.024z"/>
		<path d="M7.406,32.954c-0.22,0-0.399,0.093-0.542,0.277c-0.143,0.186-0.271,0.536-0.385,1.053
			c-0.151,0.746-0.375,1.315-0.672,1.711c-0.297,0.395-0.695,0.592-1.195,0.592c-0.531,0-0.985-0.226-1.362-0.674
			c-0.377-0.449-0.565-1.041-0.565-1.775c0-0.758,0.194-1.369,0.583-1.832s0.856-0.685,1.403-0.665l0.035,0.012v1.366
			c-0.258,0-0.481,0.103-0.671,0.306c-0.19,0.202-0.285,0.473-0.285,0.812c0,0.344,0.078,0.605,0.234,0.785
			c0.156,0.18,0.348,0.27,0.574,0.27c0.215,0,0.387-0.084,0.516-0.252c0.129-0.168,0.244-0.514,0.346-1.037
			c0.156-0.776,0.386-1.363,0.688-1.758c0.302-0.394,0.708-0.592,1.216-0.592c0.569,0,1.036,0.235,1.397,0.706
			c0.36,0.471,0.541,1.091,0.541,1.861c0,0.823-0.211,1.475-0.633,1.95c-0.422,0.477-0.906,0.703-1.453,0.681L7.142,36.74v-1.324
			c0.367-0.017,0.635-0.148,0.803-0.398s0.253-0.555,0.253-0.914c0-0.362-0.072-0.646-0.218-0.847
			C7.835,33.055,7.646,32.954,7.406,32.954z"/>
		<path d="M9.265,27.586c0,0.926-0.293,1.648-0.877,2.171c-0.584,0.521-1.341,0.782-2.271,0.782H5.883
			c-0.93,0-1.696-0.262-2.3-0.782c-0.604-0.521-0.903-1.194-0.899-2.02c0-0.852,0.263-1.495,0.788-1.934
			c0.525-0.438,1.228-0.656,2.106-0.656h0.768v3.92l0.029,0.013c0.521-0.017,0.94-0.152,1.267-0.41
			c0.324-0.258,0.485-0.646,0.485-1.166c0-0.387-0.047-0.722-0.142-1.005c-0.094-0.283-0.229-0.546-0.403-0.788l0.933-0.463
			c0.211,0.242,0.389,0.562,0.532,0.961C9.19,26.608,9.265,27.066,9.265,27.586z M3.826,27.738c0,0.371,0.134,0.669,0.401,0.892
			s0.616,0.361,1.046,0.416l0.029-0.012v-2.479H5.191c-0.406,0-0.735,0.095-0.987,0.284C3.952,27.027,3.826,27.328,3.826,27.738z"/>
		<path d="M4.084,20.836l-0.023,0.608c0,0.277,0.059,0.51,0.176,0.694c0.117,0.186,0.283,0.329,0.498,0.431h4.407v1.425H2.801
			v-1.302l0.92-0.094c-0.324-0.16-0.578-0.366-0.762-0.618s-0.275-0.542-0.275-0.87c0-0.086,0.007-0.166,0.021-0.239
			c0.014-0.074,0.03-0.144,0.05-0.205L4.084,20.836z"/>
		<path d="M1.26,17.859h1.541v-1.137h1.055v1.137H7.36c0.262,0,0.447-0.057,0.56-0.17c0.112-0.112,0.167-0.264,0.167-0.451
			c0-0.077-0.007-0.153-0.021-0.229c-0.014-0.075-0.031-0.145-0.056-0.211l1.043-0.152c0.066,0.121,0.118,0.266,0.155,0.432
			s0.057,0.339,0.057,0.519c0,0.523-0.154,0.936-0.461,1.233s-0.787,0.447-1.443,0.447H3.855v0.968H2.801v-0.968H1.26V17.859z"/>
	</g>
</g>
<g id="Layer_3" display="none">
	<g display="inline">
		<path d="M1.752,56.491v2.637h7.39v1.424h-7.39v2.596H0.609v-6.655L1.752,56.491L1.752,56.491z"/>
		<path d="M6.599,53.93l0.631-0.14v-0.035L2.8,52.366v-1.56l7.301,2.625c0.441,0.168,0.818,0.404,1.131,0.709
			c0.313,0.305,0.47,0.736,0.47,1.295c0,0.117-0.013,0.242-0.035,0.377c-0.022,0.136-0.051,0.267-0.082,0.392l-1.103-0.158
			c0.004-0.051,0.011-0.123,0.019-0.217c0.008-0.095,0.013-0.164,0.013-0.211c0-0.259-0.089-0.466-0.265-0.619
			c-0.176-0.154-0.379-0.279-0.608-0.377l-0.574-0.234L2.801,56.69v-1.553L6.599,53.93z"/>
		<path d="M6.182,44.397c0.922,0,1.667,0.218,2.232,0.65s0.851,1.037,0.851,1.811c0,0.359-0.064,0.679-0.193,0.955
			c-0.129,0.277-0.318,0.517-0.568,0.715h3.076v1.425H2.801V48.75l0.797-0.142c-0.297-0.202-0.523-0.448-0.68-0.735
			s-0.234-0.619-0.234-0.998c0-0.781,0.31-1.392,0.929-1.826c0.619-0.435,1.435-0.652,2.446-0.652H6.182z M6.059,45.815
			c-0.648,0-1.179,0.121-1.591,0.365c-0.412,0.244-0.618,0.61-0.618,1.094c0,0.297,0.063,0.55,0.19,0.757
			c0.127,0.206,0.304,0.372,0.53,0.497h2.865c0.224-0.125,0.395-0.291,0.514-0.497c0.119-0.207,0.179-0.464,0.179-0.769
			c0-0.484-0.179-0.848-0.536-1.088s-0.826-0.359-1.409-0.359H6.059z"/>
		<path d="M5.912,43.418c-0.945,0-1.72-0.259-2.323-0.776c-0.603-0.517-0.905-1.226-0.905-2.124c0-0.91,0.302-1.624,0.905-2.142
			C4.192,37.858,4.967,37.6,5.912,37.6h0.123c0.952,0,1.729,0.259,2.329,0.776c0.6,0.517,0.898,1.228,0.898,2.13
			c0,0.906-0.301,1.618-0.902,2.136c-0.601,0.519-1.377,0.776-2.325,0.776H5.912L5.912,43.418z M6.035,41.995
			c0.621,0,1.125-0.121,1.512-0.363c0.388-0.242,0.58-0.617,0.58-1.125c0-0.496-0.194-0.868-0.583-1.116s-0.893-0.372-1.509-0.372
			H5.912c-0.605,0-1.104,0.124-1.497,0.372s-0.589,0.624-0.589,1.128c0,0.496,0.196,0.866,0.589,1.11s0.892,0.366,1.497,0.366H6.035
			z"/>
		<path d="M6.059,36.581c-1.012,0-1.827-0.217-2.446-0.65c-0.619-0.433-0.929-1.043-0.929-1.828c0-0.379,0.081-0.712,0.243-0.999
			c0.162-0.288,0.396-0.53,0.7-0.729l-0.826-0.142v-1.184h6.341c0.815,0,1.446,0.252,1.893,0.756
			c0.445,0.504,0.668,1.219,0.668,2.146c0,0.309-0.044,0.642-0.133,0.999c-0.088,0.356-0.203,0.681-0.348,0.97l-1.119-0.229
			c0.121-0.241,0.215-0.513,0.283-0.812s0.104-0.604,0.104-0.917c0-0.517-0.11-0.894-0.331-1.131
			c-0.222-0.238-0.56-0.357-1.017-0.357H8.49c0.254,0.199,0.446,0.436,0.577,0.707c0.131,0.272,0.195,0.583,0.195,0.936
			c0,0.776-0.283,1.383-0.85,1.815c-0.566,0.434-1.311,0.65-2.232,0.65H6.059z M6.182,35.163c0.586,0,1.053-0.113,1.4-0.34
			c0.347-0.228,0.521-0.584,0.521-1.072c0-0.306-0.062-0.562-0.189-0.771s-0.311-0.378-0.548-0.507H4.588
			c-0.23,0.133-0.411,0.304-0.542,0.513S3.85,33.446,3.85,33.74c0,0.487,0.204,0.848,0.612,1.077c0.408,0.23,0.94,0.347,1.597,0.347
			H6.182z"/>
		<path d="M4.084,26.402l-0.023,0.609c0,0.277,0.059,0.509,0.176,0.694c0.117,0.185,0.283,0.329,0.498,0.431h4.407v1.424H2.801v-1.3
			l0.92-0.094c-0.324-0.16-0.578-0.366-0.762-0.618s-0.275-0.542-0.275-0.87c0-0.086,0.007-0.166,0.021-0.24
			c0.014-0.073,0.03-0.143,0.05-0.205L4.084,26.402z"/>
		<path d="M9.142,21.527c-0.16,0.052-0.316,0.094-0.47,0.126c-0.153,0.033-0.305,0.057-0.457,0.067
			c0.298,0.191,0.546,0.447,0.747,0.768c0.201,0.321,0.303,0.679,0.303,1.072c0,0.66-0.171,1.167-0.511,1.521
			c-0.34,0.354-0.807,0.529-1.399,0.529c-0.613,0-1.091-0.241-1.434-0.727c-0.342-0.485-0.513-1.166-0.513-2.045v-1.107H4.852
			c-0.332,0-0.592,0.098-0.779,0.29c-0.188,0.193-0.281,0.475-0.281,0.841c0,0.324,0.077,0.582,0.231,0.773s0.354,0.287,0.601,0.287
			l0.006,1.371L4.595,25.3c-0.5,0.027-0.943-0.196-1.33-0.671c-0.387-0.476-0.58-1.093-0.58-1.854c0-0.737,0.188-1.334,0.562-1.787
			c0.374-0.452,0.914-0.68,1.617-0.68h2.818c0.262,0,0.512-0.018,0.752-0.053s0.477-0.092,0.707-0.17V21.527z M8.121,23.268
			c0-0.354-0.09-0.677-0.271-0.964c-0.18-0.287-0.385-0.478-0.615-0.571H6.299v1.132c0,0.413,0.103,0.737,0.308,0.973
			s0.446,0.352,0.725,0.352c0.242,0,0.436-0.079,0.577-0.236C8.05,23.794,8.121,23.564,8.121,23.268z"/>
		<path d="M6.182,13.266c0.922,0,1.667,0.217,2.232,0.65c0.565,0.433,0.851,1.037,0.851,1.811c0,0.359-0.064,0.679-0.193,0.955
			c-0.129,0.277-0.318,0.517-0.568,0.715h3.076v1.424H2.801v-1.2l0.797-0.142c-0.297-0.203-0.523-0.447-0.68-0.734
			s-0.234-0.62-0.234-0.999c0-0.781,0.31-1.391,0.929-1.825c0.619-0.436,1.435-0.653,2.446-0.653L6.182,13.266L6.182,13.266z
			 M6.059,14.684c-0.648,0-1.179,0.122-1.591,0.366c-0.412,0.244-0.618,0.608-0.618,1.093c0,0.297,0.063,0.549,0.19,0.756
			s0.304,0.373,0.53,0.498h2.865c0.224-0.125,0.395-0.291,0.514-0.498s0.179-0.463,0.179-0.768c0-0.484-0.179-0.847-0.536-1.087
			s-0.826-0.36-1.409-0.36H6.059z"/>
		<path d="M3.621,10.617c-0.297-0.211-0.527-0.469-0.691-0.771C2.766,9.543,2.684,9.209,2.684,8.842
			c0-0.672,0.212-1.196,0.636-1.573c0.424-0.377,1.077-0.564,1.96-0.564h3.861v1.424H5.268c-0.496,0-0.856,0.097-1.081,0.29
			C3.962,8.611,3.85,8.898,3.85,9.281c0,0.305,0.054,0.567,0.161,0.791c0.107,0.223,0.257,0.403,0.448,0.545h4.683v1.424H0v-1.424
			H3.621z"/>
		<path d="M6.599,3.123l0.631-0.142V2.948L2.8,1.558V0l7.301,2.625c0.441,0.168,0.818,0.403,1.131,0.709
			c0.313,0.305,0.47,0.735,0.47,1.295c0,0.117-0.013,0.243-0.035,0.378s-0.051,0.265-0.082,0.39L10.481,5.24
			c0.004-0.052,0.011-0.123,0.019-0.218c0.008-0.094,0.013-0.164,0.013-0.211c0-0.258-0.089-0.464-0.265-0.618
			C10.072,4.039,9.869,3.913,9.64,3.815L9.063,3.58L2.801,5.883V4.33L6.599,3.123z"/>
	</g>
</g>
<g id="Layer_4" display="none">
	<g display="inline">
		<path d="M6.301,20.616c-1.043,0-1.907-0.327-2.593-0.981S2.68,18.13,2.68,17.083c0-1.021,0.343-1.851,1.028-2.49
			s1.55-0.961,2.593-0.961h1.536c1.039,0,1.902,0.319,2.59,0.958c0.688,0.639,1.031,1.47,1.031,2.493
			c0,1.043-0.344,1.893-1.031,2.549c-0.687,0.656-1.551,0.984-2.59,0.984H6.301z M7.849,19.192c0.711,0,1.295-0.188,1.752-0.567
			s0.687-0.894,0.687-1.541c0-0.629-0.229-1.124-0.687-1.485s-1.041-0.542-1.752-0.542H6.301c-0.719,0-1.308,0.182-1.767,0.545
			s-0.688,0.857-0.688,1.482c0,0.651,0.229,1.167,0.686,1.544s1.047,0.564,1.77,0.564H7.849z"/>
		<path d="M3.741,25.937c-0.34-0.194-0.602-0.445-0.785-0.753C2.773,24.877,2.68,24.522,2.68,24.12c0-0.681,0.224-1.211,0.671-1.595
			c0.447-0.383,1.142-0.573,2.083-0.573h3.709v1.418H5.422c-0.605,0-1.021,0.088-1.245,0.264c-0.224,0.176-0.337,0.449-0.337,0.82
			c0,0.344,0.062,0.632,0.185,0.863c0.123,0.232,0.302,0.415,0.536,0.549h4.583v1.424H2.804v-1.226L3.741,25.937z"/>
		<path d="M10.685,30.601H9.144v1.137H8.089v-1.137H4.584c-0.262,0-0.448,0.058-0.56,0.17c-0.112,0.113-0.167,0.265-0.167,0.452
			c0,0.078,0.007,0.154,0.021,0.229c0.014,0.074,0.032,0.145,0.056,0.211l-1.043,0.151c-0.066-0.121-0.118-0.266-0.155-0.432
			c-0.037-0.166-0.056-0.339-0.056-0.519c0-0.523,0.153-0.936,0.46-1.233s0.788-0.448,1.444-0.448h3.504v-0.967h1.056v0.967h1.541
			V30.601L10.685,30.601z"/>
		<path d="M5.762,38.441c-0.922,0-1.666-0.217-2.232-0.649c-0.566-0.434-0.85-1.037-0.85-1.812c0-0.358,0.064-0.678,0.193-0.955
			c0.129-0.276,0.318-0.516,0.568-0.715H0.366v-1.424h8.777v1.201l-0.797,0.141c0.297,0.203,0.523,0.447,0.68,0.734
			c0.158,0.287,0.234,0.621,0.234,1c0,0.781-0.311,1.389-0.93,1.824c-0.619,0.435-1.434,0.653-2.446,0.653L5.762,38.441
			L5.762,38.441z M5.885,37.023c0.649,0,1.179-0.123,1.591-0.366c0.412-0.244,0.618-0.607,0.618-1.093
			c0-0.297-0.063-0.549-0.19-0.756s-0.303-0.373-0.529-0.498H4.508c-0.223,0.125-0.394,0.291-0.513,0.498s-0.179,0.463-0.179,0.769
			c0,0.483,0.179,0.846,0.536,1.086c0.357,0.239,0.827,0.36,1.409,0.36H5.885z"/>
		<path d="M3.741,43.638c-0.34-0.195-0.602-0.447-0.785-0.754s-0.275-0.66-0.275-1.062c0-0.681,0.224-1.212,0.671-1.595
			s1.142-0.574,2.083-0.574h3.708v1.419H5.422c-0.605,0-1.021,0.088-1.245,0.264c-0.224,0.176-0.337,0.449-0.337,0.82
			c0,0.344,0.062,0.631,0.185,0.862c0.123,0.232,0.302,0.416,0.536,0.549h4.583v1.425H2.804v-1.226L3.741,43.638z"/>
		<path d="M10.685,48.302H9.144v1.137H8.089v-1.137H4.584c-0.262,0-0.448,0.057-0.56,0.17s-0.167,0.264-0.167,0.451
			c0,0.078,0.007,0.154,0.021,0.229c0.014,0.075,0.032,0.146,0.056,0.211l-1.043,0.152c-0.066-0.121-0.118-0.266-0.155-0.432
			c-0.037-0.166-0.056-0.337-0.056-0.518c0-0.522,0.153-0.936,0.46-1.233s0.788-0.447,1.444-0.447h3.504v-0.967h1.056v0.967h1.541
			V48.302L10.685,48.302z"/>
	</g>
</g>
<g>
	<path d="M6.337,48.87l0.035-0.012c0.859-0.016,1.554,0.264,2.083,0.838s0.794,1.35,0.794,2.326c0,0.992-0.335,1.797-1.005,2.414
		s-1.526,0.926-2.569,0.926H4.052c-1.039,0-1.896-0.305-2.569-0.914s-1.011-1.404-1.011-2.385c0-1.004,0.256-1.794,0.768-2.37
		s1.213-0.856,2.104-0.841l0.035,0.012v1.377c-0.57,0-1.007,0.154-1.31,0.463s-0.454,0.762-0.454,1.359
		c0,0.578,0.229,1.036,0.688,1.374s1.038,0.507,1.737,0.507h1.635c0.707,0,1.29-0.172,1.749-0.516s0.688-0.812,0.688-1.406
		c0-0.582-0.152-1.024-0.457-1.327s-0.744-0.454-1.318-0.454V48.87z"/>
	<path d="M5.897,47.898c-0.945,0-1.72-0.259-2.323-0.776s-0.905-1.226-0.905-2.124c0-0.91,0.302-1.624,0.905-2.142
		s1.378-0.776,2.323-0.776h0.123c0.953,0,1.729,0.259,2.329,0.776s0.899,1.228,0.899,2.13c0,0.906-0.301,1.618-0.902,2.136
		s-1.377,0.776-2.326,0.776H5.897z M6.021,46.474c0.621,0,1.125-0.121,1.512-0.363s0.58-0.617,0.58-1.125
		c0-0.496-0.194-0.868-0.583-1.116s-0.892-0.372-1.509-0.372H5.897c-0.605,0-1.104,0.124-1.497,0.372s-0.589,0.624-0.589,1.128
		c0,0.496,0.196,0.866,0.589,1.11s0.892,0.366,1.497,0.366H6.021z"/>
	<path d="M2.786,39.548L3.7,39.466c-0.324-0.207-0.577-0.468-0.759-0.782s-0.272-0.669-0.272-1.063c0-0.66,0.203-1.175,0.609-1.544
		s1.041-0.554,1.904-0.554h3.943v1.424H5.194c-0.492,0-0.842,0.096-1.049,0.287s-0.311,0.48-0.311,0.867
		c0,0.305,0.058,0.568,0.173,0.791s0.274,0.4,0.478,0.533h4.641v1.424h-6.34V39.548z"/>
	<path d="M1.245,32.218h1.541v-1.137h1.055v1.137h3.504c0.262,0,0.448-0.057,0.56-0.17s0.167-0.264,0.167-0.451
		c0-0.078-0.007-0.154-0.021-0.229s-0.032-0.145-0.056-0.211l1.043-0.152c0.066,0.121,0.118,0.265,0.155,0.431
		s0.056,0.339,0.056,0.519c0,0.523-0.153,0.935-0.46,1.233s-0.788,0.448-1.444,0.448H3.841v0.967H2.786v-0.967H1.245V32.218z"/>
	<path d="M9.249,27.243c0,0.926-0.292,1.649-0.876,2.171s-1.341,0.782-2.271,0.782H5.868c-0.93,0-1.696-0.261-2.3-0.782
		s-0.903-1.194-0.899-2.019c0-0.852,0.263-1.496,0.788-1.934s1.228-0.656,2.106-0.656h0.768v3.92l0.029,0.012
		c0.52-0.016,0.941-0.152,1.266-0.41s0.486-0.646,0.486-1.166c0-0.387-0.047-0.722-0.141-1.005s-0.229-0.546-0.404-0.788
		l0.932-0.463c0.211,0.242,0.389,0.562,0.533,0.961S9.249,26.724,9.249,27.243z M3.812,27.396c0,0.371,0.134,0.668,0.401,0.891
		s0.616,0.361,1.046,0.416l0.029-0.012v-2.479H5.177c-0.406,0-0.735,0.095-0.987,0.284S3.812,26.986,3.812,27.396z"/>
	<path d="M2.786,22.363L3.7,22.281c-0.324-0.207-0.577-0.468-0.759-0.782s-0.272-0.669-0.272-1.063c0-0.66,0.203-1.175,0.609-1.544
		s1.041-0.554,1.904-0.554h3.943v1.424H5.194c-0.492,0-0.842,0.096-1.049,0.287s-0.311,0.48-0.311,0.867
		c0,0.305,0.058,0.568,0.173,0.791s0.274,0.4,0.478,0.533h4.641v1.424h-6.34V22.363z"/>
	<path d="M1.245,15.032h1.541v-1.137h1.055v1.137h3.504c0.262,0,0.448-0.057,0.56-0.17s0.167-0.264,0.167-0.451
		c0-0.078-0.007-0.154-0.021-0.229s-0.032-0.145-0.056-0.211l1.043-0.152c0.066,0.121,0.118,0.265,0.155,0.431
		s0.056,0.339,0.056,0.519c0,0.523-0.153,0.935-0.46,1.233S8.001,16.45,7.345,16.45H3.841v0.967H2.786V16.45H1.245V15.032z"/>
	<path d="M7.392,9.185c-0.219,0-0.399,0.093-0.542,0.278s-0.271,0.536-0.384,1.052c-0.152,0.746-0.377,1.316-0.674,1.711
		s-0.695,0.592-1.195,0.592c-0.531,0-0.985-0.225-1.362-0.674s-0.565-1.041-0.565-1.775c0-0.758,0.194-1.368,0.583-1.831
		s0.856-0.685,1.403-0.665L4.69,7.884v1.365c-0.258,0-0.481,0.102-0.671,0.305s-0.284,0.475-0.284,0.814
		c0,0.344,0.078,0.605,0.234,0.785s0.348,0.27,0.574,0.27c0.215,0,0.387-0.084,0.516-0.252s0.244-0.514,0.346-1.037
		c0.156-0.777,0.386-1.363,0.688-1.758S6.802,7.784,7.31,7.784c0.57,0,1.036,0.235,1.397,0.706s0.542,1.091,0.542,1.86
		c0,0.824-0.211,1.475-0.633,1.951s-0.906,0.703-1.453,0.68L7.128,12.97v-1.324c0.367-0.016,0.635-0.148,0.803-0.398
		s0.252-0.555,0.252-0.914c0-0.363-0.072-0.646-0.217-0.847S7.63,9.185,7.392,9.185z"/>
</g>
</svg>
