<?xml version="1.0" encoding="utf-8"?>
<!-- Generator: Adobe Illustrator 16.0.0, SVG Export Plug-In . SVG Version: 6.00 Build 0)  -->
<!DOCTYPE svg PUBLIC "-//W3C//DTD SVG 1.1//EN" "http://www.w3.org/Graphics/SVG/1.1/DTD/svg11.dtd">
<svg version="1.1" id="Layer_1" xmlns="http://www.w3.org/2000/svg" xmlns:xlink="http://www.w3.org/1999/xlink" x="0px" y="0px"
	 width="11.701px" height="63.146px" viewBox="0 0 11.701 63.146" enable-background="new 0 0 11.701 63.146" xml:space="preserve">
<g id="Layer_1_1_" display="none">
	<g display="inline">
		<path d="M9.126,61.729H0.595v-2.817c0-1.082,0.338-1.962,1.014-2.641c0.676-0.678,1.545-1.017,2.607-1.017h1.295
			c1.066,0,1.937,0.339,2.607,1.017c0.671,0.679,1.008,1.559,1.008,2.641V61.729z M1.737,60.305h6.252V58.91
			c0-0.685-0.23-1.228-0.693-1.629c-0.463-0.402-1.059-0.604-1.785-0.604H4.204c-0.719,0-1.31,0.201-1.772,0.604
			c-0.462,0.402-0.694,0.944-0.694,1.629L1.737,60.305L1.737,60.305z"/>
		<path d="M5.897,54.1c-0.945,0-1.72-0.259-2.323-0.775c-0.603-0.518-0.905-1.227-0.905-2.124c0-0.91,0.302-1.624,0.905-2.143
			c0.603-0.518,1.378-0.775,2.323-0.775H6.02c0.954,0,1.73,0.259,2.331,0.775c0.6,0.518,0.897,1.229,0.897,2.13
			c0,0.906-0.301,1.618-0.901,2.137C7.745,53.842,6.97,54.1,6.021,54.1H5.897z M6.021,52.676c0.621,0,1.125-0.121,1.512-0.363
			c0.387-0.242,0.579-0.617,0.579-1.125c0-0.496-0.192-0.868-0.581-1.115c-0.39-0.248-0.894-0.372-1.51-0.372H5.897
			c-0.605,0-1.104,0.124-1.497,0.372C4.007,50.32,3.812,50.696,3.812,51.2c0,0.495,0.196,0.865,0.589,1.109s0.892,0.366,1.497,0.366
			H6.021z"/>
		<path d="M8.112,44.456c0-0.324-0.103-0.6-0.305-0.823c-0.203-0.224-0.461-0.337-0.773-0.337v-1.289l0.035-0.012
			c0.594-0.017,1.104,0.22,1.535,0.706c0.43,0.485,0.645,1.07,0.645,1.755c0,0.914-0.301,1.619-0.904,2.114
			c-0.603,0.496-1.365,0.744-2.283,0.744H5.856c-0.914,0-1.674-0.248-2.279-0.744c-0.605-0.495-0.908-1.198-0.908-2.108
			c0-0.738,0.222-1.338,0.665-1.799s1.007-0.685,1.69-0.668l0.035,0.012v1.289c-0.348,0-0.643,0.106-0.885,0.322
			c-0.242,0.215-0.363,0.496-0.363,0.844c0,0.508,0.196,0.873,0.589,1.096c0.393,0.224,0.878,0.334,1.456,0.334h0.205
			c0.59,0,1.081-0.109,1.469-0.331C7.919,45.34,8.112,44.971,8.112,44.456z"/>
		<path d="M8.188,36.844c0.34,0.195,0.602,0.446,0.785,0.753c0.183,0.307,0.274,0.661,0.274,1.063c0,0.68-0.224,1.211-0.67,1.594
			c-0.447,0.383-1.144,0.574-2.084,0.574H2.786V39.41h3.721c0.605,0,1.021-0.088,1.246-0.265c0.225-0.176,0.336-0.448,0.336-0.819
			c0-0.345-0.061-0.633-0.184-0.864c-0.123-0.232-0.303-0.415-0.537-0.548H2.786V35.49h6.34v1.225L8.188,36.844z"/>
		<path d="M2.786,32.701l0.826-0.076c-0.301-0.207-0.533-0.467-0.697-0.779c-0.164-0.312-0.246-0.674-0.246-1.084
			c0-0.414,0.094-0.77,0.281-1.066c0.187-0.296,0.469-0.52,0.844-0.668c-0.352-0.194-0.627-0.452-0.826-0.772
			c-0.199-0.32-0.299-0.695-0.299-1.125c0-0.637,0.222-1.14,0.665-1.509s1.114-0.555,2.013-0.555h3.779v1.425H5.341
			c-0.555,0-0.944,0.093-1.169,0.277c-0.225,0.186-0.337,0.464-0.337,0.835c0,0.306,0.082,0.562,0.246,0.773
			s0.385,0.363,0.662,0.457c0.059,0,0.109-0.002,0.152-0.006s0.084-0.006,0.123-0.006h4.107v1.424H5.341
			c-0.535,0-0.92,0.095-1.154,0.284c-0.234,0.188-0.352,0.468-0.352,0.835c0,0.288,0.056,0.533,0.167,0.734s0.269,0.36,0.472,0.479
			h4.652v1.424h-6.34V32.701z"/>
		<path d="M9.249,20.877c0,0.926-0.291,1.648-0.875,2.171C7.79,23.57,7.032,23.83,6.103,23.83H5.868c-0.93,0-1.696-0.262-2.3-0.782
			c-0.604-0.521-0.903-1.194-0.899-2.02c0-0.852,0.263-1.495,0.788-1.934c0.525-0.438,1.228-0.656,2.106-0.656h0.768v3.92
			l0.029,0.013c0.52-0.017,0.94-0.152,1.266-0.41s0.486-0.646,0.486-1.166c0-0.387-0.047-0.722-0.141-1.005
			c-0.095-0.283-0.229-0.546-0.404-0.788l0.932-0.463c0.211,0.242,0.389,0.562,0.533,0.961C9.176,19.899,9.249,20.357,9.249,20.877z
			 M3.812,21.029c0,0.371,0.134,0.669,0.401,0.892s0.616,0.361,1.046,0.416l0.029-0.012v-2.479H5.177
			c-0.406,0-0.735,0.095-0.987,0.284C3.938,20.318,3.812,20.619,3.812,21.029z"/>
		<path d="M2.786,15.996L3.7,15.914c-0.324-0.207-0.577-0.469-0.759-0.782c-0.182-0.314-0.272-0.669-0.272-1.063
			c0-0.659,0.203-1.175,0.609-1.544c0.406-0.368,1.041-0.554,1.904-0.554h3.943v1.424H5.194c-0.492,0-0.842,0.097-1.049,0.287
			c-0.207,0.191-0.311,0.48-0.311,0.867c0,0.305,0.058,0.568,0.173,0.791c0.115,0.223,0.274,0.4,0.478,0.533h4.641v1.424h-6.34
			V15.996z"/>
		<path d="M1.245,8.666h1.541V7.529h1.055v1.138h3.504c0.262,0,0.449-0.058,0.562-0.17c0.112-0.113,0.166-0.265,0.166-0.451
			c0-0.078-0.007-0.154-0.021-0.229C8.038,7.741,8.019,7.672,7.995,7.605l1.043-0.151c0.066,0.121,0.119,0.265,0.156,0.431
			s0.055,0.339,0.055,0.519c0,0.523-0.152,0.936-0.459,1.233s-0.789,0.448-1.445,0.448H3.841v0.967H2.786v-0.967H1.245V8.666z"/>
		<path d="M7.392,2.818c-0.219,0-0.397,0.094-0.541,0.278C6.708,3.281,6.579,3.633,6.466,4.148C6.313,4.895,6.089,5.465,5.792,5.859
			C5.495,6.253,5.097,6.451,4.597,6.451c-0.531,0-0.985-0.226-1.362-0.675C2.858,5.328,2.669,4.736,2.669,4.002
			c0-0.758,0.194-1.368,0.583-1.831s0.856-0.686,1.403-0.665L4.69,1.518v1.365c-0.258,0-0.481,0.102-0.671,0.305
			S3.735,3.662,3.735,4.002c0,0.344,0.078,0.604,0.234,0.785c0.156,0.18,0.348,0.27,0.574,0.27c0.215,0,0.387-0.084,0.516-0.252
			s0.244-0.514,0.346-1.037C5.562,2.99,5.791,2.404,6.094,2.01C6.397,1.615,6.802,1.418,7.31,1.418c0.57,0,1.037,0.234,1.398,0.706
			c0.361,0.471,0.541,1.091,0.541,1.859c0,0.824-0.211,1.476-0.633,1.951C8.194,6.411,7.71,6.639,7.163,6.615L7.128,6.604V5.279
			c0.367-0.016,0.635-0.147,0.803-0.397s0.252-0.555,0.252-0.914c0-0.363-0.072-0.646-0.217-0.847
			C7.821,2.919,7.63,2.818,7.392,2.818z"/>
	</g>
</g>
<g id="Layer_2" display="none">
	<g display="inline">
		<path d="M9.142,45.077V46.5H0.609v-1.424L9.142,45.077L9.142,45.077z"/>
		<path d="M2.801,42.024l0.914-0.082c-0.324-0.207-0.577-0.468-0.759-0.781c-0.182-0.314-0.272-0.669-0.272-1.063
			c0-0.66,0.203-1.175,0.609-1.544c0.406-0.369,1.041-0.554,1.904-0.554H9.14v1.424H5.209c-0.492,0-0.842,0.096-1.049,0.287
			c-0.207,0.19-0.31,0.479-0.31,0.867c0,0.305,0.058,0.567,0.173,0.791c0.115,0.223,0.274,0.399,0.478,0.532h4.641v1.425h-6.34
			L2.801,42.024L2.801,42.024z"/>
		<path d="M7.406,32.954c-0.22,0-0.399,0.093-0.542,0.277c-0.143,0.186-0.271,0.536-0.385,1.053
			c-0.151,0.746-0.375,1.315-0.672,1.711c-0.297,0.395-0.695,0.592-1.195,0.592c-0.531,0-0.985-0.226-1.362-0.674
			c-0.377-0.449-0.565-1.041-0.565-1.775c0-0.758,0.194-1.369,0.583-1.832s0.856-0.685,1.403-0.665l0.035,0.012v1.366
			c-0.258,0-0.481,0.103-0.671,0.306c-0.19,0.202-0.285,0.473-0.285,0.812c0,0.344,0.078,0.605,0.234,0.785
			c0.156,0.18,0.348,0.27,0.574,0.27c0.215,0,0.387-0.084,0.516-0.252c0.129-0.168,0.244-0.514,0.346-1.037
			c0.156-0.776,0.386-1.363,0.688-1.758c0.302-0.394,0.708-0.592,1.216-0.592c0.569,0,1.036,0.235,1.397,0.706
			c0.36,0.471,0.541,1.091,0.541,1.861c0,0.823-0.211,1.475-0.633,1.95c-0.422,0.477-0.906,0.703-1.453,0.681L7.142,36.74v-1.324
			c0.367-0.017,0.635-0.148,0.803-0.398s0.253-0.555,0.253-0.914c0-0.362-0.072-0.646-0.218-0.847
			C7.835,33.055,7.646,32.954,7.406,32.954z"/>
		<path d="M9.265,27.586c0,0.926-0.293,1.648-0.877,2.171c-0.584,0.521-1.341,0.782-2.271,0.782H5.883
			c-0.93,0-1.696-0.262-2.3-0.782c-0.604-0.521-0.903-1.194-0.899-2.02c0-0.852,0.263-1.495,0.788-1.934
			c0.525-0.438,1.228-0.656,2.106-0.656h0.768v3.92l0.029,0.013c0.521-0.017,0.94-0.152,1.267-0.41
			c0.324-0.258,0.485-0.646,0.485-1.166c0-0.387-0.047-0.722-0.142-1.005c-0.094-0.283-0.229-0.546-0.403-0.788l0.933-0.463
			c0.211,0.242,0.389,0.562,0.532,0.961C9.19,26.608,9.265,27.066,9.265,27.586z M3.826,27.738c0,0.371,0.134,0.669,0.401,0.892
			s0.616,0.361,1.046,0.416l0.029-0.012v-2.479H5.191c-0.406,0-0.735,0.095-0.987,0.284C3.952,27.027,3.826,27.328,3.826,27.738z"/>
		<path d="M4.084,20.836l-0.023,0.608c0,0.277,0.059,0.51,0.176,0.694c0.117,0.186,0.283,0.329,0.498,0.431h4.407v1.425H2.801
			v-1.302l0.92-0.094c-0.324-0.16-0.578-0.366-0.762-0.618s-0.275-0.542-0.275-0.87c0-0.086,0.007-0.166,0.021-0.239
			c0.014-0.074,0.03-0.144,0.05-0.205L4.084,20.836z"/>
		<path d="M1.26,17.859h1.541v-1.137h1.055v1.137H7.36c0.262,0,0.447-0.057,0.56-0.17c0.112-0.112,0.167-0.264,0.167-0.451
			c0-0.077-0.007-0.153-0.021-0.229c-0.014-0.075-0.031-0.145-0.056-0.211l1.043-0.152c0.066,0.121,0.118,0.266,0.155,0.432
			s0.057,0.339,0.057,0.519c0,0.523-0.154,0.936-0.461,1.233s-0.787,0.447-1.443,0.447H3.855v0.968H2.801v-0.968H1.26V17.859z"/>
	</g>
</g>
<g id="Layer_4" display="none">
	<g display="inline">
		<path d="M6.301,20.616c-1.043,0-1.907-0.327-2.593-0.981S2.68,18.13,2.68,17.083c0-1.021,0.343-1.851,1.028-2.49
			s1.55-0.961,2.593-0.961h1.536c1.039,0,1.902,0.319,2.59,0.958c0.688,0.639,1.031,1.47,1.031,2.493
			c0,1.043-0.344,1.893-1.031,2.549c-0.687,0.656-1.551,0.984-2.59,0.984H6.301z M7.849,19.192c0.711,0,1.295-0.188,1.752-0.567
			s0.687-0.894,0.687-1.541c0-0.629-0.229-1.124-0.687-1.485s-1.041-0.542-1.752-0.542H6.301c-0.719,0-1.308,0.182-1.767,0.545
			s-0.688,0.857-0.688,1.482c0,0.651,0.229,1.167,0.686,1.544s1.047,0.564,1.77,0.564H7.849z"/>
		<path d="M3.741,25.937c-0.34-0.194-0.602-0.445-0.785-0.753C2.773,24.877,2.68,24.522,2.68,24.12c0-0.681,0.224-1.211,0.671-1.595
			c0.447-0.383,1.142-0.573,2.083-0.573h3.709v1.418H5.422c-0.605,0-1.021,0.088-1.245,0.264c-0.224,0.176-0.337,0.449-0.337,0.82
			c0,0.344,0.062,0.632,0.185,0.863c0.123,0.232,0.302,0.415,0.536,0.549h4.583v1.424H2.804v-1.226L3.741,25.937z"/>
		<path d="M10.685,30.601H9.144v1.137H8.089v-1.137H4.584c-0.262,0-0.448,0.058-0.56,0.17c-0.112,0.113-0.167,0.265-0.167,0.452
			c0,0.078,0.007,0.154,0.021,0.229c0.014,0.074,0.032,0.145,0.056,0.211l-1.043,0.151c-0.066-0.121-0.118-0.266-0.155-0.432
			c-0.037-0.166-0.056-0.339-0.056-0.519c0-0.523,0.153-0.936,0.46-1.233s0.788-0.448,1.444-0.448h3.504v-0.967h1.056v0.967h1.541
			V30.601L10.685,30.601z"/>
		<path d="M5.762,38.441c-0.922,0-1.666-0.217-2.232-0.649c-0.566-0.434-0.85-1.037-0.85-1.812c0-0.358,0.064-0.678,0.193-0.955
			c0.129-0.276,0.318-0.516,0.568-0.715H0.366v-1.424h8.777v1.201l-0.797,0.141c0.297,0.203,0.523,0.447,0.68,0.734
			c0.158,0.287,0.234,0.621,0.234,1c0,0.781-0.311,1.389-0.93,1.824c-0.619,0.435-1.434,0.653-2.446,0.653L5.762,38.441
			L5.762,38.441z M5.885,37.023c0.649,0,1.179-0.123,1.591-0.366c0.412-0.244,0.618-0.607,0.618-1.093
			c0-0.297-0.063-0.549-0.19-0.756s-0.303-0.373-0.529-0.498H4.508c-0.223,0.125-0.394,0.291-0.513,0.498s-0.179,0.463-0.179,0.769
			c0,0.483,0.179,0.846,0.536,1.086c0.357,0.239,0.827,0.36,1.409,0.36H5.885z"/>
		<path d="M3.741,43.638c-0.34-0.195-0.602-0.447-0.785-0.754s-0.275-0.66-0.275-1.062c0-0.681,0.224-1.212,0.671-1.595
			s1.142-0.574,2.083-0.574h3.708v1.419H5.422c-0.605,0-1.021,0.088-1.245,0.264c-0.224,0.176-0.337,0.449-0.337,0.82
			c0,0.344,0.062,0.631,0.185,0.862c0.123,0.232,0.302,0.416,0.536,0.549h4.583v1.425H2.804v-1.226L3.741,43.638z"/>
		<path d="M10.685,48.302H9.144v1.137H8.089v-1.137H4.584c-0.262,0-0.448,0.057-0.56,0.17s-0.167,0.264-0.167,0.451
			c0,0.078,0.007,0.154,0.021,0.229c0.014,0.075,0.032,0.146,0.056,0.211l-1.043,0.152c-0.066-0.121-0.118-0.266-0.155-0.432
			c-0.037-0.166-0.056-0.337-0.056-0.518c0-0.522,0.153-0.936,0.46-1.233s0.788-0.447,1.444-0.447h3.504v-0.967h1.056v0.967h1.541
			V48.302L10.685,48.302z"/>
	</g>
</g>
<g>
	<path d="M9.141,49.392H0.609v-2.818c0-1.082,0.338-1.962,1.014-2.64s1.545-1.017,2.607-1.017h1.295
		c1.066,0,1.936,0.339,2.607,1.017s1.008,1.558,1.008,2.64V49.392z M1.752,47.968h6.252v-1.395c0-0.684-0.231-1.227-0.694-1.629
		s-1.058-0.604-1.784-0.604H4.219c-0.719,0-1.31,0.201-1.772,0.604s-0.694,0.945-0.694,1.629V47.968z"/>
	<path d="M9.264,38.81c0,0.926-0.292,1.649-0.876,2.171s-1.341,0.782-2.271,0.782H5.883c-0.93,0-1.696-0.261-2.3-0.782
		s-0.903-1.194-0.899-2.019c0-0.852,0.263-1.496,0.788-1.934s1.228-0.656,2.106-0.656h0.768v3.92l0.029,0.012
		c0.52-0.016,0.941-0.152,1.266-0.41s0.486-0.646,0.486-1.166c0-0.387-0.047-0.722-0.141-1.005s-0.229-0.546-0.404-0.788
		l0.932-0.463c0.211,0.242,0.389,0.562,0.533,0.961S9.264,38.29,9.264,38.81z M3.826,38.962c0,0.371,0.134,0.668,0.401,0.891
		s0.616,0.361,1.046,0.416l0.029-0.012v-2.479H5.191c-0.406,0-0.735,0.095-0.987,0.284S3.826,38.552,3.826,38.962z"/>
	<path d="M7.406,31.656c-0.219,0-0.399,0.093-0.542,0.278S6.594,32.47,6.48,32.986c-0.152,0.746-0.377,1.316-0.674,1.711
		s-0.695,0.592-1.195,0.592c-0.531,0-0.985-0.225-1.362-0.674s-0.565-1.041-0.565-1.775c0-0.758,0.194-1.368,0.583-1.831
		s0.856-0.685,1.403-0.665l0.035,0.012v1.365c-0.258,0-0.481,0.102-0.671,0.305S3.75,32.499,3.75,32.839
		c0,0.344,0.078,0.605,0.234,0.785s0.348,0.27,0.574,0.27c0.215,0,0.387-0.084,0.516-0.252s0.244-0.514,0.346-1.037
		c0.156-0.777,0.386-1.363,0.688-1.758s0.708-0.592,1.216-0.592c0.57,0,1.036,0.235,1.397,0.706s0.542,1.091,0.542,1.86
		c0,0.824-0.211,1.475-0.633,1.951s-0.906,0.703-1.453,0.68l-0.035-0.012v-1.324c0.367-0.016,0.635-0.148,0.803-0.398
		s0.252-0.555,0.252-0.914c0-0.363-0.072-0.646-0.217-0.847S7.645,31.656,7.406,31.656z"/>
	<path d="M1.248,27.46v1.424H0V27.46H1.248z M9.141,27.46v1.424h-6.34V27.46H9.141z"/>
	<path d="M6.059,26.089c-1.012,0-1.827-0.217-2.446-0.65s-0.929-1.043-0.929-1.828c0-0.379,0.081-0.712,0.243-0.999
		s0.396-0.53,0.7-0.729l-0.826-0.141v-1.184h6.34c0.816,0,1.447,0.252,1.893,0.756s0.668,1.219,0.668,2.145
		c0,0.309-0.044,0.642-0.132,0.999s-0.204,0.681-0.349,0.97l-1.119-0.229c0.121-0.242,0.216-0.513,0.284-0.812
		s0.103-0.604,0.103-0.917c0-0.516-0.11-0.893-0.331-1.131s-0.56-0.357-1.017-0.357H8.49c0.254,0.199,0.446,0.435,0.577,0.706
		s0.196,0.583,0.196,0.935c0,0.777-0.283,1.383-0.85,1.816s-1.311,0.65-2.232,0.65H6.059z M6.182,24.671
		c0.586,0,1.053-0.113,1.4-0.34s0.521-0.584,0.521-1.072c0-0.305-0.063-0.562-0.19-0.771s-0.31-0.378-0.548-0.507H4.588
		c-0.23,0.133-0.411,0.304-0.542,0.513s-0.196,0.46-0.196,0.753c0,0.488,0.204,0.848,0.612,1.078s0.94,0.346,1.597,0.346H6.182z"/>
	<path d="M2.801,17.781l0.914-0.082c-0.324-0.207-0.577-0.468-0.759-0.782s-0.272-0.669-0.272-1.063c0-0.66,0.203-1.175,0.609-1.544
		s1.041-0.554,1.904-0.554h3.943v1.424H5.209c-0.492,0-0.842,0.096-1.049,0.287s-0.311,0.48-0.311,0.867
		c0,0.305,0.058,0.568,0.173,0.791s0.274,0.4,0.478,0.533h4.641v1.424h-6.34V17.781z"/>
</g>
</svg>
