<?xml version="1.0" encoding="utf-8"?>
<!-- Generator: Adobe Illustrator 15.1.0, SVG Export Plug-In . SVG Version: 6.00 Build 0)  -->
<!DOCTYPE svg PUBLIC "-//W3C//DTD SVG 1.1//EN" "http://www.w3.org/Graphics/SVG/1.1/DTD/svg11.dtd">
<svg version="1.1" xmlns="http://www.w3.org/2000/svg" xmlns:xlink="http://www.w3.org/1999/xlink" x="0px" y="0px"
	 width="11.701px" height="63.147px" viewBox="0 0 11.701 63.147" enable-background="new 0 0 11.701 63.147" xml:space="preserve">
<g id="Layer_1">
	<g>
		<path d="M9.126,61.729H0.595v-2.818c0-1.082,0.338-1.962,1.014-2.64s1.545-1.017,2.607-1.017h1.295
			c1.066,0,1.936,0.339,2.607,1.017s1.008,1.558,1.008,2.64V61.729z M1.737,60.305h6.252v-1.395c0-0.684-0.23-1.227-0.693-1.629
			s-1.059-0.604-1.785-0.604H4.204c-0.719,0-1.31,0.201-1.772,0.604s-0.694,0.945-0.694,1.629V60.305z"/>
		<path d="M5.897,54.1c-0.945,0-1.72-0.259-2.323-0.776S2.669,52.098,2.669,51.2c0-0.91,0.302-1.624,0.905-2.142
			s1.378-0.776,2.323-0.776h0.123c0.953,0,1.73,0.259,2.33,0.776s0.898,1.228,0.898,2.13c0,0.906-0.301,1.618-0.902,2.136
			S6.97,54.1,6.021,54.1H5.897z M6.021,52.676c0.621,0,1.125-0.121,1.512-0.363s0.58-0.617,0.58-1.125
			c0-0.496-0.193-0.868-0.582-1.116S6.638,49.7,6.021,49.7H5.897c-0.605,0-1.104,0.124-1.497,0.372S3.812,50.696,3.812,51.2
			c0,0.496,0.196,0.866,0.589,1.11s0.892,0.366,1.497,0.366H6.021z"/>
		<path d="M8.112,44.456c0-0.324-0.102-0.599-0.305-0.823s-0.461-0.337-0.773-0.337v-1.289l0.035-0.012
			c0.594-0.016,1.105,0.22,1.535,0.706s0.645,1.071,0.645,1.755c0,0.914-0.301,1.619-0.904,2.115s-1.365,0.744-2.283,0.744H5.856
			c-0.914,0-1.674-0.248-2.279-0.744s-0.908-1.199-0.908-2.109c0-0.738,0.222-1.338,0.665-1.799s1.007-0.684,1.69-0.668l0.035,0.012
			v1.289c-0.348,0-0.643,0.107-0.885,0.322s-0.363,0.496-0.363,0.844c0,0.508,0.196,0.873,0.589,1.096s0.878,0.334,1.456,0.334
			h0.205c0.59,0,1.08-0.11,1.469-0.331S8.112,44.971,8.112,44.456z"/>
		<path d="M8.188,36.844c0.34,0.195,0.602,0.446,0.785,0.753s0.275,0.661,0.275,1.063c0,0.68-0.223,1.211-0.67,1.594
			s-1.143,0.574-2.084,0.574H2.786v-1.418h3.721c0.605,0,1.021-0.088,1.246-0.264s0.336-0.449,0.336-0.82
			c0-0.344-0.061-0.632-0.184-0.864s-0.303-0.415-0.537-0.548H2.786v-1.424h6.34v1.225L8.188,36.844z"/>
		<path d="M2.786,32.701l0.826-0.076c-0.301-0.207-0.533-0.467-0.697-0.779s-0.246-0.674-0.246-1.084
			c0-0.414,0.094-0.77,0.281-1.066s0.469-0.52,0.844-0.668c-0.352-0.195-0.627-0.453-0.826-0.773s-0.299-0.695-0.299-1.125
			c0-0.637,0.222-1.14,0.665-1.509s1.114-0.554,2.013-0.554h3.779v1.424H5.341c-0.555,0-0.944,0.093-1.169,0.278
			s-0.337,0.464-0.337,0.835c0,0.305,0.082,0.562,0.246,0.773s0.385,0.363,0.662,0.457c0.059,0,0.109-0.002,0.152-0.006
			s0.084-0.006,0.123-0.006h4.107v1.424H5.341c-0.535,0-0.92,0.095-1.154,0.284s-0.352,0.468-0.352,0.835
			c0,0.289,0.056,0.534,0.167,0.735s0.269,0.36,0.472,0.478h4.652v1.424h-6.34V32.701z"/>
		<path d="M9.249,20.877c0,0.926-0.291,1.649-0.875,2.171S7.032,23.83,6.103,23.83H5.868c-0.93,0-1.696-0.261-2.3-0.782
			s-0.903-1.194-0.899-2.019c0-0.852,0.263-1.496,0.788-1.934s1.228-0.656,2.106-0.656h0.768v3.92l0.029,0.012
			c0.52-0.016,0.941-0.152,1.266-0.41s0.486-0.646,0.486-1.166c0-0.387-0.047-0.722-0.141-1.005s-0.229-0.546-0.404-0.788
			l0.932-0.463c0.211,0.242,0.389,0.562,0.533,0.961S9.249,20.357,9.249,20.877z M3.812,21.029c0,0.371,0.134,0.668,0.401,0.891
			s0.616,0.361,1.046,0.416l0.029-0.012v-2.479H5.177c-0.406,0-0.735,0.095-0.987,0.284S3.812,20.619,3.812,21.029z"/>
		<path d="M2.786,15.996L3.7,15.914c-0.324-0.207-0.577-0.468-0.759-0.782s-0.272-0.669-0.272-1.063c0-0.66,0.203-1.175,0.609-1.544
			s1.041-0.554,1.904-0.554h3.943v1.424H5.194c-0.492,0-0.842,0.096-1.049,0.287s-0.311,0.48-0.311,0.867
			c0,0.305,0.058,0.568,0.173,0.791s0.274,0.4,0.478,0.533h4.641v1.424h-6.34V15.996z"/>
		<path d="M1.245,8.666h1.541V7.529h1.055v1.137h3.504c0.262,0,0.449-0.057,0.561-0.17s0.166-0.264,0.166-0.451
			c0-0.078-0.006-0.154-0.02-0.229S8.019,7.672,7.995,7.605l1.043-0.152c0.066,0.121,0.119,0.265,0.156,0.431
			s0.055,0.339,0.055,0.519c0,0.523-0.152,0.935-0.459,1.233s-0.789,0.448-1.445,0.448H3.841v0.967H2.786v-0.967H1.245V8.666z"/>
		<path d="M7.392,2.818c-0.219,0-0.398,0.093-0.541,0.278S6.579,3.633,6.466,4.148C6.313,4.895,6.089,5.465,5.792,5.859
			S5.097,6.451,4.597,6.451c-0.531,0-0.985-0.225-1.362-0.674S2.669,4.736,2.669,4.002c0-0.758,0.194-1.368,0.583-1.831
			s0.856-0.685,1.403-0.665L4.69,1.518v1.365c-0.258,0-0.481,0.102-0.671,0.305S3.735,3.662,3.735,4.002
			c0,0.344,0.078,0.605,0.234,0.785s0.348,0.27,0.574,0.27c0.215,0,0.387-0.084,0.516-0.252s0.244-0.514,0.346-1.037
			C5.562,2.99,5.791,2.404,6.094,2.01C6.397,1.615,6.802,1.418,7.31,1.418c0.57,0,1.037,0.235,1.398,0.706s0.541,1.091,0.541,1.86
			c0,0.824-0.211,1.475-0.633,1.951S7.71,6.639,7.163,6.615L7.128,6.604V5.279c0.367-0.016,0.635-0.148,0.803-0.398
			s0.252-0.555,0.252-0.914c0-0.363-0.072-0.646-0.217-0.847S7.63,2.818,7.392,2.818z"/>
	</g>
</g>
<g id="Layer_2" display="none">
	<g display="inline">
		<path d="M9.141,45.077V46.5H0.609v-1.424H9.141z"/>
		<path d="M2.801,42.024l0.914-0.082c-0.324-0.207-0.577-0.468-0.759-0.782s-0.272-0.669-0.272-1.063
			c0-0.66,0.203-1.175,0.609-1.544s1.041-0.554,1.904-0.554h3.943v1.424H5.209c-0.492,0-0.842,0.096-1.049,0.287
			S3.85,40.19,3.85,40.577c0,0.305,0.058,0.568,0.173,0.791s0.274,0.4,0.478,0.533h4.641v1.424h-6.34V42.024z"/>
		<path d="M7.406,32.954c-0.219,0-0.399,0.093-0.542,0.278s-0.271,0.536-0.384,1.052C6.328,35.03,6.104,35.6,5.807,35.995
			s-0.695,0.592-1.195,0.592c-0.531,0-0.985-0.225-1.362-0.674s-0.565-1.041-0.565-1.775c0-0.758,0.194-1.369,0.583-1.832
			s0.856-0.685,1.403-0.665l0.035,0.012v1.366c-0.258,0-0.481,0.102-0.671,0.305S3.75,33.797,3.75,34.137
			c0,0.344,0.078,0.605,0.234,0.785s0.348,0.27,0.574,0.27c0.215,0,0.387-0.084,0.516-0.252s0.244-0.514,0.346-1.037
			c0.156-0.777,0.386-1.364,0.688-1.758s0.708-0.592,1.216-0.592c0.57,0,1.036,0.235,1.397,0.706s0.542,1.091,0.542,1.861
			c0,0.824-0.211,1.475-0.633,1.951s-0.906,0.703-1.453,0.68l-0.035-0.012v-1.324c0.367-0.016,0.635-0.148,0.803-0.398
			s0.252-0.555,0.252-0.914c0-0.363-0.072-0.646-0.217-0.847S7.645,32.954,7.406,32.954z"/>
		<path d="M9.264,27.586c0,0.926-0.292,1.649-0.876,2.171s-1.341,0.782-2.271,0.782H5.883c-0.93,0-1.696-0.261-2.3-0.782
			s-0.903-1.194-0.899-2.019c0-0.852,0.263-1.496,0.788-1.934s1.228-0.656,2.106-0.656h0.768v3.92l0.029,0.012
			c0.52-0.016,0.941-0.152,1.266-0.41s0.486-0.646,0.486-1.166c0-0.387-0.047-0.722-0.141-1.005s-0.229-0.546-0.404-0.788
			l0.932-0.463c0.211,0.242,0.389,0.562,0.533,0.961S9.264,27.066,9.264,27.586z M3.826,27.738c0,0.371,0.134,0.668,0.401,0.891
			s0.616,0.361,1.046,0.416l0.029-0.012v-2.479H5.191c-0.406,0-0.735,0.095-0.987,0.284S3.826,27.328,3.826,27.738z"/>
		<path d="M4.084,20.836l-0.023,0.609c0,0.277,0.059,0.509,0.176,0.694s0.283,0.329,0.498,0.431h4.406v1.424h-6.34v-1.301
			l0.92-0.094c-0.324-0.16-0.578-0.366-0.762-0.618s-0.275-0.542-0.275-0.87c0-0.086,0.007-0.166,0.021-0.24s0.03-0.143,0.05-0.205
			L4.084,20.836z"/>
		<path d="M1.26,17.859h1.541v-1.137h1.055v1.137h3.504c0.262,0,0.448-0.057,0.56-0.17s0.167-0.264,0.167-0.451
			c0-0.078-0.007-0.154-0.021-0.229s-0.032-0.145-0.056-0.211l1.043-0.152c0.066,0.121,0.118,0.265,0.155,0.431
			s0.056,0.339,0.056,0.519c0,0.523-0.153,0.935-0.46,1.233s-0.788,0.448-1.444,0.448H3.855v0.967H2.801v-0.967H1.26V17.859z"/>
	</g>
</g>
<g id="Layer_3" display="none">
	<g display="inline">
		<path d="M1.752,56.491v2.637h7.389v1.424H1.752v2.596H0.609v-6.656H1.752z"/>
		<path d="M6.598,53.93L7.23,53.79v-0.035l-4.43-1.389v-1.559l7.301,2.625c0.441,0.168,0.818,0.404,1.131,0.709
			s0.469,0.736,0.469,1.295c0,0.117-0.012,0.242-0.035,0.377s-0.051,0.266-0.082,0.391l-1.102-0.158
			c0.004-0.051,0.01-0.123,0.018-0.217s0.012-0.164,0.012-0.211c0-0.258-0.088-0.465-0.264-0.619s-0.379-0.279-0.609-0.377
			l-0.574-0.234L2.801,56.69v-1.553L6.598,53.93z"/>
		<path d="M6.182,44.397c0.922,0,1.666,0.217,2.232,0.65s0.85,1.037,0.85,1.811c0,0.359-0.064,0.678-0.193,0.955
			s-0.318,0.516-0.568,0.715h3.076v1.424H2.801V48.75l0.797-0.141c-0.297-0.203-0.523-0.449-0.68-0.736s-0.234-0.619-0.234-0.998
			c0-0.781,0.31-1.391,0.929-1.826s1.435-0.652,2.446-0.652H6.182z M6.059,45.815c-0.648,0-1.179,0.121-1.591,0.365
			S3.85,46.79,3.85,47.274c0,0.297,0.063,0.549,0.19,0.756s0.304,0.373,0.53,0.498h2.865c0.223-0.125,0.394-0.291,0.513-0.498
			s0.179-0.463,0.179-0.768c0-0.484-0.179-0.848-0.536-1.088s-0.827-0.359-1.409-0.359H6.059z"/>
		<path d="M5.912,43.418c-0.945,0-1.72-0.259-2.323-0.776s-0.905-1.226-0.905-2.124c0-0.91,0.302-1.624,0.905-2.142
			S4.967,37.6,5.912,37.6h0.123c0.953,0,1.729,0.259,2.329,0.776s0.899,1.228,0.899,2.13c0,0.906-0.301,1.618-0.902,2.136
			s-1.377,0.776-2.326,0.776H5.912z M6.035,41.995c0.621,0,1.125-0.121,1.512-0.363s0.58-0.617,0.58-1.125
			c0-0.496-0.194-0.868-0.583-1.116s-0.892-0.372-1.509-0.372H5.912c-0.605,0-1.104,0.124-1.497,0.372s-0.589,0.624-0.589,1.128
			c0,0.496,0.196,0.866,0.589,1.11s0.892,0.366,1.497,0.366H6.035z"/>
		<path d="M6.059,36.581c-1.012,0-1.827-0.217-2.446-0.65s-0.929-1.043-0.929-1.828c0-0.379,0.081-0.712,0.243-0.999
			c0.162-0.288,0.396-0.531,0.7-0.73l-0.826-0.141v-1.184h6.34c0.816,0,1.447,0.252,1.893,0.756s0.668,1.219,0.668,2.145
			c0,0.309-0.044,0.642-0.132,0.999s-0.204,0.681-0.349,0.97l-1.119-0.229c0.121-0.242,0.216-0.513,0.284-0.812
			s0.103-0.604,0.103-0.917c0-0.516-0.11-0.893-0.331-1.131c-0.221-0.238-0.56-0.357-1.017-0.357H8.49
			c0.254,0.199,0.446,0.435,0.577,0.707s0.196,0.583,0.196,0.935c0,0.777-0.283,1.383-0.85,1.816s-1.311,0.65-2.232,0.65H6.059z
			 M6.182,35.163c0.586,0,1.053-0.113,1.4-0.34s0.521-0.584,0.521-1.072c0-0.305-0.063-0.562-0.19-0.771
			c-0.127-0.209-0.31-0.378-0.548-0.507H4.588c-0.23,0.133-0.411,0.304-0.542,0.513c-0.131,0.209-0.196,0.46-0.196,0.753
			c0,0.488,0.204,0.848,0.612,1.078s0.94,0.346,1.597,0.346H6.182z"/>
		<path d="M4.084,26.402l-0.023,0.609c0,0.277,0.059,0.509,0.176,0.694s0.283,0.329,0.498,0.431h4.406v1.424h-6.34V28.26l0.92-0.094
			c-0.324-0.16-0.578-0.366-0.762-0.618s-0.275-0.542-0.275-0.87c0-0.086,0.007-0.166,0.021-0.24s0.03-0.143,0.05-0.205
			L4.084,26.402z"/>
		<path d="M9.141,21.527c-0.16,0.051-0.316,0.093-0.469,0.126s-0.305,0.056-0.457,0.067c0.297,0.191,0.546,0.447,0.747,0.768
			s0.302,0.678,0.302,1.072c0,0.66-0.17,1.167-0.51,1.521s-0.807,0.53-1.4,0.53c-0.613,0-1.091-0.242-1.433-0.727
			s-0.513-1.166-0.513-2.045v-1.107H4.852c-0.332,0-0.592,0.097-0.779,0.29s-0.281,0.474-0.281,0.841
			c0,0.324,0.077,0.582,0.231,0.773s0.354,0.287,0.601,0.287l0.006,1.371l-0.035,0.006c-0.5,0.027-0.943-0.196-1.33-0.671
			s-0.58-1.093-0.58-1.854c0-0.738,0.188-1.334,0.562-1.787s0.914-0.68,1.617-0.68h2.818c0.262,0,0.513-0.018,0.753-0.053
			s0.476-0.092,0.706-0.17V21.527z M8.121,23.268c0-0.355-0.09-0.677-0.27-0.964s-0.385-0.478-0.615-0.571H6.299v1.131
			c0,0.414,0.103,0.738,0.308,0.973s0.446,0.352,0.724,0.352c0.242,0,0.435-0.079,0.577-0.237S8.121,23.564,8.121,23.268z"/>
		<path d="M6.182,13.266c0.922,0,1.666,0.217,2.232,0.65s0.85,1.037,0.85,1.811c0,0.359-0.064,0.678-0.193,0.955
			s-0.318,0.516-0.568,0.715h3.076v1.424H2.801v-1.201l0.797-0.141c-0.297-0.203-0.523-0.448-0.68-0.735s-0.234-0.62-0.234-0.999
			c0-0.781,0.31-1.39,0.929-1.825s1.435-0.653,2.446-0.653H6.182z M6.059,14.684c-0.648,0-1.179,0.122-1.591,0.366
			S3.85,15.658,3.85,16.143c0,0.297,0.063,0.549,0.19,0.756s0.304,0.373,0.53,0.498h2.865c0.223-0.125,0.394-0.291,0.513-0.498
			s0.179-0.463,0.179-0.768c0-0.484-0.179-0.847-0.536-1.087s-0.827-0.36-1.409-0.36H6.059z"/>
		<path d="M3.621,10.617c-0.297-0.211-0.527-0.468-0.691-0.771S2.684,9.209,2.684,8.842c0-0.672,0.212-1.196,0.636-1.573
			s1.077-0.565,1.96-0.565h3.861v1.424H5.268c-0.496,0-0.856,0.097-1.081,0.29S3.85,8.898,3.85,9.281
			c0,0.305,0.054,0.568,0.161,0.791s0.257,0.404,0.448,0.545h4.682v1.424H0v-1.424H3.621z"/>
		<path d="M6.598,3.123L7.23,2.982V2.947l-4.43-1.389V0l7.301,2.625c0.441,0.168,0.818,0.404,1.131,0.709s0.469,0.736,0.469,1.295
			c0,0.117-0.012,0.243-0.035,0.378s-0.051,0.265-0.082,0.39l-1.102-0.158c0.004-0.051,0.01-0.123,0.018-0.217
			s0.012-0.164,0.012-0.211c0-0.258-0.088-0.464-0.264-0.618s-0.379-0.28-0.609-0.378L9.064,3.58L2.801,5.883V4.33L6.598,3.123z"/>
	</g>
</g>
<g id="Layer_4" display="none">
	<g display="inline">
		<path d="M6.301,20.616c-1.043,0-1.907-0.327-2.593-0.981S2.68,18.13,2.68,17.083c0-1.02,0.343-1.85,1.028-2.49
			s1.55-0.961,2.593-0.961h1.536c1.039,0,1.902,0.319,2.59,0.958s1.031,1.47,1.031,2.493c0,1.043-0.344,1.893-1.031,2.549
			s-1.551,0.984-2.59,0.984H6.301z M7.849,19.192c0.711,0,1.295-0.189,1.752-0.568s0.686-0.893,0.686-1.541
			c0-0.629-0.229-1.124-0.686-1.485s-1.041-0.542-1.752-0.542H6.301c-0.719,0-1.308,0.182-1.767,0.545s-0.688,0.857-0.688,1.482
			c0,0.652,0.229,1.167,0.686,1.544s1.047,0.565,1.77,0.565H7.849z"/>
		<path d="M3.741,25.937c-0.34-0.195-0.602-0.446-0.785-0.753S2.68,24.522,2.68,24.12c0-0.68,0.224-1.211,0.671-1.594
			s1.142-0.574,2.083-0.574h3.709v1.418H5.422c-0.605,0-1.021,0.088-1.245,0.264s-0.337,0.449-0.337,0.82
			c0,0.344,0.062,0.632,0.185,0.864s0.302,0.415,0.536,0.548h4.583v1.424h-6.34v-1.225L3.741,25.937z"/>
		<path d="M10.685,30.601H9.144v1.137H8.089v-1.137H4.584c-0.262,0-0.448,0.057-0.56,0.17s-0.167,0.264-0.167,0.452
			c0,0.078,0.007,0.154,0.021,0.229s0.032,0.145,0.056,0.211l-1.043,0.152c-0.066-0.121-0.118-0.266-0.155-0.432
			S2.68,31.044,2.68,30.864c0-0.523,0.153-0.935,0.46-1.233s0.788-0.448,1.444-0.448h3.504v-0.967h1.055v0.967h1.541V30.601z"/>
		<path d="M5.762,38.441c-0.922,0-1.666-0.217-2.232-0.65s-0.85-1.037-0.85-1.811c0-0.359,0.064-0.678,0.193-0.955
			s0.318-0.516,0.568-0.715H0.366v-1.424h8.778v1.201l-0.797,0.141c0.297,0.203,0.523,0.447,0.68,0.734s0.234,0.621,0.234,1
			c0,0.781-0.311,1.389-0.93,1.824s-1.434,0.654-2.446,0.654H5.762z M5.885,37.023c0.649,0,1.178-0.123,1.59-0.367
			s0.619-0.607,0.619-1.092c0-0.297-0.064-0.549-0.191-0.756s-0.303-0.373-0.529-0.498H4.508c-0.223,0.125-0.394,0.291-0.513,0.498
			s-0.179,0.463-0.179,0.768c0,0.484,0.179,0.846,0.536,1.086s0.827,0.361,1.409,0.361H5.885z"/>
		<path d="M3.741,43.638c-0.34-0.195-0.602-0.447-0.785-0.754s-0.275-0.66-0.275-1.062c0-0.68,0.224-1.211,0.671-1.594
			s1.142-0.574,2.083-0.574h3.709v1.418H5.422c-0.605,0-1.021,0.088-1.245,0.264s-0.337,0.449-0.337,0.82
			c0,0.344,0.062,0.631,0.185,0.863s0.302,0.416,0.536,0.549h4.583v1.424h-6.34v-1.225L3.741,43.638z"/>
		<path d="M10.685,48.302H9.144v1.137H8.089v-1.137H4.584c-0.262,0-0.448,0.057-0.56,0.17s-0.167,0.264-0.167,0.451
			c0,0.078,0.007,0.154,0.021,0.229s0.032,0.145,0.056,0.211l-1.043,0.152c-0.066-0.121-0.118-0.266-0.155-0.432
			S2.68,48.746,2.68,48.566c0-0.523,0.153-0.936,0.46-1.234s0.788-0.447,1.444-0.447h3.504v-0.967h1.055v0.967h1.541V48.302z"/>
	</g>
</g>
</svg>
