<?xml version="1.0" encoding="utf-8"?>
<!-- Generator: Adobe Illustrator 16.0.0, SVG Export Plug-In . SVG Version: 6.00 Build 0)  -->
<!DOCTYPE svg PUBLIC "-//W3C//DTD SVG 1.1//EN" "http://www.w3.org/Graphics/SVG/1.1/DTD/svg11.dtd">
<svg version="1.1" id="Layer_1" xmlns="http://www.w3.org/2000/svg" xmlns:xlink="http://www.w3.org/1999/xlink" x="0px" y="0px"
	 width="100px" height="129.541px" viewBox="0 0 100 129.541" enable-background="new 0 0 100 129.541" xml:space="preserve">
<polygon fill="#00006B" points="1.5,3.271 1.5,112.791 16.945,127.271 98.5,127.271 98.5,17.271 91.312,17.271 91.32,10.271 
	82.5,10.271 82.5,3.271 "/>
<g>
	<path fill="#9D9DFF" d="M92.525,14.699v-7.34h-7.463V0H0.05v114.842h0.01l14.918,14.699H100V14.699H92.525z M95.107,124.647H17.833
		l-12.89-12.752V4.894H80.17v7.368h7.462v7.34h7.476V124.647L95.107,124.647z"/>
</g>
<g>
	<path fill="#9D9DFF" d="M19.268,36.75v6.049c0,1.041-0.345,1.855-1.035,2.444c-0.69,0.588-1.585,0.882-2.685,0.882
		c-1.096,0-1.986-0.294-2.669-0.882c-0.684-0.589-1.025-1.403-1.025-2.444V36.75h1.86v6.049c0,0.618,0.165,1.09,0.495,1.416
		c0.33,0.325,0.776,0.488,1.339,0.488c0.571,0,1.024-0.163,1.358-0.488c0.334-0.326,0.501-0.798,0.501-1.416V36.75H19.268z"/>
	<path fill="#9D9DFF" d="M22.727,42.641v3.352h-1.854V36.75h3.536c1.062,0,1.898,0.271,2.507,0.812
		c0.609,0.541,0.914,1.255,0.914,2.139c0,0.885-0.305,1.596-0.914,2.133c-0.609,0.538-1.445,0.807-2.507,0.807H22.727z
		 M22.727,41.212h1.682c0.516,0,0.908-0.141,1.174-0.422s0.4-0.64,0.4-1.076c0-0.444-0.132-0.812-0.397-1.101
		c-0.264-0.29-0.657-0.436-1.177-0.436h-1.682V41.212z"/>
	<path fill="#9D9DFF" d="M36.241,44.729c-0.288,0.377-0.717,0.704-1.289,0.981c-0.571,0.276-1.308,0.415-2.209,0.415
		c-1.117,0-2.031-0.351-2.742-1.054c-0.711-0.702-1.066-1.614-1.066-2.735v-1.93c0-1.117,0.345-2.028,1.035-2.732
		c0.69-0.705,1.576-1.058,2.66-1.058c1.13,0,1.995,0.268,2.596,0.804c0.601,0.535,0.891,1.249,0.87,2.142L36.083,39.6h-1.746
		c0-0.49-0.142-0.872-0.425-1.146c-0.284-0.272-0.696-0.409-1.238-0.409c-0.567,0-1.024,0.219-1.371,0.657
		c-0.347,0.438-0.521,1.001-0.521,1.691v1.942c0,0.698,0.178,1.268,0.533,1.707c0.355,0.44,0.832,0.66,1.428,0.66
		c0.44,0,0.788-0.044,1.044-0.133c0.256-0.089,0.454-0.201,0.593-0.337v-1.79h-1.777v-1.282h3.637V44.729z"/>
	<path fill="#9D9DFF" d="M39.669,42.298v3.694h-1.854V36.75h3.199c1.054,0,1.878,0.24,2.473,0.721
		c0.594,0.479,0.892,1.149,0.892,2.009c0,0.474-0.126,0.883-0.378,1.229c-0.251,0.345-0.619,0.623-1.101,0.834
		c0.546,0.161,0.938,0.43,1.177,0.807c0.239,0.376,0.359,0.842,0.359,1.396v0.679c0,0.259,0.035,0.528,0.105,0.81
		c0.069,0.281,0.189,0.49,0.358,0.625v0.134h-1.911c-0.169-0.136-0.278-0.36-0.327-0.673c-0.049-0.313-0.073-0.616-0.073-0.908
		v-0.653c0-0.462-0.126-0.82-0.378-1.076c-0.251-0.256-0.608-0.384-1.069-0.384H39.669z M39.669,40.869h1.314
		c0.521,0,0.908-0.109,1.162-0.33c0.254-0.22,0.381-0.546,0.381-0.978c0-0.423-0.128-0.76-0.384-1.009
		c-0.256-0.25-0.632-0.375-1.127-0.375h-1.346V40.869z"/>
	<path fill="#9D9DFF" d="M50.917,43.999h-2.996l-0.622,1.993h-1.936l3.117-9.242h1.898l3.104,9.242h-1.937L50.917,43.999z
		 M48.378,42.545h2.088l-1.022-3.256h-0.038L48.378,42.545z"/>
	<path fill="#9D9DFF" d="M54.37,45.992V36.75h3.225c1.13,0,2.062,0.36,2.793,1.082s1.099,1.647,1.099,2.777v1.529
		c0,1.135-0.367,2.061-1.099,2.777c-0.731,0.718-1.663,1.076-2.793,1.076H54.37z M56.224,38.178v6.393h1.371
		c0.609,0,1.101-0.228,1.473-0.683s0.559-1.038,0.559-1.749v-1.542c0-0.707-0.187-1.287-0.559-1.739
		c-0.372-0.453-0.863-0.68-1.473-0.68H56.224z"/>
	<path fill="#9D9DFF" d="M68.252,41.93h-3.428v2.641H68.9v1.422h-5.93V36.75h5.916v1.428h-4.062v2.323h3.428V41.93z"/>
	<path fill="#9D9DFF" d="M79.881,38.178H77.24v7.814h-1.854v-7.814h-2.602V36.75h7.096V38.178z"/>
	<path fill="#9D9DFF" d="M88.197,42.202c0,1.139-0.357,2.077-1.073,2.815s-1.646,1.107-2.793,1.107c-1.143,0-2.069-0.37-2.78-1.11
		c-0.711-0.741-1.066-1.678-1.066-2.812v-1.663c0-1.13,0.354-2.065,1.062-2.809c0.709-0.742,1.633-1.114,2.771-1.114
		c1.146,0,2.08,0.372,2.799,1.114c0.72,0.743,1.08,1.679,1.08,2.809V42.202z M86.35,40.526c0-0.719-0.18-1.31-0.539-1.771
		c-0.36-0.462-0.857-0.692-1.492-0.692c-0.627,0-1.113,0.23-1.463,0.692c-0.35,0.461-0.523,1.052-0.523,1.771v1.676
		c0,0.732,0.176,1.329,0.526,1.79c0.351,0.462,0.843,0.692,1.473,0.692c0.635,0,1.13-0.23,1.485-0.692
		c0.355-0.461,0.533-1.058,0.533-1.79V40.526z"/>
	<path fill="#9D9DFF" d="M30.17,58.24v3.352h-1.854V52.35h3.536c1.062,0,1.898,0.271,2.507,0.812
		c0.609,0.542,0.914,1.255,0.914,2.14c0,0.884-0.305,1.595-0.914,2.133c-0.609,0.537-1.445,0.806-2.507,0.806H30.17z M30.17,56.812
		h1.682c0.516,0,0.908-0.141,1.174-0.423c0.267-0.281,0.4-0.64,0.4-1.075c0-0.444-0.132-0.812-0.397-1.102
		c-0.264-0.29-0.657-0.435-1.177-0.435H30.17V56.812z"/>
	<path fill="#9D9DFF" d="M38.454,57.897v3.694H36.6V52.35h3.199c1.054,0,1.878,0.24,2.473,0.721c0.594,0.48,0.892,1.15,0.892,2.009
		c0,0.475-0.126,0.884-0.378,1.229c-0.251,0.345-0.619,0.623-1.101,0.835c0.546,0.16,0.938,0.43,1.177,0.806
		c0.239,0.377,0.359,0.843,0.359,1.397v0.679c0,0.259,0.035,0.528,0.105,0.81c0.069,0.281,0.189,0.49,0.358,0.625v0.133h-1.911
		c-0.169-0.135-0.278-0.359-0.327-0.672c-0.049-0.313-0.073-0.616-0.073-0.908v-0.654c0-0.461-0.126-0.819-0.378-1.076
		c-0.251-0.256-0.608-0.384-1.069-0.384H38.454z M38.454,56.47h1.314c0.521,0,0.908-0.11,1.162-0.33
		c0.254-0.221,0.381-0.546,0.381-0.978c0-0.424-0.128-0.76-0.384-1.01c-0.256-0.249-0.632-0.374-1.127-0.374h-1.346V56.47z"/>
	<path fill="#9D9DFF" d="M52.361,57.803c0,1.139-0.357,2.076-1.072,2.814c-0.716,0.739-1.646,1.108-2.793,1.108
		c-1.143,0-2.069-0.37-2.78-1.11c-0.711-0.741-1.066-1.678-1.066-2.812V56.14c0-1.13,0.354-2.066,1.063-2.81
		c0.709-0.742,1.633-1.113,2.771-1.113c1.147,0,2.08,0.371,2.799,1.113c0.72,0.743,1.079,1.68,1.079,2.81V57.803z M50.514,56.127
		c0-0.72-0.179-1.31-0.539-1.771c-0.36-0.461-0.857-0.691-1.492-0.691c-0.626,0-1.114,0.23-1.463,0.691
		c-0.349,0.462-0.523,1.052-0.523,1.771v1.676c0,0.731,0.176,1.328,0.527,1.79s0.842,0.692,1.473,0.692
		c0.635,0,1.13-0.23,1.485-0.692s0.533-1.059,0.533-1.79V56.127z"/>
	<path fill="#9D9DFF" d="M63.508,53.778h-2.641v7.813h-1.854v-7.813h-2.603V52.35h7.097V53.778z"/>
	<path fill="#9D9DFF" d="M71.823,57.803c0,1.139-0.357,2.076-1.073,2.814c-0.715,0.739-1.646,1.108-2.793,1.108
		c-1.143,0-2.068-0.37-2.779-1.11c-0.711-0.741-1.066-1.678-1.066-2.812V56.14c0-1.13,0.354-2.066,1.062-2.81
		c0.709-0.742,1.633-1.113,2.771-1.113c1.146,0,2.08,0.371,2.799,1.113c0.719,0.743,1.079,1.68,1.079,2.81V57.803z M69.977,56.127
		c0-0.72-0.18-1.31-0.54-1.771c-0.36-0.461-0.856-0.691-1.491-0.691c-0.627,0-1.114,0.23-1.464,0.691
		c-0.349,0.462-0.523,1.052-0.523,1.771v1.676c0,0.731,0.176,1.328,0.526,1.79c0.352,0.462,0.843,0.692,1.473,0.692
		c0.635,0,1.131-0.23,1.486-0.692s0.533-1.059,0.533-1.79V56.127z"/>
	<path fill="#9D9DFF" d="M18.474,74.762h0.038l2.374-6.812h2.418v9.242h-1.854v-6.31l-0.038-0.006l-2.285,6.315h-1.257l-2.285-6.329
		l-0.038,0.007v6.322h-1.854V67.95h2.431L18.474,74.762z"/>
	<path fill="#9D9DFF" d="M29.938,75.199h-2.996l-0.622,1.993h-1.936L27.5,67.95h1.898l3.104,9.242h-1.936L29.938,75.199z
		 M27.399,73.746h2.088l-1.022-3.257h-0.038L27.399,73.746z"/>
	<path fill="#9D9DFF" d="M35.924,73.333h-0.679v3.859h-1.854V67.95h1.854v3.776h0.521l2.533-3.776h2.292l-3.199,4.298l3.447,4.944
		h-2.361L35.924,73.333z"/>
	<path fill="#9D9DFF" d="M46.956,73.13h-3.428v2.641h4.075v1.422h-5.929V67.95h5.916v1.429h-4.062v2.322h3.428V73.13z"/>
	<path fill="#9D9DFF" d="M56.922,74.762h0.038l2.374-6.812h2.418v9.242h-1.854v-6.31l-0.037-0.006l-2.285,6.315h-1.258l-2.285-6.329
		l-0.037,0.007v6.322h-1.854V67.95h2.431L56.922,74.762z"/>
	<path fill="#9D9DFF" d="M70.932,73.402c0,1.139-0.357,2.077-1.073,2.815c-0.716,0.739-1.646,1.108-2.793,1.108
		c-1.143,0-2.069-0.371-2.78-1.111s-1.066-1.678-1.066-2.812V71.74c0-1.131,0.354-2.066,1.062-2.81
		c0.709-0.742,1.633-1.114,2.771-1.114c1.146,0,2.08,0.372,2.799,1.114c0.72,0.743,1.08,1.679,1.08,2.81V73.402z M69.084,71.727
		c0-0.719-0.18-1.309-0.539-1.771c-0.36-0.462-0.857-0.692-1.492-0.692c-0.627,0-1.113,0.23-1.463,0.692s-0.523,1.052-0.523,1.771
		v1.676c0,0.732,0.176,1.329,0.526,1.791c0.351,0.461,0.843,0.691,1.473,0.691c0.635,0,1.13-0.23,1.485-0.691
		c0.355-0.462,0.533-1.059,0.533-1.791V71.727z"/>
	<path fill="#9D9DFF" d="M74.251,73.498v3.694h-1.854V67.95h3.199c1.054,0,1.878,0.24,2.473,0.721
		c0.595,0.479,0.892,1.149,0.892,2.009c0,0.475-0.126,0.883-0.378,1.229c-0.251,0.345-0.618,0.623-1.101,0.834
		c0.545,0.161,0.938,0.43,1.177,0.807s0.358,0.842,0.358,1.396v0.68c0,0.258,0.035,0.527,0.105,0.809
		c0.069,0.281,0.189,0.49,0.358,0.625v0.134H77.57c-0.169-0.136-0.277-0.36-0.326-0.673s-0.073-0.615-0.073-0.908v-0.653
		c0-0.462-0.126-0.819-0.378-1.076c-0.252-0.256-0.607-0.384-1.069-0.384H74.251z M74.251,72.07h1.313
		c0.521,0,0.908-0.11,1.162-0.33c0.254-0.221,0.381-0.547,0.381-0.979c0-0.423-0.128-0.76-0.384-1.009
		c-0.257-0.249-0.632-0.374-1.127-0.374h-1.346V72.07z"/>
	<path fill="#9D9DFF" d="M85.963,73.13h-3.428v2.641h4.074v1.422h-5.928V67.95h5.916v1.429h-4.062v2.322h3.428V73.13z"/>
	<path fill="#9D9DFF" d="M29.557,92.792V83.55h3.028c1.087,0,1.936,0.213,2.545,0.638c0.609,0.426,0.914,1.057,0.914,1.895
		c0,0.424-0.11,0.803-0.33,1.137s-0.542,0.586-0.965,0.755c0.576,0.106,1.009,0.355,1.301,0.75c0.292,0.393,0.438,0.853,0.438,1.377
		c0,0.885-0.292,1.554-0.876,2.009s-1.411,0.683-2.482,0.683H29.557z M31.411,87.422h1.238c0.495,0,0.876-0.102,1.143-0.305
		s0.4-0.5,0.4-0.889c0-0.428-0.134-0.742-0.403-0.945c-0.269-0.203-0.669-0.305-1.203-0.305h-1.174V87.422z M31.411,88.704v2.666
		h1.72c0.491,0,0.865-0.106,1.124-0.32s0.387-0.53,0.387-0.949c0-0.448-0.127-0.793-0.381-1.035
		c-0.254-0.24-0.637-0.361-1.149-0.361H31.411z"/>
	<path fill="#9D9DFF" d="M45.318,89.003c0,1.138-0.357,2.076-1.073,2.814s-1.646,1.107-2.793,1.107c-1.143,0-2.069-0.37-2.78-1.11
		s-1.066-1.678-1.066-2.812V87.34c0-1.131,0.354-2.066,1.063-2.81c0.709-0.742,1.633-1.114,2.771-1.114
		c1.147,0,2.08,0.372,2.799,1.114c0.719,0.743,1.079,1.679,1.079,2.81V89.003z M43.471,87.326c0-0.719-0.18-1.309-0.54-1.771
		s-0.857-0.692-1.492-0.692c-0.626,0-1.114,0.23-1.463,0.692c-0.349,0.462-0.523,1.052-0.523,1.771v1.677
		c0,0.731,0.176,1.328,0.527,1.789c0.351,0.462,0.842,0.692,1.473,0.692c0.635,0,1.13-0.23,1.485-0.692
		c0.355-0.461,0.533-1.058,0.533-1.789V87.326z"/>
	<path fill="#9D9DFF" d="M54.262,89.003c0,1.138-0.357,2.076-1.072,2.814s-1.646,1.107-2.793,1.107c-1.143,0-2.069-0.37-2.78-1.11
		s-1.066-1.678-1.066-2.812V87.34c0-1.131,0.354-2.066,1.063-2.81c0.709-0.742,1.633-1.114,2.771-1.114
		c1.147,0,2.08,0.372,2.8,1.114c0.719,0.743,1.078,1.679,1.078,2.81V89.003z M52.415,87.326c0-0.719-0.18-1.309-0.54-1.771
		c-0.359-0.462-0.856-0.692-1.491-0.692c-0.626,0-1.114,0.23-1.463,0.692c-0.349,0.462-0.523,1.052-0.523,1.771v1.677
		c0,0.731,0.176,1.328,0.527,1.789c0.351,0.462,0.842,0.692,1.473,0.692c0.635,0,1.13-0.23,1.485-0.692
		c0.355-0.461,0.533-1.058,0.533-1.789V87.326z"/>
	<path fill="#9D9DFF" d="M58.262,88.933h-0.68v3.859h-1.854V83.55h1.854v3.776h0.521l2.532-3.776h2.292l-3.199,4.297l3.446,4.945
		h-2.361L58.262,88.933z"/>
	<path fill="#9D9DFF" d="M68.83,90.38c0-0.355-0.123-0.641-0.371-0.857c-0.248-0.215-0.683-0.418-1.305-0.609
		c-1.066-0.321-1.875-0.7-2.428-1.136s-0.828-1.03-0.828-1.783c0-0.758,0.311-1.377,0.933-1.857s1.415-0.721,2.38-0.721
		c1.024,0,1.849,0.259,2.473,0.775c0.625,0.516,0.926,1.193,0.904,2.031l-0.012,0.037h-1.797c0-0.461-0.14-0.815-0.419-1.062
		c-0.279-0.248-0.671-0.371-1.175-0.371c-0.457,0-0.811,0.109-1.06,0.33c-0.249,0.22-0.374,0.501-0.374,0.844
		c0,0.312,0.135,0.57,0.406,0.771c0.271,0.201,0.738,0.414,1.402,0.638c1.016,0.288,1.79,0.663,2.323,1.127
		c0.533,0.463,0.8,1.073,0.8,1.831c0,0.791-0.309,1.415-0.927,1.872s-1.435,0.686-2.45,0.686c-0.994,0-1.848-0.247-2.561-0.742
		c-0.714-0.495-1.06-1.233-1.039-2.215l0.014-0.039h1.796c0,0.547,0.161,0.948,0.482,1.207c0.321,0.258,0.757,0.387,1.308,0.387
		c0.495,0,0.873-0.104,1.133-0.311C68.699,91.004,68.83,90.727,68.83,90.38z"/>
</g>
</svg>
