<?xml version="1.0" encoding="utf-8"?>
<!-- Generator: Adobe Illustrator 16.0.0, SVG Export Plug-In . SVG Version: 6.00 Build 0)  -->
<!DOCTYPE svg PUBLIC "-//W3C//DTD SVG 1.1//EN" "http://www.w3.org/Graphics/SVG/1.1/DTD/svg11.dtd">
<svg version="1.1" id="Layer_1" xmlns="http://www.w3.org/2000/svg" xmlns:xlink="http://www.w3.org/1999/xlink" x="0px" y="0px"
	 width="100px" height="129.541px" viewBox="0 0 100 129.541" enable-background="new 0 0 100 129.541" xml:space="preserve">
<polygon fill="#FFFFFF" points="2.29,2.585 82.488,2.585 82.488,9.229 90.082,9.229 90.082,16.585 97.2,16.585 97.2,127.155 
	15.34,127.155 2.29,112.919 "/>
<g>
	<path fill="#333333" d="M92.525,14.699v-7.34h-7.463V0H0.05v114.842h0.01l14.918,14.699H100V14.699H92.525z M4.943,4.894H80.17
		V109.95H4.943V4.894z M85.062,114.842V12.262h2.569v105.043H9.008l-2.675-2.475L85.062,114.842z M95.107,124.647H15.833
		l-2.417-2.446h79.109V19.602h2.582V124.647z"/>
</g>
</svg>
