<?xml version="1.0" encoding="utf-8"?>
<!-- Generator: Adobe Illustrator 16.0.0, SVG Export Plug-In . SVG Version: 6.00 Build 0)  -->
<!DOCTYPE svg PUBLIC "-//W3C//DTD SVG 1.1//EN" "http://www.w3.org/Graphics/SVG/1.1/DTD/svg11.dtd">
<svg version="1.1" id="Layer_1" xmlns="http://www.w3.org/2000/svg" xmlns:xlink="http://www.w3.org/1999/xlink" x="0px" y="0px"
	 width="100px" height="129.541px" viewBox="0 0 100 129.541" enable-background="new 0 0 100 129.541" xml:space="preserve">
<polygon fill="#F2D32C" points="1.5,3.271 1.5,112.791 16.945,127.271 98.5,127.271 98.5,17.271 91.313,17.271 91.321,10.271 
	82.5,10.271 82.5,3.271 "/>
<g>
	<path fill="#FFF56C" d="M92.525,14.699v-7.34h-7.463V0H0.05v114.842h0.01l14.918,14.699H100V14.699H92.525z M95.107,124.647H17.833
		l-12.89-12.752V4.894H80.17v7.368h7.462v7.34h7.476V124.647L95.107,124.647z"/>
</g>
<g>
	<path fill="#FFF56C" d="M25.831,36.95v6.063c0,1.043-0.346,1.86-1.037,2.449c-0.691,0.59-1.588,0.884-2.691,0.884
		c-1.099,0-1.99-0.294-2.675-0.884c-0.685-0.589-1.028-1.406-1.028-2.449V36.95h1.864v6.063c0,0.619,0.166,1.092,0.496,1.418
		c0.331,0.327,0.778,0.49,1.343,0.49c0.572,0,1.026-0.164,1.361-0.49c0.335-0.326,0.502-0.799,0.502-1.418V36.95H25.831z"/>
	<path fill="#FFF56C" d="M33.509,42.962c0,1.018-0.235,1.836-0.706,2.456s-1.128,0.929-1.972,0.929c-0.361,0-0.681-0.066-0.961-0.2
		c-0.28-0.134-0.52-0.33-0.719-0.588v3.302H27.3v-9.53h1.673l0.108,0.814c0.204-0.301,0.448-0.534,0.735-0.697
		c0.286-0.163,0.62-0.245,1.002-0.245c0.853,0,1.514,0.333,1.985,0.999s0.706,1.542,0.706,2.627V42.962z M31.651,42.829
		c0-0.649-0.108-1.175-0.324-1.578s-0.547-0.604-0.993-0.604c-0.28,0-0.518,0.057-0.715,0.172c-0.197,0.114-0.354,0.278-0.468,0.49
		v3.016c0.114,0.195,0.271,0.344,0.468,0.445c0.197,0.102,0.44,0.153,0.729,0.153c0.449,0,0.779-0.176,0.989-0.528
		s0.314-0.829,0.314-1.431V42.829z"/>
	<path fill="#FFF56C" d="M34.381,42.829c0-1.086,0.235-1.961,0.706-2.627s1.133-0.999,1.985-0.999c0.386,0,0.726,0.087,1.018,0.261
		c0.293,0.174,0.543,0.422,0.751,0.744l0.146-0.878h1.597v6.852c0,0.895-0.293,1.587-0.878,2.077
		c-0.585,0.49-1.402,0.734-2.45,0.734c-0.348,0-0.717-0.047-1.107-0.143c-0.39-0.095-0.75-0.226-1.082-0.391l0.312-1.387
		c0.284,0.136,0.578,0.238,0.881,0.309c0.303,0.07,0.631,0.105,0.983,0.105c0.509,0,0.883-0.106,1.123-0.318
		s0.359-0.543,0.359-0.993v-0.623c-0.204,0.259-0.443,0.456-0.719,0.591c-0.276,0.136-0.592,0.204-0.948,0.204
		c-0.844,0-1.501-0.31-1.972-0.929s-0.706-1.438-0.706-2.456V42.829z M36.239,42.962c0,0.602,0.101,1.076,0.302,1.422
		c0.201,0.346,0.531,0.519,0.989,0.519c0.284,0,0.524-0.052,0.722-0.156c0.197-0.104,0.355-0.255,0.474-0.455v-2.984
		c-0.119-0.212-0.277-0.375-0.474-0.49c-0.197-0.115-0.434-0.172-0.709-0.172c-0.454,0-0.785,0.202-0.993,0.604
		s-0.312,0.929-0.312,1.578V42.962z"/>
	<path fill="#FFF56C" d="M45.629,40.926l-0.681-0.019c-0.276,0-0.503,0.058-0.681,0.172c-0.178,0.115-0.314,0.276-0.407,0.483v4.651
		h-1.852V39.33h1.724l0.083,1.018c0.161-0.361,0.37-0.642,0.627-0.843c0.256-0.201,0.552-0.302,0.887-0.302
		c0.093,0,0.179,0.008,0.258,0.022s0.158,0.033,0.239,0.054L45.629,40.926z"/>
	<path fill="#FFF56C" d="M50.655,46.213c-0.067-0.157-0.127-0.322-0.175-0.497c-0.049-0.174-0.084-0.352-0.105-0.534
		c-0.191,0.335-0.443,0.613-0.757,0.833c-0.314,0.22-0.687,0.331-1.12,0.331c-0.721,0-1.276-0.186-1.667-0.557
		c-0.39-0.371-0.585-0.877-0.585-1.517c0-0.674,0.26-1.197,0.779-1.568s1.277-0.557,2.274-0.557h1.043v-0.547
		c0-0.331-0.087-0.587-0.261-0.77c-0.174-0.183-0.433-0.273-0.776-0.273c-0.301,0-0.534,0.073-0.697,0.219
		c-0.163,0.146-0.245,0.347-0.245,0.601h-1.788l-0.013-0.038c-0.03-0.581,0.224-1.083,0.76-1.504s1.237-0.633,2.103-0.633
		c0.827,0,1.496,0.208,2.007,0.624c0.511,0.416,0.768,1.012,0.768,1.788v2.844c0,0.322,0.023,0.625,0.072,0.91
		s0.127,0.566,0.233,0.846H50.655z M48.956,44.973c0.322,0,0.611-0.081,0.865-0.242s0.428-0.348,0.521-0.56v-0.973H49.3
		c-0.395,0-0.692,0.098-0.894,0.292c-0.202,0.195-0.302,0.435-0.302,0.719c0,0.233,0.075,0.419,0.226,0.557
		C48.48,44.904,48.689,44.973,48.956,44.973z"/>
	<path fill="#FFF56C" d="M53.309,42.829c0-1.086,0.232-1.961,0.701-2.627s1.131-0.999,1.983-0.999c0.344,0,0.653,0.074,0.929,0.223
		s0.518,0.361,0.726,0.636v-3.772h1.863v9.925h-1.584l-0.159-0.846c-0.216,0.318-0.473,0.561-0.77,0.729s-0.636,0.251-1.018,0.251
		c-0.844,0-1.502-0.31-1.971-0.929s-0.701-1.438-0.701-2.456V42.829z M55.159,42.962c0,0.602,0.103,1.076,0.306,1.422
		c0.204,0.346,0.534,0.519,0.992,0.519c0.268,0,0.501-0.054,0.7-0.163c0.199-0.108,0.362-0.266,0.49-0.474v-2.933
		c-0.128-0.216-0.291-0.385-0.488-0.506c-0.197-0.121-0.426-0.181-0.689-0.181c-0.453,0-0.786,0.202-0.996,0.604
		s-0.314,0.929-0.314,1.578V42.962z"/>
	<path fill="#FFF56C" d="M63.933,46.347c-1.026,0-1.828-0.315-2.404-0.945c-0.577-0.629-0.865-1.441-0.865-2.433v-0.254
		c0-1.031,0.279-1.875,0.839-2.532c0.561-0.657,1.33-0.984,2.31-0.98c0.925,0,1.633,0.283,2.127,0.85
		c0.494,0.566,0.742,1.329,0.742,2.287v0.96h-4.104l-0.019,0.038c0.029,0.471,0.172,0.853,0.429,1.146
		c0.256,0.292,0.638,0.439,1.143,0.439c0.416,0,0.768-0.042,1.059-0.127c0.29-0.085,0.591-0.214,0.901-0.388l0.502,1.146
		c-0.275,0.225-0.648,0.414-1.119,0.566C65.002,46.271,64.488,46.347,63.933,46.347z M63.812,40.634
		c-0.373,0-0.661,0.128-0.862,0.385c-0.202,0.257-0.323,0.597-0.365,1.021l0.013,0.032h2.265v-0.14c0-0.403-0.082-0.72-0.248-0.951
		C64.448,40.75,64.181,40.634,63.812,40.634z"/>
	<path fill="#FFF56C" d="M73.234,37.644v1.686h1.164v1.304h-1.164v3.505c0,0.267,0.055,0.458,0.167,0.573
		c0.112,0.114,0.261,0.172,0.443,0.172c0.098,0,0.183-0.005,0.254-0.016c0.072-0.011,0.155-0.029,0.249-0.054l0.152,1.342
		c-0.187,0.064-0.369,0.111-0.545,0.144c-0.176,0.032-0.367,0.047-0.575,0.047c-0.64,0-1.134-0.176-1.479-0.528
		s-0.518-0.91-0.518-1.673v-3.512h-1.006V39.33h1.006v-1.686H73.234z"/>
	<path fill="#FFF56C" d="M75.257,42.708c0-1.026,0.286-1.868,0.859-2.523c0.572-0.655,1.365-0.983,2.379-0.983
		c1.018,0,1.815,0.327,2.393,0.98c0.576,0.653,0.865,1.495,0.865,2.526v0.133c0,1.035-0.289,1.878-0.863,2.529
		c-0.575,0.651-1.368,0.977-2.382,0.977c-1.018,0-1.815-0.325-2.39-0.977c-0.575-0.651-0.861-1.494-0.861-2.529V42.708z
		 M77.108,42.841c0,0.628,0.11,1.131,0.331,1.511c0.221,0.379,0.576,0.569,1.068,0.569c0.479,0,0.829-0.191,1.052-0.573
		s0.335-0.884,0.335-1.508v-0.133c0-0.611-0.112-1.109-0.337-1.495c-0.225-0.386-0.579-0.579-1.062-0.579
		c-0.479,0-0.831,0.194-1.054,0.582s-0.333,0.885-0.333,1.492V42.841z"/>
	<path fill="#FFF56C" d="M26.138,58.489v3.359H24.28v-9.263h3.543c1.064,0,1.902,0.271,2.513,0.814s0.916,1.258,0.916,2.144
		c0,0.887-0.305,1.599-0.916,2.138s-1.449,0.808-2.513,0.808H26.138z M26.138,57.058h1.686c0.518,0,0.91-0.141,1.177-0.423
		c0.267-0.282,0.4-0.642,0.4-1.079c0-0.445-0.132-0.813-0.397-1.104s-0.658-0.436-1.18-0.436h-1.686V57.058z"/>
	<path fill="#FFF56C" d="M36.062,56.562l-0.681-0.019c-0.276,0-0.502,0.057-0.681,0.172c-0.178,0.114-0.314,0.275-0.407,0.483v4.65
		h-1.852v-6.883h1.724l0.083,1.018c0.161-0.36,0.37-0.642,0.626-0.843c0.257-0.202,0.553-0.302,0.888-0.302
		c0.093,0,0.179,0.007,0.257,0.022c0.079,0.015,0.158,0.033,0.239,0.054L36.062,56.562z"/>
	<path fill="#FFF56C" d="M39.893,61.982c-1.026,0-1.828-0.315-2.405-0.945c-0.577-0.63-0.865-1.441-0.865-2.434v-0.254
		c0-1.031,0.28-1.875,0.839-2.532c0.56-0.658,1.33-0.984,2.31-0.98c0.925,0,1.634,0.283,2.128,0.849
		c0.494,0.566,0.741,1.329,0.741,2.287v0.961h-4.104l-0.019,0.038c0.03,0.471,0.173,0.853,0.43,1.145
		c0.256,0.293,0.637,0.439,1.142,0.439c0.416,0,0.769-0.042,1.059-0.127c0.291-0.085,0.591-0.214,0.9-0.388l0.502,1.145
		c-0.276,0.225-0.649,0.414-1.12,0.566C40.961,61.905,40.448,61.982,39.893,61.982z M39.771,56.269
		c-0.373,0-0.661,0.128-0.862,0.385c-0.202,0.256-0.324,0.597-0.366,1.021l0.013,0.032h2.265v-0.14c0-0.403-0.083-0.72-0.248-0.951
		C40.408,56.384,40.141,56.269,39.771,56.269z"/>
	<path fill="#FFF56C" d="M45.446,54.965l0.077,0.91c0.22-0.331,0.497-0.586,0.83-0.767s0.718-0.271,1.155-0.271
		c0.441,0,0.818,0.098,1.132,0.292c0.314,0.195,0.551,0.49,0.712,0.884c0.212-0.369,0.488-0.657,0.827-0.865
		c0.34-0.208,0.738-0.312,1.196-0.312c0.679,0,1.213,0.241,1.605,0.722s0.59,1.216,0.59,2.204v4.084h-1.857v-4.091
		c0-0.551-0.085-0.935-0.255-1.151s-0.422-0.324-0.757-0.324c-0.264,0-0.492,0.058-0.685,0.175s-0.347,0.279-0.461,0.487
		c0,0.081,0.002,0.149,0.006,0.207c0.004,0.057,0.006,0.116,0.006,0.175v4.523h-1.851v-4.091c0-0.539-0.085-0.919-0.254-1.142
		c-0.17-0.223-0.424-0.334-0.764-0.334c-0.25,0-0.47,0.047-0.659,0.143c-0.188,0.095-0.344,0.23-0.467,0.404v5.02h-1.852v-6.883
		H45.446z"/>
	<path fill="#FFF56C" d="M56.949,53.317h-1.857v-1.393h1.857V53.317z M56.949,61.848h-1.857v-6.883h1.857V61.848z"/>
	<path fill="#FFF56C" d="M62.694,60.831c-0.212,0.369-0.481,0.653-0.808,0.852c-0.327,0.2-0.707,0.299-1.14,0.299
		c-0.725,0-1.293-0.246-1.702-0.738c-0.409-0.492-0.613-1.255-0.613-2.29v-3.989h1.852v4.001c0,0.602,0.08,1.015,0.244,1.237
		c0.163,0.223,0.417,0.334,0.761,0.334c0.297,0,0.552-0.047,0.764-0.143c0.212-0.095,0.386-0.236,0.521-0.423v-5.007h1.857v6.883
		h-1.539L62.694,60.831z"/>
	<path fill="#FFF56C" d="M67.555,54.965l0.076,0.91c0.221-0.331,0.496-0.586,0.829-0.767s0.72-0.271,1.156-0.271
		c0.44,0,0.818,0.098,1.132,0.292c0.314,0.195,0.552,0.49,0.713,0.884c0.212-0.369,0.488-0.657,0.827-0.865
		c0.339-0.208,0.738-0.312,1.196-0.312c0.679,0,1.213,0.241,1.605,0.722c0.392,0.481,0.589,1.216,0.589,2.204v4.084h-1.857v-4.091
		c0-0.551-0.085-0.935-0.255-1.151c-0.169-0.216-0.422-0.324-0.757-0.324c-0.263,0-0.492,0.058-0.685,0.175
		c-0.193,0.117-0.346,0.279-0.461,0.487c0,0.081,0.003,0.149,0.007,0.207s0.007,0.116,0.007,0.175v4.523h-1.852v-4.091
		c0-0.539-0.085-0.919-0.255-1.142c-0.169-0.223-0.424-0.334-0.764-0.334c-0.25,0-0.471,0.047-0.659,0.143
		c-0.188,0.095-0.344,0.23-0.467,0.404v5.02h-1.851v-6.883H67.555z"/>
	<path fill="#FFF56C" d="M27.109,68.914v1.687h1.164v1.304h-1.164v3.506c0,0.267,0.056,0.458,0.168,0.572s0.26,0.172,0.442,0.172
		c0.098,0,0.183-0.007,0.255-0.017c0.072-0.011,0.155-0.028,0.248-0.054l0.152,1.343c-0.187,0.063-0.368,0.11-0.544,0.142
		c-0.176,0.032-0.368,0.049-0.576,0.049c-0.64,0-1.133-0.176-1.479-0.527c-0.346-0.353-0.519-0.91-0.519-1.674v-3.512h-1.005v-1.304
		h1.005v-1.687H27.109z"/>
	<path fill="#FFF56C" d="M29.132,73.979c0-1.026,0.286-1.868,0.859-2.523c0.572-0.655,1.366-0.982,2.379-0.982
		c1.018,0,1.815,0.327,2.392,0.98c0.577,0.652,0.865,1.495,0.865,2.525v0.134c0,1.034-0.288,1.877-0.862,2.527
		c-0.575,0.651-1.369,0.978-2.382,0.978c-1.018,0-1.814-0.326-2.389-0.978c-0.575-0.65-0.862-1.493-0.862-2.527V73.979z
		 M30.983,74.112c0,0.627,0.11,1.13,0.331,1.51s0.577,0.57,1.069,0.57c0.479,0,0.83-0.19,1.053-0.572s0.334-0.885,0.334-1.508
		v-0.134c0-0.611-0.112-1.109-0.337-1.495c-0.225-0.386-0.579-0.579-1.062-0.579c-0.479,0-0.831,0.193-1.053,0.581
		c-0.223,0.389-0.334,0.887-0.334,1.493V74.112z"/>
	<path fill="#FFF56C" d="M42.893,76.192c0.322,0,0.579-0.098,0.77-0.291c0.191-0.192,0.286-0.449,0.286-0.771h1.692l0.013,0.038
		c0.017,0.695-0.242,1.276-0.776,1.745c-0.534,0.469-1.196,0.704-1.985,0.704c-1.018,0-1.805-0.326-2.36-0.978
		c-0.555-0.65-0.833-1.482-0.833-2.496v-0.19c0-1.01,0.277-1.843,0.831-2.498c0.553-0.655,1.337-0.982,2.351-0.982
		c0.84,0,1.516,0.242,2.03,0.726c0.513,0.483,0.761,1.12,0.744,1.908l-0.013,0.038h-1.692c0-0.355-0.094-0.652-0.283-0.888
		c-0.188-0.235-0.451-0.353-0.786-0.353c-0.479,0-0.82,0.191-1.021,0.575c-0.202,0.384-0.302,0.875-0.302,1.474v0.19
		c0,0.611,0.101,1.105,0.302,1.482C42.061,76.004,42.405,76.192,42.893,76.192z"/>
	<path fill="#FFF56C" d="M50.356,72.197l-0.681-0.02c-0.275,0-0.502,0.058-0.681,0.172c-0.178,0.114-0.313,0.275-0.407,0.483v4.65
		h-1.851v-6.883h1.724l0.083,1.018c0.161-0.36,0.37-0.643,0.627-0.844c0.256-0.202,0.552-0.302,0.887-0.302
		c0.093,0,0.179,0.007,0.258,0.021s0.158,0.034,0.239,0.055L50.356,72.197z"/>
	<path fill="#FFF56C" d="M54.187,77.617c-1.026,0-1.828-0.315-2.405-0.945s-0.865-1.44-0.865-2.433v-0.255
		c0-1.03,0.28-1.874,0.84-2.531c0.56-0.658,1.33-0.984,2.31-0.98c0.925,0,1.633,0.282,2.127,0.849s0.742,1.329,0.742,2.288v0.961
		h-4.104l-0.019,0.038c0.029,0.471,0.171,0.853,0.428,1.145c0.257,0.293,0.639,0.439,1.144,0.439c0.415,0,0.768-0.042,1.058-0.127
		c0.291-0.085,0.592-0.215,0.901-0.389l0.503,1.146c-0.276,0.225-0.649,0.413-1.12,0.566C55.255,77.541,54.742,77.617,54.187,77.617
		z M54.065,71.904c-0.373,0-0.662,0.127-0.863,0.384s-0.322,0.598-0.364,1.022l0.013,0.031h2.265v-0.14
		c0-0.403-0.083-0.721-0.248-0.952C54.701,72.019,54.435,71.904,54.065,71.904z"/>
	<path fill="#FFF56C" d="M62.075,77.483c-0.068-0.156-0.128-0.322-0.176-0.496c-0.049-0.174-0.083-0.352-0.104-0.534
		c-0.19,0.335-0.443,0.613-0.757,0.833c-0.313,0.221-0.688,0.331-1.12,0.331c-0.721,0-1.276-0.187-1.666-0.558
		c-0.391-0.371-0.586-0.876-0.586-1.517c0-0.674,0.259-1.197,0.778-1.568c0.52-0.372,1.279-0.556,2.275-0.556h1.044v-0.548
		c0-0.33-0.087-0.587-0.262-0.77c-0.174-0.183-0.432-0.273-0.775-0.273c-0.302,0-0.535,0.072-0.698,0.219
		c-0.163,0.146-0.243,0.348-0.243,0.602h-1.788l-0.013-0.038c-0.029-0.581,0.223-1.083,0.759-1.506
		c0.537-0.422,1.239-0.632,2.104-0.632c0.827,0,1.495,0.208,2.007,0.624c0.511,0.415,0.768,1.012,0.768,1.787v2.844
		c0,0.322,0.023,0.626,0.072,0.91s0.127,0.566,0.233,0.846H62.075z M60.376,76.243c0.322,0,0.611-0.08,0.865-0.241
		c0.255-0.162,0.429-0.349,0.522-0.561v-0.974H60.72c-0.395,0-0.693,0.098-0.895,0.293c-0.202,0.195-0.302,0.435-0.302,0.719
		c0,0.233,0.074,0.418,0.226,0.556C59.899,76.173,60.109,76.243,60.376,76.243z"/>
	<path fill="#FFF56C" d="M67.241,68.914v1.687h1.164v1.304h-1.164v3.506c0,0.267,0.055,0.458,0.167,0.572s0.261,0.172,0.443,0.172
		c0.098,0,0.183-0.007,0.255-0.017c0.071-0.011,0.154-0.028,0.248-0.054l0.152,1.343c-0.187,0.063-0.369,0.11-0.545,0.142
		c-0.176,0.032-0.367,0.049-0.575,0.049c-0.64,0-1.134-0.176-1.479-0.527c-0.346-0.353-0.518-0.91-0.518-1.674v-3.512h-1.005v-1.304
		h1.005v-1.687H67.241z"/>
	<path fill="#FFF56C" d="M72.534,77.617c-1.026,0-1.828-0.315-2.405-0.945c-0.576-0.63-0.865-1.44-0.865-2.433v-0.255
		c0-1.03,0.28-1.874,0.84-2.531c0.561-0.658,1.33-0.984,2.31-0.98c0.925,0,1.633,0.282,2.127,0.849s0.742,1.329,0.742,2.288v0.961
		h-4.104l-0.019,0.038c0.029,0.471,0.172,0.853,0.428,1.145c0.257,0.293,0.639,0.439,1.144,0.439c0.415,0,0.768-0.042,1.058-0.127
		c0.291-0.085,0.592-0.215,0.901-0.389l0.503,1.146c-0.275,0.225-0.648,0.413-1.12,0.566C73.603,77.541,73.09,77.617,72.534,77.617z
		 M72.413,71.904c-0.373,0-0.661,0.127-0.863,0.384c-0.201,0.257-0.322,0.598-0.364,1.022l0.013,0.031h2.265v-0.14
		c0-0.403-0.083-0.721-0.248-0.952S72.782,71.904,72.413,71.904z"/>
	<path fill="#FFF56C" d="M17.891,86.235l0.076,0.91c0.221-0.331,0.498-0.588,0.831-0.768c0.333-0.181,0.718-0.27,1.155-0.27
		c0.441,0,0.818,0.098,1.132,0.293s0.551,0.489,0.712,0.884c0.212-0.369,0.488-0.657,0.827-0.865s0.738-0.312,1.196-0.312
		c0.679,0,1.214,0.24,1.606,0.721c0.393,0.481,0.588,1.218,0.588,2.206v4.084h-1.857v-4.091c0-0.551-0.085-0.935-0.254-1.151
		c-0.17-0.216-0.422-0.324-0.757-0.324c-0.263,0-0.491,0.058-0.684,0.174c-0.193,0.116-0.347,0.28-0.461,0.487
		c0,0.081,0.002,0.148,0.006,0.206s0.006,0.117,0.006,0.176v4.523h-1.851v-4.091c0-0.538-0.085-0.92-0.255-1.143
		c-0.169-0.223-0.424-0.333-0.763-0.333c-0.25,0-0.47,0.047-0.659,0.142c-0.188,0.096-0.344,0.231-0.467,0.405v5.02h-1.852v-6.884
		H17.891z"/>
	<path fill="#FFF56C" d="M27.154,89.614c0-1.026,0.286-1.868,0.859-2.523c0.572-0.655,1.366-0.982,2.379-0.982
		c1.018,0,1.815,0.327,2.392,0.979c0.577,0.653,0.865,1.495,0.865,2.526v0.133c0,1.035-0.288,1.877-0.862,2.528
		s-1.369,0.978-2.382,0.978c-1.018,0-1.814-0.326-2.389-0.978s-0.862-1.493-0.862-2.528V89.614z M29.005,89.747
		c0,0.628,0.11,1.131,0.331,1.511c0.221,0.379,0.577,0.57,1.069,0.57c0.479,0,0.83-0.191,1.053-0.573
		c0.223-0.381,0.334-0.884,0.334-1.508v-0.133c0-0.611-0.112-1.109-0.337-1.495c-0.225-0.386-0.579-0.579-1.062-0.579
		c-0.479,0-0.831,0.193-1.053,0.581s-0.334,0.887-0.334,1.493V89.747z"/>
	<path fill="#FFF56C" d="M38.415,87.833l-0.681-0.02c-0.275,0-0.502,0.058-0.681,0.172c-0.178,0.114-0.313,0.275-0.407,0.483v4.65
		h-1.851v-6.884h1.724l0.083,1.019c0.161-0.36,0.37-0.643,0.627-0.845c0.256-0.201,0.552-0.301,0.887-0.301
		c0.093,0,0.179,0.007,0.258,0.021s0.158,0.034,0.238,0.055L38.415,87.833z"/>
	<path fill="#FFF56C" d="M42.244,93.253c-1.026,0-1.828-0.316-2.405-0.945c-0.577-0.63-0.865-1.44-0.865-2.433V89.62
		c0-1.03,0.28-1.874,0.84-2.532c0.56-0.657,1.33-0.983,2.31-0.979c0.924,0,1.634,0.282,2.128,0.849s0.741,1.329,0.741,2.288v0.961
		h-4.104l-0.019,0.038c0.03,0.471,0.173,0.853,0.429,1.145c0.257,0.293,0.637,0.439,1.142,0.439c0.416,0,0.769-0.043,1.06-0.128
		c0.29-0.084,0.59-0.214,0.9-0.388l0.502,1.146c-0.275,0.225-0.648,0.413-1.12,0.566C43.313,93.177,42.8,93.253,42.244,93.253z
		 M42.124,87.54c-0.374,0-0.661,0.127-0.862,0.384c-0.201,0.257-0.323,0.598-0.366,1.022l0.013,0.031h2.265v-0.14
		c0-0.403-0.083-0.721-0.248-0.952C42.76,87.654,42.492,87.54,42.124,87.54z"/>
	<path fill="#FFF56C" d="M55.528,89.868c0,1.026-0.229,1.848-0.687,2.462c-0.458,0.615-1.12,0.923-1.985,0.923
		c-0.403,0-0.755-0.085-1.054-0.255c-0.299-0.169-0.552-0.417-0.76-0.744l-0.152,0.865h-1.572v-9.925h1.852v3.773
		c0.199-0.276,0.437-0.488,0.714-0.637c0.278-0.148,0.599-0.223,0.959-0.223c0.874,0,1.54,0.329,1.998,0.988s0.687,1.54,0.687,2.638
		V89.868z M53.677,89.734c0-0.67-0.1-1.202-0.297-1.595c-0.196-0.392-0.532-0.587-1.007-0.587c-0.288,0-0.532,0.06-0.731,0.181
		c-0.199,0.12-0.356,0.294-0.471,0.52v2.913c0.114,0.208,0.271,0.367,0.473,0.478s0.449,0.165,0.742,0.165
		c0.479,0,0.814-0.169,1.005-0.507c0.191-0.337,0.286-0.814,0.286-1.434V89.734z"/>
	<path fill="#FFF56C" d="M56.388,89.614c0-1.026,0.286-1.868,0.858-2.523s1.366-0.982,2.38-0.982c1.018,0,1.815,0.327,2.392,0.979
		c0.577,0.653,0.865,1.495,0.865,2.526v0.133c0,1.035-0.288,1.877-0.863,2.528c-0.574,0.651-1.367,0.978-2.381,0.978
		c-1.019,0-1.815-0.326-2.391-0.978c-0.574-0.651-0.86-1.493-0.86-2.528V89.614z M58.238,89.747c0,0.628,0.11,1.131,0.331,1.511
		c0.221,0.379,0.577,0.57,1.069,0.57c0.479,0,0.829-0.191,1.052-0.573c0.223-0.381,0.335-0.884,0.335-1.508v-0.133
		c0-0.611-0.112-1.109-0.337-1.495c-0.226-0.386-0.579-0.579-1.062-0.579c-0.479,0-0.832,0.193-1.055,0.581
		s-0.333,0.887-0.333,1.493V89.747z"/>
	<path fill="#FFF56C" d="M63.742,89.614c0-1.026,0.286-1.868,0.858-2.523s1.366-0.982,2.38-0.982c1.018,0,1.814,0.327,2.392,0.979
		c0.577,0.653,0.865,1.495,0.865,2.526v0.133c0,1.035-0.288,1.877-0.863,2.528c-0.574,0.651-1.367,0.978-2.381,0.978
		c-1.019,0-1.815-0.326-2.391-0.978c-0.574-0.651-0.86-1.493-0.86-2.528V89.614z M65.593,89.747c0,0.628,0.11,1.131,0.331,1.511
		c0.221,0.379,0.577,0.57,1.069,0.57c0.479,0,0.829-0.191,1.052-0.573c0.223-0.381,0.335-0.884,0.335-1.508v-0.133
		c0-0.611-0.112-1.109-0.337-1.495c-0.226-0.386-0.579-0.579-1.062-0.579c-0.479,0-0.832,0.193-1.055,0.581
		s-0.333,0.887-0.333,1.493V89.747z"/>
	<path fill="#FFF56C" d="M73.711,90.237H73.24v2.882h-1.857v-9.925h1.857v5.631h0.413l1.648-2.59h2.15l-2.239,3.137l2.544,3.747
		h-2.138L73.711,90.237z"/>
	<path fill="#FFF56C" d="M82.083,91.211c0-0.204-0.1-0.38-0.297-0.526s-0.562-0.273-1.096-0.384
		c-0.807-0.161-1.419-0.405-1.837-0.731s-0.626-0.77-0.626-1.33c0-0.589,0.251-1.092,0.751-1.507
		c0.501-0.416,1.167-0.624,1.998-0.624c0.869,0,1.564,0.208,2.089,0.624c0.523,0.415,0.776,0.933,0.755,1.552l-0.013,0.038h-1.794
		c0-0.275-0.09-0.5-0.268-0.674s-0.435-0.261-0.77-0.261c-0.297,0-0.532,0.074-0.706,0.223s-0.261,0.33-0.261,0.547
		c0,0.212,0.089,0.384,0.269,0.518c0.181,0.133,0.548,0.254,1.099,0.36c0.844,0.17,1.472,0.418,1.886,0.746
		c0.413,0.329,0.621,0.783,0.621,1.359c0,0.619-0.265,1.126-0.795,1.521s-1.23,0.592-2.1,0.592c-0.916,0-1.642-0.233-2.174-0.697
		c-0.532-0.465-0.784-0.993-0.759-1.587l0.013-0.038h1.698c0.013,0.369,0.134,0.637,0.362,0.802
		c0.229,0.165,0.528,0.248,0.897,0.248c0.344,0,0.604-0.07,0.784-0.208C81.992,91.635,82.083,91.448,82.083,91.211z"/>
</g>
</svg>
