<?xml version="1.0" encoding="utf-8"?>
<!-- Generator: Adobe Illustrator 16.0.0, SVG Export Plug-In . SVG Version: 6.00 Build 0)  -->
<!DOCTYPE svg PUBLIC "-//W3C//DTD SVG 1.1//EN" "http://www.w3.org/Graphics/SVG/1.1/DTD/svg11.dtd">
<svg version="1.1" id="Layer_1" xmlns="http://www.w3.org/2000/svg" xmlns:xlink="http://www.w3.org/1999/xlink" x="0px" y="0px"
	 width="100px" height="129.541px" viewBox="0 0 100 129.541" enable-background="new 0 0 100 129.541" xml:space="preserve">
<polygon fill="#F2D32C" points="1.5,3.271 1.5,112.791 16.945,127.271 98.5,127.271 98.5,17.271 91.312,17.271 91.32,10.271 
	82.5,10.271 82.5,3.271 "/>
<g>
	<path fill="#FFF56C" d="M92.525,14.699v-7.34h-7.463V0H0.05v114.842h0.01l14.918,14.699H100V14.699H92.525z M95.107,124.647H17.833
		l-12.89-12.752V4.894H80.17v7.368h7.462v7.34h7.476V124.647L95.107,124.647z"/>
</g>
<g>
	<path fill="#FFF56C" d="M19.34,36.749v6.049c0,1.041-0.345,1.855-1.035,2.444s-1.585,0.882-2.685,0.882
		c-1.096,0-1.986-0.293-2.669-0.882c-0.684-0.589-1.025-1.403-1.025-2.444v-6.049h1.86v6.049c0,0.618,0.165,1.09,0.495,1.416
		s0.776,0.488,1.339,0.488c0.571,0,1.024-0.162,1.358-0.488s0.501-0.798,0.501-1.416v-6.049H19.34z"/>
	<path fill="#FFF56C" d="M22.8,42.64v3.352h-1.854v-9.242h3.536c1.062,0,1.898,0.271,2.507,0.812s0.914,1.255,0.914,2.139
		c0,0.885-0.305,1.596-0.914,2.133c-0.609,0.538-1.445,0.807-2.507,0.807H22.8z M22.8,41.212h1.682c0.516,0,0.908-0.141,1.174-0.423
		c0.267-0.281,0.4-0.64,0.4-1.075c0-0.445-0.132-0.812-0.397-1.102c-0.264-0.29-0.657-0.436-1.177-0.436H22.8V41.212z"/>
	<path fill="#FFF56C" d="M36.314,44.728c-0.288,0.377-0.717,0.704-1.289,0.981c-0.571,0.276-1.308,0.415-2.209,0.415
		c-1.117,0-2.031-0.351-2.742-1.053c-0.711-0.703-1.066-1.615-1.066-2.736v-1.93c0-1.117,0.345-2.028,1.035-2.732
		c0.69-0.705,1.576-1.057,2.66-1.057c1.13,0,1.995,0.268,2.596,0.803s0.891,1.249,0.87,2.143l-0.013,0.037H34.41
		c0-0.49-0.142-0.872-0.425-1.146c-0.284-0.272-0.696-0.409-1.238-0.409c-0.567,0-1.024,0.219-1.371,0.657
		c-0.347,0.438-0.521,1.001-0.521,1.691v1.942c0,0.698,0.178,1.268,0.533,1.707c0.355,0.44,0.832,0.66,1.428,0.66
		c0.44,0,0.788-0.044,1.044-0.133c0.256-0.089,0.454-0.201,0.593-0.336v-1.791h-1.777v-1.281h3.637V44.728z"/>
	<path fill="#FFF56C" d="M39.742,42.297v3.694h-1.854v-9.242h3.199c1.054,0,1.878,0.24,2.473,0.721
		c0.594,0.48,0.892,1.15,0.892,2.009c0,0.474-0.126,0.884-0.378,1.229c-0.251,0.345-0.619,0.623-1.101,0.835
		c0.546,0.16,0.938,0.43,1.177,0.806c0.239,0.376,0.359,0.843,0.359,1.396v0.679c0,0.259,0.035,0.528,0.105,0.81
		c0.069,0.282,0.189,0.49,0.358,0.626v0.133h-1.911c-0.169-0.135-0.278-0.359-0.327-0.673c-0.049-0.313-0.073-0.616-0.073-0.907
		v-0.654c0-0.461-0.126-0.82-0.378-1.076c-0.251-0.256-0.608-0.384-1.069-0.384H39.742z M39.742,40.868h1.314
		c0.521,0,0.908-0.109,1.162-0.33c0.254-0.22,0.381-0.545,0.381-0.977c0-0.424-0.128-0.76-0.384-1.01
		c-0.256-0.25-0.632-0.375-1.127-0.375h-1.346V40.868z"/>
	<path fill="#FFF56C" d="M50.99,43.998h-2.997l-0.622,1.993h-1.936l3.117-9.242h1.898l3.104,9.242h-1.937L50.99,43.998z
		 M48.451,42.544h2.088l-1.022-3.256h-0.038L48.451,42.544z"/>
	<path fill="#FFF56C" d="M54.443,45.991v-9.242h3.225c1.129,0,2.061,0.361,2.793,1.082c0.731,0.722,1.098,1.647,1.098,2.777v1.529
		c0,1.135-0.366,2.061-1.098,2.777c-0.732,0.718-1.664,1.076-2.793,1.076H54.443z M56.297,38.177v6.393h1.371
		c0.609,0,1.1-0.228,1.473-0.683c0.372-0.454,0.559-1.038,0.559-1.749v-1.542c0-0.706-0.187-1.286-0.559-1.739
		c-0.373-0.453-0.863-0.68-1.473-0.68H56.297z"/>
	<path fill="#FFF56C" d="M68.325,41.929h-3.428v2.641h4.075v1.422h-5.929v-9.242h5.916v1.428h-4.062v2.324h3.428V41.929z"/>
	<path fill="#FFF56C" d="M79.954,38.177h-2.641v7.814H75.46v-7.814h-2.603v-1.428h7.097V38.177z"/>
	<path fill="#FFF56C" d="M88.27,42.202c0,1.138-0.357,2.076-1.072,2.814c-0.716,0.738-1.646,1.107-2.793,1.107
		c-1.143,0-2.07-0.369-2.781-1.11s-1.066-1.678-1.066-2.812v-1.664c0-1.129,0.355-2.065,1.063-2.809
		c0.709-0.742,1.633-1.113,2.771-1.113c1.147,0,2.08,0.371,2.8,1.113c0.72,0.743,1.079,1.68,1.079,2.809V42.202z M86.422,40.526
		c0-0.72-0.18-1.311-0.539-1.771s-0.857-0.691-1.492-0.691c-0.626,0-1.113,0.23-1.463,0.691c-0.349,0.461-0.523,1.052-0.523,1.771
		v1.676c0,0.731,0.176,1.328,0.527,1.789c0.351,0.462,0.842,0.692,1.473,0.692c0.635,0,1.129-0.23,1.484-0.692
		c0.355-0.461,0.533-1.058,0.533-1.789V40.526z"/>
	<path fill="#FFF56C" d="M23.146,58.239v3.352h-1.854v-9.242h3.536c1.062,0,1.898,0.271,2.507,0.812
		c0.609,0.542,0.914,1.256,0.914,2.14s-0.305,1.595-0.914,2.133s-1.445,0.806-2.507,0.806H23.146z M23.146,56.812h1.682
		c0.516,0,0.908-0.141,1.174-0.422s0.4-0.641,0.4-1.076c0-0.444-0.132-0.812-0.397-1.102c-0.264-0.289-0.657-0.435-1.177-0.435
		h-1.682V56.812z"/>
	<path fill="#FFF56C" d="M31.43,57.897v3.693h-1.854v-9.242h3.199c1.054,0,1.878,0.24,2.473,0.721c0.594,0.48,0.892,1.15,0.892,2.01
		c0,0.474-0.126,0.883-0.378,1.229c-0.251,0.344-0.619,0.623-1.101,0.834c0.546,0.16,0.938,0.43,1.177,0.807
		c0.239,0.376,0.359,0.842,0.359,1.396v0.679c0,0.259,0.035,0.528,0.105,0.81c0.069,0.281,0.189,0.49,0.358,0.625v0.133H34.75
		c-0.169-0.135-0.278-0.359-0.327-0.672c-0.049-0.313-0.073-0.616-0.073-0.908v-0.654c0-0.461-0.126-0.819-0.378-1.076
		c-0.251-0.256-0.608-0.383-1.069-0.383H31.43z M31.43,56.469h1.314c0.521,0,0.908-0.11,1.162-0.33s0.381-0.546,0.381-0.978
		c0-0.424-0.128-0.76-0.384-1.01c-0.256-0.249-0.632-0.374-1.127-0.374H31.43V56.469z"/>
	<path fill="#FFF56C" d="M43.141,57.528h-3.428v2.641h4.075v1.422H37.86v-9.242h5.916v1.429h-4.062v2.323h3.428V57.528z"/>
	<path fill="#FFF56C" d="M49.87,59.16h0.038l2.374-6.812H54.7v9.242h-1.854v-6.309l-0.038-0.007l-2.285,6.315h-1.257l-2.285-6.328
		l-0.038,0.006v6.322H45.09v-9.242h2.431L49.87,59.16z"/>
	<path fill="#FFF56C" d="M58.382,61.591h-1.854v-9.242h1.854V61.591z"/>
	<path fill="#FFF56C" d="M67.541,52.349v6.05c0,1.041-0.344,1.855-1.034,2.444c-0.69,0.588-1.585,0.882-2.685,0.882
		c-1.097,0-1.986-0.294-2.67-0.882c-0.684-0.589-1.025-1.403-1.025-2.444v-6.05h1.86v6.05c0,0.618,0.165,1.09,0.495,1.415
		c0.33,0.326,0.776,0.489,1.34,0.489c0.57,0,1.023-0.163,1.357-0.489c0.335-0.325,0.502-0.797,0.502-1.415v-6.05H67.541z"/>
	<path fill="#FFF56C" d="M73.928,59.16h0.037l2.375-6.812h2.418v9.242h-1.854v-6.309l-0.038-0.007l-2.285,6.315h-1.257l-2.285-6.328
		l-0.038,0.006v6.322h-1.854v-9.242h2.431L73.928,59.16z"/>
	<path fill="#FFF56C" d="M29.982,69.378h-2.641v7.814h-1.854v-7.814h-2.603V67.95h7.097V69.378z"/>
	<path fill="#FFF56C" d="M38.298,73.401c0,1.139-0.357,2.078-1.073,2.816s-1.646,1.107-2.793,1.107c-1.143,0-2.069-0.371-2.78-1.111
		s-1.066-1.678-1.066-2.812v-1.662c0-1.131,0.354-2.066,1.063-2.809c0.709-0.742,1.633-1.115,2.771-1.115
		c1.147,0,2.08,0.373,2.799,1.115s1.079,1.678,1.079,2.809V73.401z M36.451,71.726c0-0.719-0.18-1.309-0.54-1.77
		c-0.36-0.463-0.857-0.693-1.492-0.693c-0.626,0-1.114,0.23-1.463,0.693c-0.349,0.461-0.523,1.051-0.523,1.77v1.676
		c0,0.732,0.176,1.33,0.527,1.791s0.842,0.691,1.473,0.691c0.635,0,1.13-0.23,1.485-0.691s0.533-1.059,0.533-1.791V71.726z"/>
	<path fill="#FFF56C" d="M47.781,74.761h0.038l2.374-6.811h2.418v9.242h-1.854v-6.311l-0.037-0.006l-2.286,6.316h-1.257l-2.285-6.33
		l-0.038,0.008v6.322h-1.854V67.95h2.431L47.781,74.761z"/>
	<path fill="#FFF56C" d="M59.245,75.198h-2.996l-0.622,1.994h-1.936l3.116-9.242h1.897l3.104,9.242h-1.937L59.245,75.198z
		 M56.706,73.745h2.089l-1.022-3.256h-0.038L56.706,73.745z"/>
	<path fill="#FFF56C" d="M65.23,73.333h-0.679v3.859h-1.854V67.95h1.854v3.775h0.521l2.533-3.775h2.291l-3.199,4.297l3.447,4.945
		h-2.361L65.23,73.333z"/>
	<path fill="#FFF56C" d="M76.264,73.13h-3.428v2.641h4.074v1.422h-5.928V67.95h5.916v1.428h-4.062V71.7h3.428V73.13z"/>
	<path fill="#FFF56C" d="M14.906,90.36h0.038l2.374-6.811h2.418v9.242h-1.854v-6.311l-0.038-0.006l-2.285,6.316h-1.257l-2.285-6.33
		L11.98,86.47v6.322h-1.854V83.55h2.431L14.906,90.36z"/>
	<path fill="#FFF56C" d="M28.916,89.003c0,1.137-0.357,2.076-1.073,2.814s-1.646,1.107-2.793,1.107c-1.143,0-2.069-0.371-2.78-1.111
		s-1.066-1.678-1.066-2.811v-1.664c0-1.131,0.354-2.066,1.063-2.809c0.709-0.742,1.633-1.115,2.771-1.115
		c1.147,0,2.08,0.373,2.799,1.115s1.079,1.678,1.079,2.809V89.003z M27.068,87.325c0-0.719-0.18-1.309-0.54-1.77
		c-0.36-0.463-0.857-0.693-1.492-0.693c-0.626,0-1.114,0.23-1.463,0.693c-0.349,0.461-0.523,1.051-0.523,1.77v1.678
		c0,0.73,0.176,1.328,0.527,1.789s0.842,0.691,1.473,0.691c0.635,0,1.13-0.23,1.485-0.691s0.533-1.059,0.533-1.789V87.325z"/>
	<path fill="#FFF56C" d="M32.235,89.097v3.695h-1.854V83.55h3.199c1.054,0,1.878,0.24,2.473,0.721
		c0.594,0.479,0.892,1.148,0.892,2.008c0,0.475-0.126,0.883-0.378,1.229c-0.251,0.346-0.619,0.623-1.101,0.836
		c0.546,0.16,0.938,0.428,1.177,0.805c0.239,0.377,0.359,0.842,0.359,1.396v0.68c0,0.258,0.035,0.527,0.105,0.809
		c0.069,0.281,0.189,0.49,0.358,0.627v0.133h-1.911c-0.169-0.137-0.278-0.359-0.327-0.674c-0.049-0.312-0.073-0.615-0.073-0.906
		v-0.654c0-0.461-0.126-0.82-0.378-1.076c-0.251-0.256-0.608-0.385-1.069-0.385H32.235z M32.235,87.669h1.314
		c0.521,0,0.908-0.109,1.162-0.33s0.381-0.547,0.381-0.979c0-0.422-0.128-0.76-0.384-1.008c-0.256-0.25-0.632-0.375-1.127-0.375
		h-1.346V87.669z"/>
	<path fill="#FFF56C" d="M43.947,88.729h-3.428v2.641h4.075v1.422h-5.929V83.55h5.916v1.428h-4.062V87.3h3.428V88.729z"/>
	<path fill="#FFF56C" d="M49.133,92.792V83.55h3.027c1.088,0,1.937,0.213,2.546,0.637c0.609,0.426,0.914,1.057,0.914,1.895
		c0,0.424-0.11,0.803-0.33,1.137s-0.542,0.586-0.965,0.756c0.575,0.105,1.009,0.355,1.302,0.75c0.291,0.393,0.438,0.852,0.438,1.377
		c0,0.885-0.292,1.553-0.876,2.008s-1.411,0.684-2.481,0.684H49.133z M50.986,87.421h1.238c0.494,0,0.875-0.102,1.143-0.305
		c0.266-0.203,0.399-0.5,0.399-0.889c0-0.428-0.134-0.742-0.403-0.945c-0.269-0.203-0.67-0.305-1.203-0.305h-1.174V87.421z
		 M50.986,88.704v2.666h1.721c0.49,0,0.865-0.107,1.123-0.32c0.258-0.215,0.387-0.531,0.387-0.949c0-0.449-0.127-0.793-0.381-1.035
		c-0.254-0.24-0.637-0.361-1.148-0.361H50.986z"/>
	<path fill="#FFF56C" d="M64.895,89.003c0,1.137-0.357,2.076-1.073,2.814s-1.646,1.107-2.793,1.107c-1.143,0-2.069-0.371-2.78-1.111
		s-1.066-1.678-1.066-2.811v-1.664c0-1.131,0.354-2.066,1.062-2.809c0.709-0.742,1.633-1.115,2.771-1.115
		c1.146,0,2.08,0.373,2.799,1.115c0.72,0.742,1.08,1.678,1.08,2.809V89.003z M63.047,87.325c0-0.719-0.18-1.309-0.539-1.77
		c-0.36-0.463-0.857-0.693-1.492-0.693c-0.627,0-1.113,0.23-1.463,0.693c-0.35,0.461-0.523,1.051-0.523,1.77v1.678
		c0,0.73,0.176,1.328,0.526,1.789s0.843,0.691,1.473,0.691c0.635,0,1.13-0.23,1.485-0.691s0.533-1.059,0.533-1.789V87.325z"/>
	<path fill="#FFF56C" d="M73.838,89.003c0,1.137-0.357,2.076-1.072,2.814c-0.716,0.738-1.646,1.107-2.793,1.107
		c-1.143,0-2.07-0.371-2.781-1.111s-1.066-1.678-1.066-2.811v-1.664c0-1.131,0.355-2.066,1.063-2.809
		c0.709-0.742,1.633-1.115,2.771-1.115c1.147,0,2.08,0.373,2.8,1.115s1.079,1.678,1.079,2.809V89.003z M71.99,87.325
		c0-0.719-0.18-1.309-0.539-1.77c-0.359-0.463-0.857-0.693-1.492-0.693c-0.626,0-1.113,0.23-1.463,0.693
		c-0.349,0.461-0.523,1.051-0.523,1.77v1.678c0,0.73,0.176,1.328,0.527,1.789c0.351,0.461,0.842,0.691,1.473,0.691
		c0.635,0,1.129-0.23,1.484-0.691s0.533-1.059,0.533-1.789V87.325z"/>
	<path fill="#FFF56C" d="M77.837,88.933h-0.679v3.859h-1.854V83.55h1.854v3.775h0.52l2.533-3.775h2.291l-3.199,4.297l3.447,4.945
		h-2.361L77.837,88.933z"/>
	<path fill="#FFF56C" d="M88.406,90.38c0-0.355-0.124-0.641-0.372-0.857c-0.247-0.215-0.683-0.418-1.304-0.609
		c-1.066-0.322-1.876-0.701-2.429-1.137c-0.552-0.436-0.828-1.029-0.828-1.783c0-0.758,0.312-1.377,0.933-1.857
		c0.623-0.48,1.416-0.721,2.381-0.721c1.023,0,1.848,0.26,2.473,0.775c0.624,0.516,0.926,1.193,0.904,2.031l-0.013,0.037h-1.796
		c0-0.461-0.141-0.814-0.42-1.062s-0.67-0.371-1.174-0.371c-0.457,0-0.811,0.109-1.061,0.33c-0.249,0.221-0.374,0.502-0.374,0.844
		c0,0.312,0.136,0.57,0.406,0.771s0.738,0.414,1.403,0.639c1.016,0.287,1.789,0.662,2.322,1.127c0.533,0.463,0.801,1.072,0.801,1.83
		c0,0.791-0.31,1.416-0.928,1.873c-0.617,0.457-1.434,0.686-2.449,0.686c-0.995,0-1.849-0.248-2.562-0.742
		c-0.714-0.496-1.06-1.234-1.038-2.215l0.013-0.039h1.796c0,0.547,0.161,0.947,0.482,1.207c0.322,0.258,0.758,0.387,1.309,0.387
		c0.494,0,0.872-0.104,1.133-0.311C88.275,91.003,88.406,90.726,88.406,90.38z"/>
</g>
</svg>
