<?xml version="1.0" encoding="utf-8"?>
<!-- Generator: Adobe Illustrator 16.0.0, SVG Export Plug-In . SVG Version: 6.00 Build 0)  -->
<!DOCTYPE svg PUBLIC "-//W3C//DTD SVG 1.1//EN" "http://www.w3.org/Graphics/SVG/1.1/DTD/svg11.dtd">
<svg version="1.1" id="Layer_1" xmlns="http://www.w3.org/2000/svg" xmlns:xlink="http://www.w3.org/1999/xlink" x="0px" y="0px"
	 width="100px" height="129.541px" viewBox="0 0 100 129.541" enable-background="new 0 0 100 129.541" xml:space="preserve">
<polygon fill="#F2D32C" points="1.5,3.271 1.5,112.791 16.945,127.271 98.5,127.271 98.5,17.271 91.312,17.271 91.32,10.271 
	82.5,10.271 82.5,3.271 "/>
<g>
	<path fill="#FFF56C" d="M92.525,14.699v-7.34h-7.463V0H0.05v114.842h0.01l14.918,14.699H100V14.699H92.525z M95.107,124.647H17.833
		l-12.89-12.752V4.894H80.17v7.368h7.462v7.34h7.476V124.647L95.107,124.647z"/>
</g>
<g>
	<path fill="#FFF56C" d="M20.951,50.17v7.264c0,1.25-0.415,2.229-1.243,2.934c-0.828,0.707-1.902,1.059-3.224,1.059
		c-1.317,0-2.384-0.353-3.205-1.059c-0.821-0.706-1.232-1.685-1.232-2.934V50.17h2.233v7.264c0,0.741,0.199,1.308,0.594,1.699
		c0.396,0.392,0.933,0.587,1.609,0.587c0.685,0,1.229-0.196,1.63-0.587c0.401-0.391,0.602-0.958,0.602-1.699V50.17H20.951z"/>
	<path fill="#FFF56C" d="M30.149,57.373c0,1.22-0.281,2.2-0.845,2.943c-0.564,0.743-1.352,1.113-2.363,1.113
		c-0.433,0-0.816-0.079-1.151-0.24c-0.336-0.161-0.623-0.396-0.862-0.705v3.956H22.71V53.023h2.005l0.129,0.975
		c0.245-0.361,0.536-0.64,0.88-0.834c0.343-0.196,0.743-0.294,1.2-0.294c1.022,0,1.814,0.399,2.379,1.197
		c0.564,0.798,0.845,1.848,0.845,3.147V57.373z M27.923,57.214c0-0.777-0.129-1.408-0.388-1.891
		c-0.259-0.482-0.656-0.724-1.19-0.724c-0.335,0-0.621,0.068-0.856,0.206c-0.236,0.137-0.424,0.333-0.561,0.587v3.613
		c0.137,0.233,0.325,0.412,0.561,0.533c0.236,0.122,0.527,0.183,0.874,0.183c0.538,0,0.933-0.21,1.185-0.632
		s0.376-0.994,0.376-1.715V57.214z"/>
	<path fill="#FFF56C" d="M31.194,57.214c0-1.301,0.282-2.349,0.846-3.147c0.564-0.798,1.358-1.197,2.378-1.197
		c0.463,0,0.87,0.104,1.22,0.312c0.351,0.209,0.651,0.505,0.9,0.892l0.175-1.052h1.914v8.209c0,1.072-0.351,1.901-1.052,2.488
		s-1.68,0.88-2.936,0.88c-0.417,0-0.859-0.057-1.326-0.171c-0.468-0.114-0.899-0.271-1.296-0.469l0.374-1.662
		c0.341,0.163,0.693,0.286,1.056,0.37c0.363,0.084,0.756,0.126,1.178,0.126c0.609,0,1.058-0.127,1.345-0.381s0.43-0.65,0.43-1.19
		v-0.747c-0.245,0.311-0.531,0.546-0.862,0.708c-0.331,0.163-0.709,0.245-1.135,0.245c-1.012,0-1.798-0.372-2.363-1.113
		c-0.564-0.742-0.846-1.723-0.846-2.943L31.194,57.214L31.194,57.214z M33.42,57.373c0,0.722,0.121,1.29,0.362,1.704
		c0.241,0.415,0.636,0.622,1.185,0.622c0.34,0,0.628-0.062,0.865-0.187c0.236-0.125,0.425-0.306,0.568-0.545v-3.575
		c-0.143-0.254-0.332-0.449-0.568-0.587c-0.236-0.137-0.52-0.206-0.85-0.206c-0.544,0-0.94,0.243-1.19,0.724
		c-0.249,0.481-0.374,1.113-0.374,1.891L33.42,57.373L33.42,57.373z"/>
	<path fill="#FFF56C" d="M44.671,54.934l-0.815-0.022c-0.331,0-0.603,0.069-0.816,0.206c-0.214,0.138-0.376,0.331-0.488,0.579v5.572
		h-2.219v-8.246h2.066l0.099,1.22c0.193-0.433,0.443-0.77,0.751-1.011c0.307-0.24,0.662-0.361,1.063-0.361
		c0.111,0,0.214,0.009,0.309,0.026s0.189,0.039,0.287,0.064L44.671,54.934z"/>
	<path fill="#FFF56C" d="M50.691,61.268c-0.078-0.188-0.152-0.385-0.208-0.595c-0.059-0.208-0.1-0.421-0.125-0.64
		c-0.229,0.401-0.531,0.734-0.907,0.998c-0.376,0.263-0.823,0.396-1.342,0.396c-0.864,0-1.529-0.223-1.998-0.667
		c-0.467-0.444-0.701-1.05-0.701-1.817c0-0.808,0.311-1.434,0.933-1.878c0.622-0.445,1.53-0.667,2.724-0.667h1.25v-0.655
		c0-0.397-0.104-0.703-0.312-0.923c-0.208-0.219-0.519-0.327-0.93-0.327c-0.361,0-0.64,0.087-0.835,0.262s-0.293,0.416-0.293,0.72
		h-2.142l-0.016-0.045c-0.036-0.696,0.269-1.298,0.91-1.802c0.643-0.504,1.482-0.758,2.52-0.758c0.991,0,1.792,0.249,2.404,0.748
		c0.613,0.499,0.922,1.212,0.922,2.142v3.407c0,0.386,0.025,0.749,0.084,1.091c0.059,0.341,0.152,0.678,0.281,1.013h-2.219V61.268z
		 M48.657,59.783c0.386,0,0.732-0.097,1.036-0.29c0.305-0.193,0.513-0.417,0.625-0.671v-1.166h-1.249
		c-0.473,0-0.829,0.117-1.071,0.35c-0.242,0.233-0.362,0.521-0.362,0.861c0,0.279,0.09,0.502,0.271,0.667
		C48.087,59.7,48.337,59.783,48.657,59.783z"/>
	<path fill="#FFF56C" d="M53.873,57.214c0-1.301,0.277-2.349,0.84-3.147c0.561-0.798,1.354-1.197,2.375-1.197
		c0.412,0,0.783,0.088,1.113,0.267c0.332,0.179,0.621,0.433,0.871,0.763v-4.52h2.232v11.891h-1.898l-0.191-1.013
		c-0.258,0.381-0.566,0.672-0.922,0.874s-0.764,0.301-1.219,0.301c-1.012,0-1.801-0.372-2.363-1.113
		c-0.561-0.742-0.838-1.723-0.838-2.943V57.214L53.873,57.214z M56.09,57.373c0,0.722,0.123,1.29,0.365,1.704
		c0.246,0.415,0.641,0.622,1.189,0.622c0.32,0,0.6-0.064,0.84-0.195c0.236-0.13,0.434-0.319,0.586-0.568v-3.514
		c-0.152-0.258-0.35-0.461-0.584-0.606c-0.236-0.145-0.512-0.217-0.826-0.217c-0.543,0-0.941,0.243-1.193,0.724
		s-0.377,1.113-0.377,1.891V57.373L56.09,57.373z"/>
	<path fill="#FFF56C" d="M66.602,61.429c-1.229,0-2.189-0.377-2.879-1.133c-0.691-0.753-1.037-1.726-1.037-2.915v-0.304
		c0-1.235,0.334-2.247,1.004-3.033c0.674-0.788,1.594-1.179,2.768-1.174c1.109,0,1.957,0.339,2.549,1.019
		c0.592,0.678,0.889,1.592,0.889,2.74v1.15h-4.916l-0.023,0.046c0.035,0.564,0.205,1.022,0.516,1.373
		c0.307,0.35,0.764,0.526,1.367,0.526c0.5,0,0.92-0.05,1.27-0.152c0.348-0.102,0.709-0.256,1.08-0.464l0.602,1.373
		c-0.33,0.269-0.775,0.496-1.34,0.678C67.883,61.338,67.268,61.429,66.602,61.429z M66.457,54.584c-0.447,0-0.793,0.154-1.033,0.461
		c-0.242,0.308-0.387,0.715-0.438,1.223l0.016,0.038h2.715v-0.167c0-0.483-0.1-0.863-0.297-1.14
		C67.219,54.723,66.9,54.584,66.457,54.584z"/>
	<path fill="#FFF56C" d="M77.746,51.001v2.021h1.395v1.562h-1.395v4.2c0,0.32,0.066,0.549,0.199,0.686
		c0.135,0.137,0.312,0.206,0.531,0.206c0.117,0,0.219-0.006,0.305-0.019c0.086-0.014,0.186-0.035,0.299-0.065l0.182,1.608
		c-0.225,0.077-0.443,0.133-0.654,0.172c-0.211,0.039-0.439,0.057-0.688,0.057c-0.768,0-1.359-0.211-1.771-0.633
		c-0.414-0.422-0.621-1.09-0.621-2.004v-4.208H74.32v-1.562h1.207v-2.021H77.746z"/>
	<path fill="#FFF56C" d="M80.17,57.069c0-1.229,0.342-2.238,1.029-3.023c0.684-0.785,1.635-1.177,2.85-1.177
		c1.221,0,2.176,0.391,2.867,1.174c0.689,0.782,1.037,1.791,1.037,3.026v0.159c0,1.24-0.348,2.25-1.033,3.03
		c-0.691,0.78-1.641,1.171-2.855,1.171c-1.219,0-2.174-0.39-2.863-1.171c-0.689-0.78-1.031-1.79-1.031-3.03V57.069L80.17,57.069z
		 M82.387,57.228c0,0.752,0.133,1.355,0.398,1.811c0.264,0.454,0.689,0.682,1.277,0.682c0.574,0,0.994-0.229,1.26-0.686
		c0.27-0.458,0.404-1.06,0.404-1.807v-0.159c0-0.732-0.135-1.329-0.406-1.792c-0.268-0.462-0.691-0.694-1.271-0.694
		c-0.574,0-0.996,0.233-1.262,0.697c-0.268,0.465-0.4,1.061-0.4,1.788V57.228z"/>
	<path fill="#FFF56C" d="M21.319,75.978v4.023h-2.227V68.903h4.245c1.275,0,2.279,0.324,3.011,0.975s1.098,1.508,1.098,2.568
		c0,1.064-0.366,1.916-1.098,2.562s-1.736,0.969-3.011,0.969H21.319z M21.319,74.263h2.02c0.62,0,1.09-0.17,1.41-0.508
		c0.32-0.338,0.479-0.768,0.479-1.291c0-0.535-0.158-0.975-0.476-1.324c-0.317-0.348-0.788-0.521-1.413-0.521h-2.02V74.263z"/>
	<path fill="#FFF56C" d="M33.208,73.669l-0.816-0.023c-0.331,0-0.602,0.068-0.815,0.205s-0.376,0.33-0.488,0.58v5.57H28.87v-8.246
		h2.066l0.099,1.219c0.193-0.43,0.444-0.77,0.75-1.01c0.308-0.242,0.663-0.361,1.064-0.361c0.111,0,0.214,0.008,0.308,0.025
		c0.095,0.02,0.189,0.041,0.286,0.066L33.208,73.669z"/>
	<path fill="#FFF56C" d="M37.799,80.161c-1.229,0-2.19-0.377-2.882-1.131c-0.691-0.756-1.036-1.727-1.036-2.916V75.81
		c0-1.236,0.335-2.246,1.005-3.035c0.671-0.787,1.594-1.178,2.768-1.174c1.108,0,1.958,0.34,2.549,1.018
		c0.592,0.678,0.888,1.594,0.888,2.74v1.152h-4.917l-0.023,0.045c0.036,0.564,0.207,1.021,0.516,1.371
		c0.306,0.352,0.763,0.527,1.368,0.527c0.499,0,0.921-0.051,1.269-0.152c0.349-0.104,0.708-0.258,1.079-0.465l0.601,1.371
		c-0.331,0.27-0.777,0.496-1.341,0.678C39.078,80.069,38.464,80.161,37.799,80.161z M37.652,73.317
		c-0.447,0-0.792,0.152-1.032,0.461c-0.242,0.307-0.389,0.715-0.439,1.223l0.016,0.039h2.713v-0.168
		c0-0.482-0.099-0.863-0.296-1.139C38.416,73.454,38.096,73.317,37.652,73.317z"/>
	<path fill="#FFF56C" d="M44.452,71.755l0.092,1.09c0.264-0.396,0.596-0.701,0.995-0.918c0.399-0.219,0.86-0.326,1.384-0.326
		c0.529,0,0.98,0.119,1.356,0.35c0.376,0.234,0.66,0.588,0.853,1.061c0.254-0.443,0.584-0.787,0.991-1.037
		c0.408-0.248,0.885-0.373,1.432-0.373c0.814,0,1.455,0.289,1.924,0.865c0.471,0.576,0.707,1.457,0.707,2.641v4.893h-2.225v-4.902
		c0-0.66-0.102-1.119-0.307-1.379c-0.203-0.258-0.504-0.389-0.906-0.389c-0.316,0-0.589,0.07-0.82,0.211
		c-0.231,0.141-0.416,0.334-0.552,0.584c0,0.096,0.002,0.178,0.007,0.248c0.004,0.068,0.007,0.139,0.007,0.209v5.42h-2.218v-4.902
		c0-0.646-0.102-1.102-0.304-1.369c-0.204-0.266-0.508-0.4-0.915-0.4c-0.299,0-0.563,0.057-0.79,0.172
		c-0.226,0.115-0.413,0.275-0.56,0.484v6.016h-2.218v-8.248h2.067V71.755z"/>
	<path fill="#FFF56C" d="M58.234,69.78H56.01v-1.67h2.225V69.78z M58.234,80.001H56.01v-8.246h2.225V80.001z"/>
	<path fill="#FFF56C" d="M65.117,78.782c-0.254,0.443-0.576,0.783-0.967,1.021c-0.393,0.238-0.848,0.357-1.367,0.357
		c-0.867,0-1.549-0.295-2.039-0.883c-0.49-0.59-0.734-1.504-0.734-2.744v-4.779h2.219v4.793c0,0.721,0.096,1.217,0.293,1.482
		c0.193,0.268,0.498,0.4,0.912,0.4c0.355,0,0.66-0.057,0.914-0.172c0.254-0.113,0.463-0.281,0.625-0.506v-6h2.225v8.248h-1.844
		L65.117,78.782z"/>
	<path fill="#FFF56C" d="M70.941,71.755l0.092,1.09c0.264-0.396,0.594-0.701,0.992-0.918c0.398-0.219,0.863-0.326,1.385-0.326
		c0.529,0,0.98,0.119,1.357,0.35c0.377,0.234,0.66,0.588,0.854,1.061c0.254-0.443,0.586-0.787,0.99-1.037
		c0.406-0.248,0.885-0.373,1.434-0.373c0.814,0,1.453,0.289,1.924,0.865c0.469,0.576,0.705,1.457,0.705,2.641v4.893h-2.227v-4.902
		c0-0.66-0.1-1.119-0.303-1.379c-0.205-0.258-0.506-0.389-0.908-0.389c-0.314,0-0.59,0.07-0.82,0.211S76,73.874,75.863,74.124
		c0,0.096,0.004,0.178,0.008,0.248c0.006,0.068,0.008,0.139,0.008,0.209v5.42h-2.217v-4.902c0-0.646-0.102-1.102-0.307-1.369
		c-0.203-0.266-0.508-0.4-0.914-0.4c-0.301,0-0.566,0.057-0.791,0.172s-0.412,0.275-0.561,0.484v6.016h-2.217v-8.248h2.068V71.755z"
		/>
</g>
</svg>
