<?xml version="1.0" encoding="utf-8"?>
<!-- Generator: Adobe Illustrator 16.0.0, SVG Export Plug-In . SVG Version: 6.00 Build 0)  -->
<!DOCTYPE svg PUBLIC "-//W3C//DTD SVG 1.1//EN" "http://www.w3.org/Graphics/SVG/1.1/DTD/svg11.dtd">
<svg version="1.1" id="Layer_1" xmlns="http://www.w3.org/2000/svg" xmlns:xlink="http://www.w3.org/1999/xlink" x="0px" y="0px"
	 width="100px" height="129.541px" viewBox="0 0 100 129.541" enable-background="new 0 0 100 129.541" xml:space="preserve">
<polygon fill="#00006B" points="1.5,3.271 1.5,112.791 16.945,127.271 98.5,127.271 98.5,17.271 91.312,17.271 91.32,10.271 
	82.5,10.271 82.5,3.271 "/>
<g>
	<path fill="#9D9DFF" d="M92.525,14.699v-7.34h-7.463V0H0.05v114.842h0.01l14.918,14.699H100V14.699H92.525z M95.107,124.647H17.833
		l-12.89-12.752V4.894H80.17v7.368h7.462v7.34h7.476V124.647L95.107,124.647z"/>
</g>
<g>
	<g>
		<path fill="#9D9DFF" d="M30.476,50.942v7.085c0,1.219-0.403,2.172-1.212,2.86c-0.807,0.689-1.855,1.033-3.143,1.033
			c-1.285,0-2.326-0.344-3.125-1.033c-0.801-0.688-1.201-1.642-1.201-2.86v-7.085h2.178v7.085c0,0.722,0.194,1.275,0.578,1.656
			c0.387,0.381,0.91,0.572,1.57,0.572c0.667,0,1.198-0.192,1.589-0.572c0.392-0.381,0.586-0.934,0.586-1.656v-7.085H30.476z"/>
		<path fill="#9D9DFF" d="M39.447,57.966c0,1.19-0.274,2.145-0.824,2.87c-0.551,0.725-1.319,1.086-2.305,1.086
			c-0.421,0-0.795-0.078-1.123-0.235c-0.327-0.155-0.607-0.386-0.84-0.687v3.859h-2.164V53.724h1.956l0.125,0.951
			c0.238-0.352,0.524-0.624,0.859-0.814c0.334-0.19,0.725-0.286,1.171-0.286c0.996,0,1.768,0.389,2.319,1.167
			c0.55,0.778,0.824,1.802,0.824,3.069V57.966z M37.276,57.811c0-0.759-0.126-1.373-0.379-1.844
			c-0.251-0.471-0.639-0.707-1.16-0.707c-0.327,0-0.605,0.068-0.835,0.201c-0.23,0.135-0.413,0.327-0.547,0.573v3.525
			c0.134,0.227,0.316,0.402,0.547,0.52c0.23,0.12,0.514,0.179,0.852,0.179c0.524,0,0.91-0.206,1.154-0.617
			c0.246-0.411,0.368-0.967,0.368-1.672V57.811z"/>
		<path fill="#9D9DFF" d="M40.466,57.811c0-1.269,0.275-2.291,0.825-3.069c0.551-0.778,1.325-1.167,2.319-1.167
			c0.451,0,0.848,0.101,1.189,0.305c0.342,0.204,0.634,0.493,0.877,0.869l0.171-1.025h1.865v8.005c0,1.046-0.342,1.855-1.026,2.427
			c-0.683,0.572-1.637,0.858-2.863,0.858c-0.406,0-0.837-0.056-1.293-0.168c-0.457-0.111-0.876-0.264-1.264-0.457l0.364-1.62
			c0.333,0.159,0.676,0.278,1.029,0.36c0.354,0.082,0.738,0.123,1.149,0.123c0.595,0,1.031-0.125,1.312-0.372
			c0.28-0.248,0.42-0.634,0.42-1.16v-0.728c-0.239,0.303-0.519,0.533-0.841,0.69c-0.322,0.16-0.692,0.239-1.107,0.239
			c-0.987,0-1.754-0.362-2.305-1.086c-0.55-0.723-0.825-1.68-0.825-2.87v-0.155H40.466z M42.637,57.966
			c0,0.704,0.118,1.257,0.353,1.661c0.236,0.405,0.621,0.606,1.156,0.606c0.332,0,0.613-0.06,0.843-0.182
			c0.23-0.122,0.415-0.298,0.555-0.531v-3.486c-0.14-0.248-0.324-0.438-0.555-0.573c-0.229-0.134-0.507-0.201-0.829-0.201
			c-0.531,0-0.917,0.235-1.16,0.706c-0.243,0.47-0.364,1.086-0.364,1.844L42.637,57.966L42.637,57.966z"/>
		<path fill="#9D9DFF" d="M53.607,55.587l-0.795-0.022c-0.322,0-0.588,0.067-0.795,0.201c-0.209,0.134-0.368,0.323-0.477,0.565
			v5.434h-2.164v-8.042h2.015l0.096,1.189c0.189-0.422,0.434-0.75,0.732-0.985c0.299-0.234,0.645-0.353,1.037-0.353
			c0.108,0,0.209,0.009,0.301,0.025c0.092,0.017,0.186,0.039,0.279,0.064L53.607,55.587z"/>
		<path fill="#9D9DFF" d="M59.479,61.765c-0.076-0.183-0.146-0.376-0.202-0.581c-0.057-0.204-0.099-0.411-0.123-0.625
			c-0.223,0.393-0.517,0.717-0.884,0.975c-0.367,0.256-0.803,0.386-1.31,0.386c-0.842,0-1.489-0.217-1.948-0.65
			c-0.455-0.434-0.683-1.025-0.683-1.773c0-0.787,0.304-1.397,0.911-1.831c0.605-0.434,1.49-0.651,2.656-0.651h1.218v-0.639
			c0-0.386-0.102-0.685-0.305-0.899c-0.202-0.215-0.505-0.32-0.905-0.32c-0.354,0-0.625,0.085-0.814,0.256
			c-0.191,0.171-0.287,0.406-0.287,0.703h-2.09l-0.014-0.044c-0.035-0.679,0.261-1.265,0.887-1.757
			c0.627-0.492,1.445-0.739,2.457-0.739c0.967,0,1.748,0.243,2.345,0.729c0.598,0.486,0.897,1.182,0.897,2.089v3.323
			c0,0.375,0.027,0.73,0.084,1.063c0.057,0.332,0.148,0.661,0.272,0.988L59.479,61.765L59.479,61.765z M57.495,60.315
			c0.376,0,0.714-0.093,1.011-0.283c0.297-0.187,0.5-0.406,0.608-0.654v-1.136h-1.218c-0.461,0-0.807,0.114-1.044,0.341
			c-0.235,0.228-0.353,0.508-0.353,0.84c0,0.271,0.088,0.489,0.264,0.65C56.939,60.236,57.184,60.315,57.495,60.315z"/>
		<path fill="#9D9DFF" d="M62.58,57.811c0-1.269,0.271-2.291,0.82-3.069c0.549-0.778,1.322-1.167,2.316-1.167
			c0.402,0,0.764,0.086,1.086,0.26c0.322,0.175,0.605,0.423,0.85,0.744v-4.408h2.176v11.596h-1.852l-0.186-0.988
			c-0.254,0.372-0.553,0.655-0.898,0.852c-0.348,0.196-0.744,0.294-1.189,0.294c-0.986,0-1.754-0.363-2.305-1.086
			c-0.547-0.724-0.818-1.68-0.818-2.87V57.811L62.58,57.811z M64.742,57.966c0,0.704,0.121,1.257,0.359,1.661
			c0.236,0.405,0.623,0.606,1.158,0.606c0.312,0,0.584-0.062,0.816-0.189c0.234-0.127,0.424-0.31,0.572-0.555v-3.426
			c-0.148-0.252-0.338-0.45-0.568-0.591c-0.23-0.142-0.498-0.211-0.805-0.211c-0.529,0-0.92,0.235-1.164,0.706
			c-0.246,0.47-0.367,1.086-0.367,1.844v0.156H64.742z"/>
		<path fill="#9D9DFF" d="M74.996,61.922c-1.201,0-2.137-0.368-2.811-1.104c-0.676-0.734-1.01-1.684-1.01-2.843v-0.296
			c0-1.205,0.326-2.191,0.979-2.958c0.656-0.769,1.555-1.15,2.699-1.146c1.082,0,1.908,0.331,2.486,0.993
			c0.576,0.662,0.865,1.553,0.865,2.672v1.122h-4.793l-0.023,0.044c0.033,0.55,0.201,0.997,0.502,1.339
			c0.299,0.34,0.744,0.512,1.336,0.512c0.484,0,0.896-0.049,1.236-0.148c0.34-0.1,0.691-0.25,1.053-0.453l0.586,1.339
			c-0.32,0.263-0.756,0.483-1.305,0.661C76.244,61.833,75.643,61.922,74.996,61.922z M74.854,55.246c-0.436,0-0.773,0.15-1.008,0.45
			c-0.234,0.299-0.377,0.698-0.428,1.193l0.016,0.038h2.648v-0.165c0-0.47-0.096-0.841-0.291-1.111
			C75.596,55.382,75.285,55.246,74.854,55.246z"/>
	</g>
	<g>
		<path fill="#9D9DFF" d="M32.457,70.02v1.971h1.36v1.522h-1.36v4.096c0,0.312,0.064,0.535,0.194,0.669
			c0.132,0.135,0.306,0.2,0.518,0.2c0.114,0,0.215-0.005,0.297-0.018c0.084-0.013,0.182-0.034,0.292-0.063l0.177,1.569
			c-0.218,0.074-0.431,0.129-0.637,0.166c-0.207,0.04-0.429,0.057-0.672,0.057c-0.748,0-1.325-0.207-1.728-0.617
			c-0.404-0.411-0.606-1.063-0.606-1.955v-4.104h-1.175V71.99h1.175V70.02H32.457z"/>
		<path fill="#9D9DFF" d="M34.82,75.936c0-1.198,0.334-2.182,1.004-2.947c0.667-0.766,1.594-1.148,2.779-1.148
			c1.19,0,2.121,0.382,2.797,1.146c0.672,0.762,1.009,1.745,1.009,2.95v0.155c0,1.21-0.337,2.195-1.007,2.955
			c-0.673,0.762-1.6,1.143-2.785,1.143c-1.189,0-2.12-0.38-2.792-1.143c-0.672-0.76-1.006-1.745-1.006-2.955V75.936L34.82,75.936z
			 M36.982,76.091c0,0.735,0.129,1.322,0.389,1.767c0.257,0.442,0.672,0.664,1.247,0.664c0.56,0,0.969-0.223,1.229-0.669
			c0.261-0.447,0.393-1.033,0.393-1.762v-0.155c0-0.714-0.131-1.296-0.395-1.748c-0.263-0.449-0.676-0.675-1.241-0.675
			c-0.561,0-0.971,0.226-1.231,0.68c-0.261,0.453-0.391,1.034-0.391,1.743V76.091z"/>
		<path fill="#9D9DFF" d="M51.041,76.107v3.925H48.87V69.21h4.14c1.243,0,2.223,0.316,2.936,0.95
			c0.714,0.634,1.071,1.471,1.071,2.506c0,1.036-0.357,1.869-1.071,2.499c-0.713,0.629-1.692,0.942-2.936,0.942H51.041z
			 M51.041,74.437h1.971c0.604,0,1.062-0.165,1.375-0.495c0.312-0.329,0.467-0.749,0.467-1.26c0-0.521-0.154-0.95-0.463-1.291
			c-0.311-0.339-0.77-0.509-1.379-0.509h-1.971V74.437z"/>
		<path fill="#9D9DFF" d="M62.637,73.857l-0.796-0.023c-0.323,0-0.587,0.066-0.796,0.201c-0.209,0.134-0.367,0.321-0.476,0.564
			v5.433h-2.164V71.99h2.015l0.098,1.189c0.188-0.421,0.432-0.75,0.73-0.983c0.301-0.237,0.646-0.354,1.037-0.354
			c0.109,0,0.209,0.009,0.301,0.024c0.092,0.02,0.186,0.04,0.279,0.064L62.637,73.857z"/>
		<path fill="#9D9DFF" d="M63.293,75.937c0-1.199,0.334-2.183,1.004-2.947c0.666-0.767,1.594-1.148,2.779-1.148
			c1.189,0,2.121,0.382,2.797,1.145c0.672,0.763,1.01,1.747,1.01,2.951v0.155c0,1.21-0.338,2.194-1.008,2.956
			c-0.674,0.761-1.602,1.141-2.785,1.141c-1.189,0-2.119-0.38-2.791-1.141c-0.672-0.762-1.006-1.746-1.006-2.956V75.937
			L63.293,75.937z M65.453,76.092c0,0.734,0.131,1.323,0.389,1.766s0.674,0.665,1.248,0.665c0.559,0,0.969-0.223,1.229-0.67
			c0.26-0.446,0.393-1.032,0.393-1.762v-0.155c0-0.714-0.133-1.296-0.395-1.746c-0.262-0.451-0.676-0.677-1.24-0.677
			c-0.561,0-0.971,0.227-1.232,0.68c-0.26,0.454-0.391,1.034-0.391,1.743V76.092z"/>
	</g>
</g>
</svg>
