<?xml version="1.0" encoding="utf-8"?>
<!-- Generator: Adobe Illustrator 16.0.0, SVG Export Plug-In . SVG Version: 6.00 Build 0)  -->
<!DOCTYPE svg PUBLIC "-//W3C//DTD SVG 1.1//EN" "http://www.w3.org/Graphics/SVG/1.1/DTD/svg11.dtd">
<svg version="1.1" id="Layer_1" xmlns="http://www.w3.org/2000/svg" xmlns:xlink="http://www.w3.org/1999/xlink" x="0px" y="0px"
	 width="11.701px" height="63.146px" viewBox="0 0 11.701 63.146" enable-background="new 0 0 11.701 63.146" xml:space="preserve">
<g id="Layer_1_1_" display="none">
	<g display="inline">
		<path d="M9.126,61.729H0.595v-2.817c0-1.082,0.338-1.962,1.014-2.641c0.676-0.679,1.545-1.018,2.607-1.018h1.295
			c1.066,0,1.937,0.339,2.607,1.018s1.008,1.559,1.008,2.641V61.729z M1.737,60.305h6.252V58.91c0-0.685-0.23-1.228-0.693-1.629
			c-0.463-0.402-1.059-0.604-1.785-0.604H4.204c-0.719,0-1.31,0.201-1.772,0.604c-0.462,0.402-0.694,0.944-0.694,1.629L1.737,60.305
			L1.737,60.305z"/>
		<path d="M5.897,54.1c-0.945,0-1.72-0.26-2.323-0.775c-0.603-0.518-0.905-1.227-0.905-2.124c0-0.91,0.302-1.624,0.905-2.143
			c0.603-0.519,1.378-0.775,2.323-0.775H6.02c0.954,0,1.73,0.259,2.331,0.775c0.601,0.518,0.897,1.229,0.897,2.13
			c0,0.905-0.302,1.618-0.901,2.137C7.745,53.842,6.97,54.1,6.021,54.1H5.897z M6.021,52.676c0.621,0,1.125-0.12,1.512-0.362
			c0.387-0.242,0.579-0.617,0.579-1.125c0-0.496-0.192-0.868-0.581-1.116c-0.39-0.247-0.894-0.371-1.51-0.371H5.897
			c-0.605,0-1.104,0.124-1.497,0.371C4.007,50.32,3.812,50.696,3.812,51.2c0,0.495,0.196,0.865,0.589,1.109
			c0.393,0.243,0.892,0.365,1.497,0.365L6.021,52.676L6.021,52.676z"/>
		<path d="M8.112,44.456c0-0.324-0.104-0.6-0.305-0.823c-0.203-0.224-0.461-0.337-0.773-0.337v-1.289l0.035-0.012
			c0.594-0.017,1.104,0.22,1.535,0.706c0.43,0.485,0.645,1.07,0.645,1.755c0,0.914-0.301,1.619-0.904,2.114
			c-0.603,0.496-1.365,0.744-2.283,0.744H5.856c-0.914,0-1.674-0.248-2.279-0.744c-0.605-0.495-0.908-1.198-0.908-2.108
			c0-0.737,0.222-1.338,0.665-1.799s1.007-0.685,1.69-0.668l0.035,0.012v1.289c-0.348,0-0.643,0.106-0.885,0.322
			c-0.242,0.215-0.363,0.496-0.363,0.844c0,0.508,0.196,0.873,0.589,1.097s0.878,0.334,1.456,0.334h0.205
			c0.59,0,1.081-0.109,1.469-0.331S8.112,44.971,8.112,44.456z"/>
		<path d="M8.188,36.844c0.34,0.195,0.602,0.446,0.785,0.754c0.183,0.307,0.273,0.66,0.273,1.062c0,0.68-0.225,1.211-0.67,1.594
			c-0.447,0.384-1.145,0.574-2.084,0.574H2.786V39.41h3.721c0.605,0,1.021-0.089,1.246-0.265c0.225-0.177,0.336-0.449,0.336-0.819
			c0-0.345-0.061-0.633-0.184-0.864s-0.303-0.415-0.537-0.548H2.786V35.49h6.34v1.225L8.188,36.844z"/>
		<path d="M2.786,32.701l0.826-0.076c-0.301-0.207-0.533-0.467-0.697-0.778c-0.164-0.312-0.246-0.675-0.246-1.084
			c0-0.414,0.094-0.771,0.281-1.066s0.469-0.521,0.844-0.668c-0.352-0.194-0.627-0.452-0.826-0.772
			c-0.199-0.319-0.299-0.694-0.299-1.125c0-0.637,0.222-1.14,0.665-1.509s1.114-0.555,2.013-0.555h3.779v1.425H5.341
			c-0.555,0-0.944,0.093-1.169,0.277c-0.225,0.186-0.337,0.464-0.337,0.835c0,0.306,0.082,0.562,0.246,0.772
			s0.385,0.363,0.662,0.457c0.059,0,0.109-0.002,0.152-0.006s0.084-0.007,0.123-0.007h4.107v1.425H5.341
			c-0.535,0-0.92,0.095-1.154,0.283s-0.352,0.469-0.352,0.836c0,0.288,0.056,0.533,0.167,0.734c0.111,0.2,0.269,0.359,0.472,0.479
			h4.652v1.424h-6.34V32.701z"/>
		<path d="M9.249,20.877c0,0.926-0.291,1.648-0.875,2.171S7.032,23.83,6.103,23.83H5.868c-0.93,0-1.696-0.262-2.3-0.782
			s-0.903-1.193-0.899-2.02c0-0.853,0.263-1.495,0.788-1.935c0.525-0.438,1.228-0.655,2.106-0.655h0.768v3.92l0.029,0.013
			c0.52-0.017,0.939-0.152,1.266-0.41s0.486-0.646,0.486-1.166c0-0.387-0.047-0.722-0.141-1.005
			c-0.096-0.283-0.229-0.546-0.404-0.788l0.932-0.463c0.211,0.242,0.389,0.562,0.533,0.961C9.176,19.899,9.249,20.357,9.249,20.877z
			 M3.812,21.029c0,0.371,0.134,0.668,0.401,0.892s0.616,0.361,1.046,0.416l0.029-0.012v-2.479H5.177
			c-0.406,0-0.735,0.095-0.987,0.283S3.812,20.619,3.812,21.029z"/>
		<path d="M2.786,15.996L3.7,15.914c-0.324-0.207-0.577-0.469-0.759-0.782s-0.272-0.669-0.272-1.062
			c0-0.659,0.203-1.175,0.609-1.544c0.406-0.368,1.041-0.554,1.904-0.554h3.943v1.424H5.194c-0.492,0-0.842,0.097-1.049,0.287
			s-0.311,0.479-0.311,0.866c0,0.306,0.058,0.568,0.173,0.791c0.115,0.224,0.274,0.4,0.478,0.533h4.641v1.424h-6.34V15.996z"/>
		<path d="M1.245,8.666h1.541V7.529h1.055v1.138h3.504c0.262,0,0.449-0.058,0.562-0.17c0.111-0.113,0.165-0.265,0.165-0.451
			c0-0.078-0.007-0.153-0.021-0.229C8.038,7.741,8.019,7.672,7.995,7.605l1.043-0.151c0.066,0.121,0.119,0.265,0.156,0.431
			s0.055,0.34,0.055,0.52c0,0.522-0.152,0.936-0.459,1.233c-0.307,0.297-0.789,0.447-1.445,0.447H3.841v0.967H2.786v-0.967H1.245
			V8.666z"/>
		<path d="M7.392,2.818c-0.219,0-0.396,0.094-0.541,0.278C6.708,3.281,6.579,3.633,6.466,4.148C6.313,4.895,6.089,5.465,5.792,5.859
			C5.495,6.253,5.097,6.451,4.597,6.451c-0.531,0-0.985-0.226-1.362-0.675c-0.377-0.448-0.566-1.04-0.566-1.774
			c0-0.758,0.194-1.368,0.583-1.831s0.856-0.686,1.403-0.665L4.69,1.518v1.364c-0.258,0-0.481,0.103-0.671,0.306
			S3.735,3.662,3.735,4.002c0,0.345,0.078,0.604,0.234,0.785c0.156,0.18,0.348,0.271,0.574,0.271c0.215,0,0.387-0.084,0.516-0.252
			s0.244-0.515,0.346-1.037C5.562,2.99,5.791,2.404,6.094,2.01C6.397,1.615,6.802,1.418,7.31,1.418c0.57,0,1.037,0.234,1.398,0.706
			c0.361,0.471,0.541,1.091,0.541,1.859c0,0.824-0.211,1.476-0.633,1.951C8.194,6.411,7.71,6.639,7.163,6.615L7.128,6.604V5.279
			c0.367-0.016,0.635-0.147,0.803-0.397s0.252-0.555,0.252-0.914c0-0.362-0.072-0.646-0.217-0.847
			C7.821,2.919,7.63,2.818,7.392,2.818z"/>
	</g>
</g>
<g id="Layer_2" display="none">
	<g display="inline">
		<path d="M9.142,45.077V46.5H0.609v-1.424L9.142,45.077L9.142,45.077z"/>
		<path d="M2.801,42.024l0.914-0.082c-0.324-0.207-0.577-0.468-0.759-0.781s-0.272-0.669-0.272-1.062
			c0-0.66,0.203-1.176,0.609-1.544C3.699,38.185,4.334,38,5.197,38H9.14v1.424H5.209c-0.492,0-0.842,0.097-1.049,0.287
			s-0.31,0.479-0.31,0.867c0,0.305,0.058,0.567,0.173,0.791c0.115,0.223,0.274,0.399,0.478,0.532h4.641v1.425h-6.34L2.801,42.024
			L2.801,42.024z"/>
		<path d="M7.406,32.954c-0.22,0-0.399,0.093-0.542,0.277c-0.143,0.186-0.271,0.536-0.385,1.053
			C6.328,35.03,6.104,35.6,5.807,35.995c-0.297,0.396-0.695,0.592-1.195,0.592c-0.531,0-0.985-0.226-1.362-0.674
			c-0.377-0.449-0.565-1.041-0.565-1.774c0-0.759,0.194-1.369,0.583-1.832c0.389-0.464,0.856-0.686,1.403-0.665l0.035,0.012v1.366
			c-0.258,0-0.481,0.103-0.671,0.306c-0.19,0.202-0.285,0.473-0.285,0.812c0,0.345,0.078,0.605,0.234,0.785
			c0.156,0.181,0.348,0.271,0.574,0.271c0.215,0,0.387-0.084,0.516-0.252c0.129-0.168,0.244-0.515,0.346-1.037
			c0.156-0.776,0.386-1.363,0.688-1.758c0.302-0.395,0.708-0.593,1.216-0.593c0.569,0,1.036,0.235,1.397,0.706
			c0.359,0.472,0.541,1.092,0.541,1.861c0,0.823-0.212,1.475-0.634,1.95c-0.422,0.477-0.905,0.703-1.453,0.681L7.142,36.74v-1.324
			c0.367-0.017,0.635-0.147,0.803-0.397s0.253-0.556,0.253-0.914c0-0.362-0.071-0.646-0.218-0.848
			C7.835,33.055,7.646,32.954,7.406,32.954z"/>
		<path d="M9.265,27.586c0,0.927-0.293,1.648-0.877,2.171c-0.584,0.521-1.341,0.782-2.271,0.782H5.883
			c-0.93,0-1.696-0.262-2.3-0.782s-0.903-1.193-0.899-2.02c0-0.853,0.263-1.495,0.788-1.935c0.525-0.438,1.228-0.655,2.106-0.655
			h0.768v3.92l0.029,0.013c0.521-0.017,0.94-0.152,1.267-0.41c0.324-0.258,0.485-0.646,0.485-1.166c0-0.387-0.047-0.722-0.142-1.005
			c-0.094-0.283-0.229-0.546-0.403-0.788l0.933-0.463c0.211,0.242,0.389,0.562,0.532,0.961C9.19,26.608,9.265,27.066,9.265,27.586z
			 M3.826,27.738c0,0.371,0.134,0.669,0.401,0.892c0.267,0.224,0.616,0.361,1.046,0.416l0.029-0.012v-2.479H5.191
			c-0.406,0-0.735,0.095-0.987,0.283S3.826,27.328,3.826,27.738z"/>
		<path d="M4.084,20.836l-0.023,0.608c0,0.277,0.059,0.51,0.176,0.694c0.117,0.186,0.283,0.328,0.498,0.431h4.407v1.425H2.801
			v-1.302l0.92-0.094c-0.324-0.16-0.578-0.366-0.762-0.618s-0.275-0.542-0.275-0.87c0-0.086,0.007-0.166,0.021-0.239
			c0.014-0.074,0.03-0.144,0.05-0.205L4.084,20.836z"/>
		<path d="M1.26,17.859h1.541v-1.137h1.055v1.137H7.36c0.262,0,0.447-0.058,0.56-0.17s0.167-0.265,0.167-0.451
			c0-0.077-0.007-0.153-0.021-0.229c-0.014-0.074-0.03-0.145-0.056-0.211l1.044-0.151c0.065,0.121,0.117,0.266,0.154,0.432
			s0.057,0.339,0.057,0.52c0,0.522-0.154,0.936-0.461,1.232s-0.787,0.447-1.443,0.447H3.855v0.968H2.801v-0.968H1.26V17.859z"/>
	</g>
</g>
<g id="Layer_3" display="none">
	<g display="inline">
		<path d="M1.752,56.491v2.637h7.39v1.424h-7.39v2.597H0.609v-6.655L1.752,56.491L1.752,56.491z"/>
		<path d="M6.599,53.93l0.631-0.141v-0.035L2.8,52.366v-1.56l7.301,2.625c0.441,0.168,0.818,0.403,1.131,0.709
			c0.313,0.305,0.471,0.735,0.471,1.295c0,0.116-0.014,0.241-0.035,0.377s-0.051,0.267-0.082,0.392l-1.104-0.158
			c0.004-0.051,0.012-0.123,0.02-0.217c0.008-0.095,0.014-0.164,0.014-0.211c0-0.259-0.09-0.466-0.266-0.619
			c-0.177-0.154-0.379-0.279-0.607-0.377l-0.574-0.233L2.801,56.69v-1.553L6.599,53.93z"/>
		<path d="M6.182,44.397c0.922,0,1.667,0.218,2.232,0.649c0.565,0.433,0.851,1.037,0.851,1.812c0,0.358-0.063,0.679-0.192,0.955
			c-0.13,0.276-0.318,0.517-0.568,0.715h3.076v1.425H2.801V48.75l0.797-0.142c-0.297-0.202-0.523-0.448-0.68-0.735
			s-0.234-0.619-0.234-0.998c0-0.781,0.31-1.392,0.929-1.826c0.619-0.435,1.435-0.651,2.446-0.651H6.182z M6.059,45.815
			c-0.648,0-1.179,0.121-1.591,0.365C4.056,46.424,3.85,46.79,3.85,47.274c0,0.297,0.063,0.55,0.19,0.756
			c0.127,0.207,0.304,0.373,0.53,0.498h2.865c0.225-0.125,0.396-0.291,0.515-0.498c0.118-0.206,0.179-0.463,0.179-0.768
			c0-0.484-0.179-0.849-0.536-1.089c-0.356-0.239-0.825-0.358-1.409-0.358H6.059z"/>
		<path d="M5.912,43.418c-0.945,0-1.72-0.259-2.323-0.775c-0.603-0.518-0.905-1.227-0.905-2.124c0-0.91,0.302-1.624,0.905-2.143
			C4.192,37.858,4.967,37.6,5.912,37.6h0.123c0.952,0,1.729,0.259,2.329,0.775c0.6,0.518,0.898,1.229,0.898,2.13
			c0,0.906-0.302,1.618-0.902,2.137c-0.602,0.519-1.377,0.775-2.325,0.775H5.912L5.912,43.418z M6.035,41.995
			c0.621,0,1.125-0.121,1.512-0.363c0.388-0.241,0.58-0.616,0.58-1.125c0-0.496-0.194-0.867-0.583-1.115s-0.893-0.372-1.509-0.372
			H5.912c-0.605,0-1.104,0.124-1.497,0.372s-0.589,0.624-0.589,1.128c0,0.496,0.196,0.865,0.589,1.109s0.892,0.366,1.497,0.366
			H6.035z"/>
		<path d="M6.059,36.581c-1.012,0-1.827-0.217-2.446-0.649c-0.619-0.434-0.929-1.043-0.929-1.828c0-0.379,0.081-0.712,0.243-0.999
			c0.162-0.288,0.396-0.53,0.7-0.729l-0.826-0.142v-1.185h6.341c0.815,0,1.446,0.252,1.894,0.757
			c0.444,0.504,0.668,1.219,0.668,2.146c0,0.309-0.044,0.642-0.134,0.999c-0.088,0.356-0.202,0.681-0.348,0.97l-1.119-0.229
			c0.121-0.241,0.215-0.514,0.283-0.812s0.104-0.604,0.104-0.917c0-0.517-0.11-0.894-0.331-1.131
			c-0.223-0.238-0.561-0.356-1.018-0.356H8.49c0.254,0.198,0.446,0.436,0.577,0.707s0.195,0.583,0.195,0.936
			c0,0.776-0.283,1.383-0.851,1.815c-0.565,0.434-1.312,0.649-2.232,0.649L6.059,36.581L6.059,36.581z M6.182,35.163
			c0.586,0,1.053-0.113,1.4-0.34c0.347-0.229,0.521-0.584,0.521-1.072c0-0.306-0.062-0.562-0.188-0.771s-0.312-0.378-0.548-0.507
			H4.588c-0.23,0.133-0.411,0.304-0.542,0.513S3.85,33.446,3.85,33.74c0,0.487,0.204,0.848,0.612,1.077
			c0.408,0.229,0.94,0.347,1.597,0.347L6.182,35.163L6.182,35.163z"/>
		<path d="M4.084,26.402L4.061,27.01c0,0.277,0.059,0.51,0.176,0.694c0.117,0.186,0.283,0.329,0.498,0.431h4.407v1.425H2.801V28.26
			l0.92-0.094c-0.324-0.16-0.578-0.366-0.762-0.618s-0.275-0.542-0.275-0.87c0-0.086,0.007-0.165,0.021-0.239
			c0.014-0.073,0.03-0.144,0.05-0.205L4.084,26.402z"/>
		<path d="M9.142,21.527c-0.16,0.052-0.315,0.094-0.47,0.126c-0.153,0.033-0.305,0.057-0.457,0.066
			c0.298,0.191,0.546,0.447,0.747,0.769s0.303,0.679,0.303,1.072c0,0.659-0.171,1.167-0.511,1.521
			c-0.34,0.354-0.808,0.529-1.399,0.529c-0.612,0-1.09-0.241-1.434-0.728c-0.342-0.484-0.513-1.166-0.513-2.045v-1.106H4.852
			c-0.332,0-0.592,0.098-0.779,0.29c-0.188,0.192-0.281,0.475-0.281,0.841c0,0.324,0.077,0.582,0.231,0.772
			c0.154,0.191,0.354,0.287,0.601,0.287l0.006,1.371L4.595,25.3c-0.5,0.027-0.943-0.195-1.33-0.671
			c-0.387-0.476-0.58-1.093-0.58-1.854c0-0.737,0.188-1.334,0.562-1.787c0.374-0.452,0.914-0.68,1.617-0.68h2.818
			c0.262,0,0.512-0.019,0.752-0.054c0.239-0.035,0.477-0.092,0.707-0.17V21.527L9.142,21.527z M8.121,23.268
			c0-0.354-0.09-0.678-0.271-0.964c-0.181-0.287-0.386-0.479-0.615-0.571H6.299v1.132c0,0.413,0.103,0.737,0.308,0.973
			c0.205,0.234,0.447,0.353,0.726,0.353c0.242,0,0.437-0.079,0.577-0.236C8.05,23.794,8.121,23.564,8.121,23.268z"/>
		<path d="M6.182,13.266c0.922,0,1.667,0.217,2.232,0.649c0.565,0.434,0.851,1.037,0.851,1.812c0,0.358-0.063,0.678-0.192,0.955
			c-0.13,0.276-0.318,0.517-0.568,0.715h3.076v1.424H2.801v-1.2l0.797-0.142c-0.297-0.203-0.523-0.447-0.68-0.734
			s-0.234-0.62-0.234-0.999c0-0.781,0.31-1.391,0.929-1.825c0.619-0.436,1.435-0.652,2.446-0.652L6.182,13.266L6.182,13.266z
			 M6.059,14.684c-0.648,0-1.179,0.122-1.591,0.365c-0.412,0.244-0.618,0.608-0.618,1.094c0,0.297,0.063,0.549,0.19,0.756
			s0.304,0.373,0.53,0.498h2.865c0.225-0.125,0.396-0.291,0.515-0.498c0.118-0.207,0.179-0.463,0.179-0.769
			c0-0.483-0.179-0.847-0.536-1.087c-0.356-0.239-0.825-0.359-1.409-0.359H6.059z"/>
		<path d="M3.621,10.617c-0.297-0.211-0.527-0.469-0.691-0.771C2.766,9.543,2.684,9.209,2.684,8.842
			c0-0.672,0.212-1.195,0.636-1.572c0.424-0.377,1.077-0.564,1.96-0.564h3.861v1.424H5.268c-0.496,0-0.856,0.098-1.081,0.29
			S3.85,8.898,3.85,9.281c0,0.305,0.054,0.567,0.161,0.79c0.107,0.224,0.257,0.404,0.448,0.546h4.683v1.424H0v-1.424H3.621z"/>
		<path d="M6.599,3.123l0.631-0.142V2.947L2.8,1.558V0l7.301,2.625c0.441,0.168,0.818,0.403,1.131,0.709
			c0.313,0.306,0.471,0.735,0.471,1.295c0,0.117-0.014,0.243-0.035,0.378c-0.021,0.136-0.051,0.266-0.082,0.391L10.481,5.24
			c0.004-0.052,0.011-0.123,0.019-0.218s0.013-0.164,0.013-0.211c0-0.259-0.089-0.464-0.265-0.618
			c-0.177-0.154-0.379-0.28-0.608-0.378L9.063,3.58L2.801,5.883V4.33L6.599,3.123z"/>
	</g>
</g>
<g>
	<path fill="#FFFFFF" d="M4.812,11.018l0.001-3.44l-3.64,0V6.155h8.531v5.46H8.562V7.579H5.954v3.439L4.812,11.018z"/>
	<path fill="#FFFFFF" d="M1.05,15.219c0.001-0.926,0.292-1.649,0.877-2.171c0.583-0.521,1.34-0.782,2.27-0.782h0.235
		c0.929,0,1.695,0.261,2.3,0.782c0.603,0.522,0.902,1.194,0.898,2.019C7.631,15.918,7.367,16.563,6.843,17
		c-0.526,0.438-1.228,0.656-2.107,0.657H3.968v-3.92l-0.029-0.011c-0.52,0.016-0.941,0.152-1.265,0.41
		c-0.325,0.258-0.487,0.647-0.487,1.167c0,0.387,0.048,0.721,0.141,1.005c0.094,0.283,0.229,0.546,0.404,0.788l-0.931,0.462
		c-0.212-0.242-0.39-0.562-0.534-0.96C1.122,16.198,1.05,15.739,1.05,15.219z M6.487,15.067c0-0.372-0.133-0.668-0.401-0.891
		C5.819,13.953,5.47,13.815,5.04,13.76l-0.029,0.012l0.001,2.479h0.11c0.406,0,0.736-0.096,0.987-0.284
		C6.362,15.777,6.487,15.477,6.487,15.067z"/>
	<path fill="#FFFFFF" d="M1.05,21.501c0.001-0.926,0.292-1.65,0.876-2.171c0.585-0.521,1.341-0.783,2.271-0.783h0.235
		c0.929,0,1.695,0.261,2.3,0.782c0.603,0.521,0.902,1.194,0.898,2.019c0,0.852-0.262,1.496-0.788,1.935
		c-0.525,0.437-1.228,0.656-2.106,0.656H3.968v-3.92l-0.029-0.012c-0.52,0.016-0.941,0.152-1.266,0.411
		c-0.324,0.258-0.486,0.646-0.486,1.166c0,0.387,0.048,0.722,0.141,1.005c0.094,0.283,0.229,0.546,0.404,0.788l-0.931,0.462
		c-0.212-0.242-0.39-0.562-0.534-0.96S1.05,22.02,1.05,21.501z M6.487,21.348c0-0.371-0.133-0.668-0.401-0.89
		c-0.267-0.223-0.615-0.362-1.046-0.416l-0.029,0.012l0.001,2.478l0.11,0c0.406,0,0.735-0.095,0.987-0.285
		C6.362,22.058,6.487,21.758,6.487,21.348z"/>
	<path fill="#FFFFFF" d="M4.255,24.829c1.012,0,1.827,0.217,2.447,0.65c0.618,0.434,0.928,1.043,0.928,1.829
		c0.001,0.343-0.069,0.651-0.207,0.923c-0.139,0.271-0.337,0.506-0.596,0.705l3.486,0.001v1.424l-9.141-0.001v-1.153l0.803-0.171
		c-0.301-0.203-0.53-0.449-0.688-0.738C1.13,28.008,1.05,27.675,1.05,27.296c0-0.778,0.284-1.383,0.85-1.817
		c0.566-0.434,1.311-0.65,2.232-0.65H4.255z M4.132,26.253c-0.586,0-1.053,0.112-1.4,0.337c-0.348,0.225-0.521,0.58-0.521,1.068
		c0.001,0.301,0.064,0.557,0.193,0.766s0.312,0.379,0.551,0.513l2.766-0.001c0.234-0.133,0.417-0.304,0.549-0.515
		c0.13-0.211,0.195-0.462,0.195-0.75c0-0.485-0.203-0.843-0.612-1.072c-0.408-0.23-0.939-0.346-1.597-0.346H4.132z"/>
	<path fill="#FFFFFF" d="M4.132,37.456c-0.926-0.001-1.67-0.216-2.234-0.647c-0.565-0.432-0.847-1.041-0.848-1.825
		c0-0.398,0.082-0.744,0.246-1.037s0.403-0.538,0.715-0.732l-0.838-0.171v-1.153l9.141-0.001v1.424H6.792
		c0.27,0.195,0.477,0.43,0.622,0.703c0.144,0.274,0.216,0.593,0.216,0.956c0,0.792-0.309,1.405-0.926,1.837
		s-1.434,0.646-2.449,0.647H4.132z M4.255,36.032c0.66,0,1.194-0.114,1.601-0.341c0.405-0.227,0.608-0.585,0.609-1.078
		c-0.001-0.316-0.071-0.58-0.211-0.793c-0.142-0.213-0.337-0.383-0.587-0.507h-2.66c-0.254,0.12-0.449,0.289-0.588,0.504
		c-0.14,0.215-0.209,0.483-0.208,0.809c-0.001,0.492,0.172,0.849,0.518,1.071s0.813,0.335,1.403,0.335H4.255z"/>
	<path fill="#FFFFFF" d="M1.173,42.506c0.16-0.05,0.316-0.092,0.469-0.125c0.152-0.034,0.305-0.056,0.457-0.067
		c-0.296-0.191-0.546-0.447-0.746-0.768c-0.202-0.321-0.303-0.678-0.302-1.073c0-0.66,0.17-1.166,0.509-1.52
		c0.34-0.354,0.807-0.531,1.4-0.531c0.613,0,1.091,0.243,1.433,0.728c0.343,0.483,0.513,1.165,0.513,2.045v1.106h0.557
		c0.332,0.001,0.592-0.096,0.779-0.289s0.281-0.474,0.281-0.841c0-0.324-0.077-0.582-0.23-0.773
		C6.138,40.205,5.937,40.11,5.69,40.11l-0.006-1.371l0.035-0.006c0.5-0.027,0.943,0.196,1.331,0.671
		c0.387,0.475,0.579,1.092,0.58,1.854c-0.001,0.739-0.188,1.335-0.563,1.788s-0.914,0.68-1.617,0.68l-2.817-0.001
		c-0.263,0.001-0.513,0.018-0.754,0.054c-0.239,0.035-0.476,0.092-0.706,0.17V42.506z M2.192,40.765c0,0.356,0.09,0.678,0.27,0.965
		s0.385,0.478,0.615,0.571l0.938-0.001l0.001-1.131c-0.001-0.413-0.104-0.738-0.309-0.972c-0.205-0.234-0.445-0.353-0.723-0.353
		c-0.243,0.001-0.435,0.08-0.578,0.238C2.264,40.242,2.192,40.469,2.192,40.765z"/>
	<path fill="#FFFFFF" d="M2.187,47.798c0,0.324,0.102,0.598,0.305,0.823c0.204,0.224,0.462,0.337,0.773,0.337v1.288l-0.035,0.012
		c-0.594,0.017-1.105-0.219-1.534-0.706c-0.431-0.485-0.646-1.07-0.646-1.754c0-0.914,0.302-1.619,0.905-2.115
		c0.604-0.496,1.364-0.744,2.283-0.744h0.204c0.914,0,1.675,0.248,2.279,0.743c0.605,0.497,0.908,1.2,0.908,2.11
		c0.001,0.737-0.222,1.337-0.665,1.799c-0.443,0.461-1.007,0.684-1.69,0.668L5.24,50.246v-1.288
		c0.347-0.001,0.642-0.107,0.884-0.322c0.243-0.215,0.363-0.496,0.363-0.844c0-0.508-0.195-0.873-0.589-1.097
		c-0.392-0.222-0.878-0.333-1.456-0.333H4.237c-0.59,0-1.078,0.109-1.468,0.331C2.381,46.914,2.188,47.282,2.187,47.798z"/>
	<path fill="#FFFFFF" d="M3.944,53.405v-0.528l-2.771,0.001V51.46h9.141v1.417l-5.227,0.001v0.486l2.426,1.716v1.671l-2.917-2.174
		l-3.423,2.414v-1.658L3.944,53.405z"/>
</g>
</svg>
